<svg width="32" height="32" viewBox="0 0 32 32" fill="none" xmlns="http://www.w3.org/2000/svg">
<path fill-rule="evenodd" clip-rule="evenodd" d="M16.866 3.5C16.4811 2.83333 15.5189 2.83333 15.134 3.5L1.27756 27.5C0.892657 28.1667 1.37378 29 2.14358 29H29.8564C30.6262 29 31.1073 28.1667 30.7224 27.5L16.866 3.5ZM14.9742 20.5546L14.7665 11H17.17L16.9722 20.5546H14.9742ZM17.4964 24.0263C17.4964 24.9065 16.893 25.5 15.9831 25.5C15.0632 25.5 14.45 24.9065 14.45 24.0263C14.45 23.1361 15.0632 22.5426 15.9831 22.5426C16.893 22.5426 17.4964 23.1361 17.4964 24.0263Z" fill="#E73E52"/>
</svg>
