<svg width="32" height="32" viewBox="0 0 32 32" fill="none" xmlns="http://www.w3.org/2000/svg">
<path fill-rule="evenodd" clip-rule="evenodd" d="M3 2C1.89543 2 1 2.89543 1 4V26C1 27.1046 1.89543 28 3 28H12.398C11.5066 26.3662 11 24.4923 11 22.5C11 16.1487 16.1487 11 22.5 11C25.8674 11 28.8968 12.4474 31 14.7539V7C31 5.89543 30.1046 5 29 5H17.0704C16.4017 5 15.7772 4.6658 15.4063 4.1094L14.5937 2.8906C14.2228 2.3342 13.5983 2 12.9296 2H3Z" fill="#88C7EA"/>
<path fill-rule="evenodd" clip-rule="evenodd" d="M11.5423 26H3L3 4L12.9296 4L13.7422 5.2188C14.484 6.3316 15.733 7 17.0704 7H29V13.0119C29.7322 13.5145 30.4034 14.0996 31 14.7539V7C31 5.89543 30.1046 5 29 5H17.0704C16.4017 5 15.7772 4.6658 15.4063 4.1094L14.5937 2.8906C14.2228 2.3342 13.5983 2 12.9296 2H3C1.89543 2 1 2.89543 1 4V26C1 27.1046 1.89543 28 3 28H12.398C12.0527 27.367 11.7651 26.698 11.5423 26Z" fill="#338ECC"/>
<path fill-rule="evenodd" clip-rule="evenodd" d="M22.3918 29.9387C22.4705 30.0204 22.6013 30.0204 22.68 29.9387L29.9066 22.4271C30.0289 22.3001 29.9388 22.0885 29.7625 22.0885L25.0708 22.0885L25.0708 17.0884L20.0708 17.0884L20.0708 22.0885L15.3084 22.0885C15.1321 22.0885 15.042 22.3001 15.1643 22.4271L22.3918 29.9387Z" fill="#338ECC"/>
</svg>
