<?xml version="1.0" encoding="UTF-8" ?>
<svg xmlns="http://www.w3.org/2000/svg"
  xmlns:xlink="http://www.w3.org/1999/xlink">

  <symbol id="settings" viewBox="0 0 28 28">
    <g fill="none" fill-rule="evenodd">
      <path d="M-4-4h36v36H-4z"/>
      <path fill-rule="nonzero" stroke="#FFF" stroke-width="2" d="M24.5 1.5h-21a2 2 0 0 0-2 2v21a2 2 0 0 0 2 2h21a2 2 0 0 0 2-2v-21a2 2 0 0 0-2-2z"/>
      <path fill="#FFF" fill-rule="nonzero" d="M19.398 14c0 .23-.02.46-.052.68l1.522 1.16c.134.11.175.3.082.45l-1.44 2.42a.369.369 0 0 1-.441.15l-1.79-.7c-.37.28-.78.51-1.212.69l-.268 1.85a.37.37 0 0 1-.36.3h-2.878a.371.371 0 0 1-.36-.29l-.268-1.85a5.323 5.323 0 0 1-1.213-.69l-1.789.7c-.164.06-.35 0-.442-.15L7.05 16.3a.347.347 0 0 1 .083-.45l1.522-1.16c-.031-.23-.052-.46-.052-.69 0-.23.02-.46.052-.68l-1.522-1.16a.347.347 0 0 1-.082-.45l1.44-2.42a.369.369 0 0 1 .441-.15l1.79.7c.37-.28.78-.51 1.212-.69l.268-1.85a.37.37 0 0 1 .36-.3h2.878c.175 0 .33.13.36.29l.268 1.85c.442.18.843.41 1.213.69l1.789-.7c.164-.06.35 0 .442.15l1.44 2.42c.092.15.05.34-.083.45l-1.522 1.16c.031.23.052.46.052.69zM14 12c-1.1 0-2 .9-2 2s.9 2 2 2 2-.9 2-2-.9-2-2-2z"/>
    </g>
  </symbol>

  <symbol id="sql-text" viewBox="0 0 32 32">
    <defs>
      <polygon id="path-1" points="0.575051172 0.637522461 21.0569629 0.637522461 21.0569629 20.6921857 0.575051172 20.6921857"></polygon>
    </defs>
    <g id="sql_text" stroke="none" stroke-width="1" fill="none" fill-rule="evenodd">
      <g id="Page-1" transform="translate(0.468750, 5.000000)">
        <g id="Group-3" transform="translate(9.853516, 0.347435)">
          <mask id="mask-2" fill="white">
            <use xlink:href="#path-1"></use>
          </mask>
          <g id="Clip-2"></g>
          <path d="M19.773641,6.80168477 L21.0575541,6.45287031 L19.5066107,0.637325391 L2.12599453,0.637325391 L0.575051172,6.45287031 L1.85797891,6.80168477 C2.46002871,5.63798457 3.07488809,4.47526973 3.78335586,3.88701484 C4.49280898,3.31156953 5.32148965,3.31156953 6.13736074,3.31156953 L9.47967324,3.31156953 L9.47967324,17.3498732 C9.47967324,18.018927 9.47967324,18.6869953 9.03823574,19.0210295 C8.58398867,19.3550637 7.70111367,19.3550637 6.8054291,19.3550637 L6.8054291,20.6921857 L14.8271762,20.6921857 L14.8271762,19.3550637 C13.9314916,19.3550637 13.0486166,19.3550637 12.5943695,19.0210295 C12.152932,18.6869953 12.152932,18.018927 12.152932,17.3498732 L12.152932,3.31156953 L15.4952445,3.31156953 C16.3111156,3.31156953 17.1397963,3.31156953 17.8482641,3.88701484 C18.5577172,4.47526973 19.1725766,5.63798457 19.773641,6.80168477" id="Fill-1" fill="#338ECC" mask="url(#mask-2)"></path>
        </g>
        <polygon id="Fill-4" fill="#338ECC" points="4.99908262 9.03035293 0.000394140625 14.0290414 4.99908262 19.0395541 6.5352457 17.4925521 3.07074961 14.0290414 6.5352457 10.566516"></polygon>
        <polygon id="Fill-6" fill="#338ECC" points="11.3374551 19.0397512 16.3371289 14.0292385 11.3374551 9.03055 9.80227734 10.5657277 13.2657881 14.0292385 9.80227734 17.4927492"></polygon>
      </g>
    </g>
  </symbol>

  <symbol id="arrow" viewBox="0 0 16 16">
    <path class="icon-fill" d="M9.45939791,6.31596408 L10.160304,9.99078745 C10.2637771,10.5332925 9.90787129,11.0569613 9.3653662,11.1604343 C9.24157151,11.1840459 9.11442925,11.1840445 8.9906351,11.1604301 L5.31603606,10.4594812 C4.77353329,10.355996 4.41763926,9.83231921 4.52112449,9.28981644 C4.55868393,9.09291783 4.65454981,8.91185096 4.79628428,8.77010783 L7.76997718,5.7962334 C8.16048955,5.40569718 8.79365453,5.40567786 9.18419074,5.79619023 C9.325954,5.93794483 9.42183756,6.11903666 9.45939791,6.31596408 Z" transform="translate(7.242641, 8.242641) rotate(-45.000000) translate(-7.242641, -8.242641) "></path>
  </symbol>

  <symbol id="cross" viewBox="0 0 24 24">
    <path fill="currentColor" fill-rule="evenodd" clip-rule="evenodd" d="M3.31579 3.31579C2.89474 3.73684 2.89474 4.42105 3.31579 4.84211L10.4737 12L3.31579 19.1579C2.89474 19.5789 2.89474 20.2632 3.31579 20.6842C3.73684 21.1053 4.42105 21.1053 4.84211 20.6842L12 13.5263L19.1579 20.6842C19.5789 21.1053 20.2632 21.1053 20.6842 20.6842C21.1053 20.2632 21.1053 19.5789 20.6842 19.1579L13.5263 12L20.6842 4.84211C21.1053 4.42105 21.1053 3.73684 20.6842 3.31579C20.2632 2.89474 19.5789 2.89474 19.1579 3.31579L12 10.4737L4.84211 3.31579C4.42105 2.89474 3.73684 2.89474 3.31579 3.31579Z"/>
  </symbol>

  <symbol id="export" viewBox="0 0 32 32">
    <g id="export" stroke="none" stroke-width="1" fill="none" fill-rule="evenodd">
      <g id="Page-1" transform="translate(3.000000, 2.000000)" fill="#338ECC">
        <polygon id="Fill-1" points="12.7422 -0.0003 5.4502 7.2927 9.6172 7.2927 9.6172 20.4797 15.8672 20.4797 15.8672 7.2927 20.0342 7.2927"></polygon>
        <polygon id="Fill-2" points="3.641 28.6602 21.844 28.6602 21.844 25.0192 3.641 25.0192"></polygon>
        <polygon id="Fill-3" points="0 25.0192 3.641 25.0192 3.641 18.7792 0 18.7792"></polygon>
        <polygon id="Fill-4" points="0 28.6602 3.641 28.6602 3.641 25.0192 0 25.0192"></polygon>
        <polygon id="Fill-5" points="21.844 25.0192 25.485 25.0192 25.485 18.7792 21.844 18.7792"></polygon>
        <polygon id="Fill-6" points="21.844 28.6602 25.485 28.6602 25.485 25.0192 21.844 25.0192"></polygon>
      </g>
    </g>
  </symbol>

  <symbol id="undo" viewBox="0 0 32 32">
    <g id="Undo" stroke="none" stroke-width="1" fill="none" fill-rule="evenodd">
      <g id="Page-1" transform="translate(4.000000, 2.000000)" fill="#338ECC">
        <path d="M1.6611,10.0149 L8.4301,3.2479 L8.4301,6.5099 C8.4301,6.8749 8.7601,7.1529 9.1221,7.0859 C9.5931,6.9979 10.2971,6.8929 10.9861,6.8929 C16.3411,6.8929 20.6991,11.1569 20.6991,16.3989 C20.6991,19.0679 19.5691,21.4969 17.5851,23.2469 C17.8901,22.4439 18.0441,21.5999 18.0441,20.7229 C18.0441,16.3839 14.4791,12.8559 10.1031,12.8559 C9.2041,12.8559 8.4301,12.8479 8.4301,13.5139 L8.4301,16.7749 L1.6611,10.0149 Z M0.4221,10.4269 L8.6011,18.5979 C8.9721,18.9739 9.5981,18.7009 9.5981,18.1859 L9.5981,14.0419 C9.7651,14.0299 9.9341,14.0239 10.1031,14.0239 C13.8371,14.0239 16.8761,17.0299 16.8761,20.7229 C16.8761,22.2309 16.3551,23.5709 15.2891,24.8209 C14.8811,25.3009 15.4221,26.0189 15.9991,25.7209 C19.6741,23.8399 21.8681,20.3559 21.8681,16.3989 C21.8681,10.5109 16.9861,5.7249 10.9861,5.7249 C10.5041,5.7249 10.0181,5.7679 9.5981,5.8239 L9.5981,1.8379 C9.5981,1.3229 8.9721,1.0499 8.6011,1.4259 L0.4221,9.6029 C0.1921,9.8269 0.1921,10.2029 0.4221,10.4269 L0.4221,10.4269 Z" id="Fill-1"></path>
        <g id="Group-5" transform="translate(0.000000, 0.040800)">
          <path d="M10.0371,12.5654 L10.0691,12.5654 C14.6201,12.5654 18.2941,16.2064 18.2941,20.6824 C18.2941,21.2494 18.2301,21.8064 18.1051,22.3484 C19.6241,20.7064 20.4491,18.6114 20.4491,16.3574 C20.4491,11.2544 16.2041,7.1024 10.9861,7.1024 C10.3181,7.1024 9.6291,7.2044 9.1681,7.2904 C8.9211,7.3344 8.6731,7.2714 8.4811,7.1124 C8.2901,6.9534 8.1801,6.7184 8.1801,6.4694 L8.1801,3.8114 L2.0151,9.9744 L8.1801,16.1314 L8.1801,13.4724 C8.1801,13.1844 8.2961,12.8084 8.8511,12.6564 C9.1751,12.5674 9.5931,12.5654 10.0371,12.5654 L10.0371,12.5654 Z M16.9931,24.0614 L17.3511,23.1174 C17.6441,22.3424 17.7941,21.5234 17.7941,20.6824 C17.7941,16.4824 14.3441,13.0654 10.1031,13.0654 C9.6571,13.0804 9.2511,13.0654 8.9831,13.1384 C8.7291,13.2084 8.6801,13.3144 8.6801,13.4724 L8.6801,17.3374 L1.3081,9.9744 L8.6801,2.6044 L8.6801,6.4694 C8.6801,6.5694 8.7241,6.6634 8.8011,6.7274 C8.8791,6.7924 8.9751,6.8164 9.0761,6.7994 C9.5581,6.7094 10.2801,6.6024 10.9861,6.6024 C16.4791,6.6024 20.9491,10.9784 20.9491,16.3574 C20.9491,19.0764 19.8131,21.5744 17.7501,23.3934 L16.9931,24.0614 Z M10.1031,13.7334 C13.9751,13.7334 17.1261,16.8504 17.1261,20.6824 C17.1261,22.2504 16.5871,23.6434 15.4791,24.9424 C15.3481,25.0974 15.3941,25.2714 15.4751,25.3724 C15.5151,25.4224 15.6591,25.5734 15.8841,25.4574 C19.4751,23.6194 21.6181,20.2184 21.6181,16.3574 C21.6181,10.6104 16.8491,5.9344 10.9861,5.9344 C10.5721,5.9344 10.1171,5.9664 9.6321,6.0314 L9.3491,6.0684 L9.3491,1.7964 C9.3491,1.6304 9.2401,1.5274 9.1391,1.4854 C9.0901,1.4654 8.9241,1.4134 8.7801,1.5604 L0.5991,9.7384 C0.5341,9.8014 0.5001,9.8844 0.5001,9.9734 C0.5001,10.0634 0.5341,10.1464 0.5971,10.2064 L0.5991,10.2094 L8.7781,18.3794 C8.9251,18.5294 9.0921,18.4764 9.1391,18.4564 C9.2401,18.4144 9.3491,18.3114 9.3491,18.1454 L9.3491,13.7684 L9.5811,13.7514 C9.7531,13.7394 9.9291,13.7334 10.1031,13.7334 L10.1031,13.7334 Z M15.7221,26.0004 C15.4801,26.0004 15.2481,25.8904 15.0841,25.6844 C14.8301,25.3644 14.8361,24.9264 15.0991,24.6184 C16.1261,23.4134 16.6261,22.1264 16.6261,20.6824 C16.6261,17.0424 13.5441,14.1124 9.8491,14.2374 L9.8491,18.1454 C9.8491,18.4854 9.6441,18.7894 9.3281,18.9194 C9.0091,19.0484 8.6641,18.9754 8.4231,18.7324 L0.2461,10.5634 C0.0871,10.4084 0.0001,10.1984 0.0001,9.9734 C0.0001,9.7484 0.0881,9.5384 0.2471,9.3824 L8.4251,1.2084 C8.6641,0.9644 9.0131,0.8934 9.3281,1.0234 C9.6441,1.1524 9.8491,1.4564 9.8491,1.7964 L9.8491,5.5014 C10.2511,5.4564 10.6331,5.4344 10.9861,5.4344 C17.1241,5.4344 22.1181,10.3344 22.1181,16.3574 C22.1181,20.4094 19.8731,23.9774 16.1131,25.9024 C15.9861,25.9674 15.8521,26.0004 15.7221,26.0004 L15.7221,26.0004 Z" id="Fill-3"></path>
        </g>
      </g>
    </g>
  </symbol>

  <symbol id="search" width="24" height="24" viewBox="0 0 24 24" xmlns="http://www.w3.org/2000/svg">
    <path fill="currentColor" fill-rule="evenodd" clip-rule="evenodd" d="M13.75 10.5C13.75 12.2949 12.2949 13.75 10.5 13.75C8.70507 13.75 7.25 12.2949 7.25 10.5C7.25 8.70507 8.70507 7.25 10.5 7.25C12.2949 7.25 13.75 8.70507 13.75 10.5ZM13.6521 13.7116C12.8402 14.5085 11.7275 15 10.5 15C8.01472 15 6 12.9853 6 10.5C6 8.01472 8.01472 6 10.5 6C12.9853 6 15 8.01472 15 10.5C15 11.4459 14.7082 12.3235 14.2097 13.048L14.7678 13.1464L19.0104 17.3891L17.9497 18.4497L13.7071 14.2071L13.6521 13.7116Z"/>
  </symbol>

  <symbol id="user" width="28" height="28" viewBox="0 0 28 28">
    <g fill="none" fill-rule="evenodd">
      <path fill-rule="nonzero" stroke="#FFF" stroke-width="2" d="M5.5 7.5v21c0 1.104.893 2 2 2h21c1.098 0 2-.902 2-2v-21c0-1.098-.902-2-2-2h-21c-1.107 0-2 .896-2 2z" transform="translate(-4 -4)"/>
      <path fill="#FFF" fill-rule="nonzero" d="M22.5 13.5c0 2.49-2.01 4.5-4.5 4.5s-4.5-2.01-4.5-4.5S15.51 9 18 9s4.5 2.01 4.5 4.5zM9 25.5c0-3 6-4.65 9-4.65s9 1.65 9 4.65V27H9v-1.5z" transform="translate(-4 -4)"/>
      <path d="M0 0L36 0 36 36 0 36z" transform="translate(-4 -4)"/>
    </g>
  </symbol>

  <symbol id="add" width="28" height="28" viewBox="0 0 28 28">
    <g fill="none" fill-rule="evenodd">
      <path d="M0 0L36 0 36 36 0 36z" transform="translate(-4 -4)"/>
      <path fill-rule="nonzero" stroke="currentColor" stroke-width="2" d="M28.5 5.5h-21c-1.107 0-2 .896-2 2v21c0 1.104.893 2 2 2h21c1.107 0 2-.896 2-2v-21c0-1.104-.893-2-2-2z" transform="translate(-4 -4)"/>
      <path fill="currentColor" fill-rule="nonzero" d="M22.297 12.293L18 16.59 13.703 12.293 12.293 13.703 16.59 18 12.293 22.297 13.703 23.707 18 19.41 22.297 23.707 23.707 22.297 19.41 18 23.707 13.703z" transform="translate(-4 -4) rotate(-45 18 18)"/>
    </g>
  </symbol>

  <symbol id="trash" width="28" height="28" viewBox="0 0 28 28">
    <g fill="none" fill-rule="evenodd">
      <path d="M0 0L36 0 36 36 0 36z" transform="translate(-4 -4)"/>
      <path fill-rule="nonzero" stroke="currentColor" stroke-width="2" d="M28.5 5.5h-21c-1.107 0-2 .896-2 2v21c0 1.104.893 2 2 2h21c1.107 0 2-.896 2-2v-21c0-1.104-.893-2-2-2z" transform="translate(-4 -4)"/>
      <path fill="currentColor" fill-rule="nonzero" d="M12 25.071v-12h12v12c0 1.1-.9 2-2 2h-8c-1.1 0-2-.9-2-2zm2-10v10h8v-10h-8zm7.5-5H25v2H11v-2h3.5l1-1h5l1 1z" transform="translate(-4 -4)"/>
    </g>
  </symbol>

  <symbol id="angle" viewBox="0 0 15 8">
    <path class="icon-fill" fill-rule="evenodd" d="M14.5.954l-.875-.88L7.5 6.238 1.375 0 .5.88 7.5 8z"/>
  </symbol>

  <symbol id="cross-bold" viewBox="0 0 7 8">
    <g fill="#6D6D6D" fill-rule="evenodd">
      <path d="M.514 6.514L6.171.858l.707.707-5.656 5.657z"/>
      <path d="M6.171 7.143L.514 1.486l.629-.629L6.8 6.514z"/>
    </g>
  </symbol>

  <symbol id="spinner" viewBox="0 0 43 42">
    <defs>
      <linearGradient id="prefix__a" x1="59.847%" x2="43.09%" y1="106.152%" y2="60.499%">
        <stop offset="0%" stop-color="#FFF" stop-opacity="0"/>
        <stop offset="100%" stop-color="#FFF"/>
      </linearGradient>
    </defs>
    <path fill="none" fill-rule="evenodd" stroke="url(#prefix__a)" stroke-linecap="round" stroke-linejoin="round" stroke-width="6" d="M808.5 476c-9.94 0-18-8.06-18-18s8.06-18 18-18 18 8.06 18 18" transform="translate(-787 -437)"/>
  </symbol>

  <symbol id="snack" viewBox="0 0 16 10">
    <path d="M0 8.464h16v1H0zm0-4.038h16v1H0zM0 .387h16v1H0z" />
  </symbol>

  <symbol id="reload" viewBox="0 0 16 16">
    <path fill-rule="evenodd" clip-rule="evenodd" d="M3.1 8C3.1 5.62518 5.02518 3.7 7.4 3.7C9.41287 3.7 11.1027 5.08306 11.5711 6.95071L10.5663 6.33373C10.2368 6.13143 9.80579 6.23451 9.60349 6.56395C9.40119 6.8934 9.50427 7.32446 9.83371 7.52676L12.8405 9.37309L14.6868 6.36629C14.8891 6.03684 14.7861 5.60578 14.4566 5.40348C14.1272 5.20118 13.6961 5.30426 13.4938 5.63371L12.9191 6.56971C12.2845 4.11395 10.0541 2.3 7.4 2.3C4.25198 2.3 1.7 4.85198 1.7 8C1.7 11.148 4.25198 13.7 7.4 13.7C9.08822 13.7 10.6057 12.9652 11.6484 11.8002C11.9063 11.5121 11.8818 11.0696 11.5937 10.8117C11.3056 10.5539 10.8631 10.5784 10.6053 10.8665C9.81689 11.7473 8.67345 12.3 7.4 12.3C5.02518 12.3 3.1 10.3748 3.1 8Z"></path>
  </symbol>

  <symbol id="refresh-outline" viewBox="0 0 28 28">
    <g clip-path="url(#clip0)">
      <path fill="currentColor" fill-rule="evenodd" clip-rule="evenodd" d="M0.5 3.5C0.5 1.84469 1.83974 0.5 3.5 0.5H24.5C26.1603 0.5 27.5 1.84469 27.5 3.5V24.5C27.5 26.1553 26.1603 27.5 24.5 27.5H3.5C1.83974 27.5 0.5 26.1553 0.5 24.5V3.5ZM3.5 2.5C2.94626 2.5 2.5 2.94731 2.5 3.5V24.5C2.5 25.0527 2.94626 25.5 3.5 25.5H24.5C25.0537 25.5 25.5 25.0527 25.5 24.5V3.5C25.5 2.94731 25.0537 2.5 24.5 2.5H3.5ZM16.2923 12.193C16.5813 11.7224 17.1971 11.5751 17.6677 11.8641L18.5184 12.3865C17.8472 10.4168 15.9813 9 13.7845 9C11.023 9 8.78445 11.2386 8.78445 14C8.78445 16.7614 11.023 19 13.7845 19C15.2652 19 16.5946 18.3576 17.5115 17.3331C17.8799 16.9216 18.5121 16.8865 18.9236 17.2549C19.3351 17.6232 19.3701 18.2554 19.0018 18.6669C17.7215 20.0974 15.8577 21 13.7845 21C9.91846 21 6.78445 17.866 6.78445 14C6.78445 10.134 9.91846 7 13.7845 7C16.9153 7 19.5661 9.05542 20.461 11.8905L20.9607 11.0767C21.2497 10.6061 21.8655 10.4588 22.3361 10.7478C22.8068 11.0368 22.954 11.6526 22.665 12.1233L20.3657 15.8678L16.6212 13.5684C16.1505 13.2794 16.0033 12.6636 16.2923 12.193Z"/>
    </g>
  </symbol>

  <symbol id="apply" viewBox="0 0 12 10">
    <path fill="#4FA843" fill-rule="evenodd" d="M309.706 13.261L306.565 10.131 305 11.696 309.706 16.392 317 9.087 315.434 7.522z" transform="translate(-305 -7)"/>
  </symbol>

  <symbol id="table-save" viewBox="0 0 16 16">
    <path fill="#A0CD9A" fill-rule="evenodd" clip-rule="evenodd" d="M5.0606 5.8396C5.12754 4.4408 6.37628 3.25 8 3.25C9.62372 3.25 10.8725 4.4408 10.9394 5.8396C10.9565 6.19621 11.2225 6.49137 11.5755 6.54518C12.5755 6.69767 13.25 7.47205 13.25 8.30769C13.25 9.23534 12.4087 10.0962 11.2308 10.0962H10V11.5962H11.2308C13.1116 11.5962 14.75 10.184 14.75 8.30769C14.75 6.82652 13.7228 5.62973 12.3694 5.19576C11.9861 3.20473 10.1415 1.75 8 1.75C5.85848 1.75 4.01389 3.20473 3.63058 5.19575C2.27723 5.62973 1.25 6.82652 1.25 8.30769C1.25 10.184 2.88838 11.5962 4.76923 11.5962H6V10.0962H4.76923C3.59128 10.0962 2.75 9.23534 2.75 8.30769C2.75 7.47205 3.42451 6.69767 4.42452 6.54518C4.77746 6.49136 5.04354 6.19621 5.0606 5.8396ZM10.5303 8.59099C10.2374 8.88388 9.76256 8.88388 9.46967 8.59099L8.75 7.87132V14.0607H7.25V7.87132L6.53033 8.59099C6.23744 8.88388 5.76256 8.88388 5.46967 8.59099C5.17678 8.2981 5.17678 7.82322 5.46967 7.53033L8 5L10.5303 7.53033C10.8232 7.82322 10.8232 8.2981 10.5303 8.59099Z"/>
  </symbol>

  <symbol id="table-cancel" viewBox="0 0 16 16">
    <path fill="#E49388" fill-rule="evenodd" clip-rule="evenodd" d="M4.3988 3.13864C4.05709 2.79693 3.50307 2.79693 3.16136 3.13864C2.81965 3.48035 2.81965 4.03437 3.16136 4.37608L6.78528 8L3.16136 11.6239C2.81965 11.9656 2.81965 12.5197 3.16136 12.8614C3.50307 13.2031 4.05709 13.2031 4.3988 12.8614L8.02272 9.23744L11.6466 12.8614C11.9883 13.2031 12.5424 13.2031 12.8841 12.8614C13.2258 12.5197 13.2258 11.9656 12.8841 11.6239L9.26015 8L12.8841 4.37608C13.2258 4.03437 13.2258 3.48035 12.8841 3.13864C12.5424 2.79693 11.9883 2.79693 11.6466 3.13864L8.02272 6.76256L4.3988 3.13864Z"/>
  </symbol>

  <symbol id="table-export" viewBox="0 0 16 16">
    <path fill="#338ECC" fill-rule="evenodd" clip-rule="evenodd" d="M14 3.5V2L2 2V3.5L14 3.5ZM10.5303 8.53033C10.2374 8.82323 9.76256 8.82323 9.46967 8.53033L8.75 7.81067V14H7.25V7.81067L6.53033 8.53033C6.23744 8.82323 5.76256 8.82323 5.46967 8.53033C5.17677 8.23744 5.17677 7.76257 5.46967 7.46968L8 4.93935L10.5303 7.46968C10.8232 7.76257 10.8232 8.23744 10.5303 8.53033Z"/>
  </symbol>

  <symbol id="edit" viewBox="0 0 13 13">
    <g fill="#338ECC" fill-rule="evenodd">
      <path d="M9.823.192c-.245-.256-.653-.256-.898 0L7.759 1.36 10.15 3.75l1.167-1.166c.256-.245.256-.653 0-.898L9.823.192zM0 9.106L0 11.509 2.403 11.509 9.473 4.427 7.082 2.035zM4.808 10.287H12V11.509H4.808z" transform="translate(.5 .519)"/>
    </g>
  </symbol>

  <symbol id="reject" viewBox="0 0 11 11">
    <path fill="#D7351F" fill-rule="evenodd" d="M332.531 5.956L332.531 10.762 327.725 10.762 327.725 13.15 332.531 13.15 332.531 17.957 334.918 17.957 334.918 13.15 339.725 13.15 339.725 10.762 334.918 10.762 334.918 5.956z" transform="rotate(-45 162.482 404.888)"/>
  </symbol>

  <symbol id="logo" viewBox="0 0 361 73">
    <g fill="none" fill-rule="evenodd">
      <path fill="#FFF" d="M148.71 34.954V30.17c0-4.275-3.479-7.752-7.753-7.752h-5.865c-4.275 0-7.753 3.477-7.753 7.752v31.959c0 4.275 3.478 7.752 7.753 7.752h5.865c4.274 0 7.752-3.477 7.752-7.752V59.06h-6.414v1.451c0 2.266-.86 3.664-2.955 3.664H136.708c-2.094 0-2.954-1.398-2.954-3.664V31.785c0-2.215.994-3.662 2.954-3.662h2.633c1.959 0 2.954 1.447 2.954 3.662v3.17h6.414zM164.41 69.852c-.26 0-.69.004-1.198.01-1.844.02-3.431.034-4.188-.017-3.238-.286-5.588-2.73-5.588-5.81V34.601h6.35s.08 19.396 0 27.479c-.02 2.123-.022 2.087 1.568 2.133 1.442.042 2.04.083 2.72.088 3.436.024 3.436 5.55 3.436 5.55h-3.1z"/>
      <path fill="#4598D3" d="M198.923 62.387v1.797h1.798c-.993 0-1.798-.805-1.798-1.797"/>
      <path fill="#244357" d="M252.705 60.511c0 2.198-1.254 3.664-2.954 3.664h-5.393V46.847h5.007c1.884 0 3.34 1.314 3.34 3.598v10.066zm-8.347-32.388h4.04c1.84 0 2.953 1.515 2.953 3.662v5.693c0 2.532-.91 3.662-2.953 3.662h-4.04V28.123zm12.127 15.205c.828-1.266 1.282-2.731 1.282-4.234V30.17c0-4.26-3.36-7.666-7.688-7.752h-12.136s-.008 1.697 0 6.278c.02 10.75 0 41.185 0 41.185h13.853c1.076 0 2.425-.546 2.425-.546 2.913-1.18 4.9-4.002 4.9-7.206v-13.3c0-2.018-.99-4.017-2.636-5.5zM268.596 49.345v-7.451c.097-.802.72-1.44 1.515-1.558h2.917c.865.13 1.53.873 1.53 1.774v7.235h-5.962zm6.558-14.715H268c-3.173 0-5.754 2.61-5.754 5.818v23.679c0 3.172 2.581 5.753 5.754 5.753h12.974s0-5.696-4.283-5.705c-1.646-.004-4.667-.001-6.468.001-.847-.073-1.525-.733-1.626-1.572v-7.553h12.377V40.448c0-3.208-2.61-5.818-5.819-5.818zM296.325 64.176l-4.296.002c-.916-.065-1.64-.815-1.666-1.741l-.002-8.977c.002-.871.624-1.596 1.448-1.758h4.516v12.474zM290.36 51.77v.724-.724zm6.562-17.14h-7.501c-4.388 0-4.446 5.706-4.446 5.706h9.833c.8.12 1.427.764 1.517 1.572v4.088h-6.558c-3.173 0-5.754 2.581-5.754 5.754v12.377c0 3.172 2.581 5.753 5.754 5.753h12.973V40.448c0-3.208-2.61-5.818-5.818-5.818zM313.564 55.813L309.588 34.63 303.432 34.63 309.979 69.88 316.999 69.88 323.546 34.63 317.586 34.63zM357.874 34.63c-.26 0-.691-.005-1.199-.01-1.844-.02-3.43-.034-4.188.017-3.238.286-5.588 2.73-5.588 5.81V69.88h6.35s.08-19.396 0-27.48c-.02-2.122-.022-2.086 1.568-2.132 1.442-.042 2.04-.083 2.72-.088 3.436-.024 3.436-5.55 3.436-5.55h-3.1zM331.317 49.345v-7.451c.097-.802.72-1.44 1.515-1.558h2.918c.865.13 1.529.873 1.53 1.774v7.235h-5.963zm6.559-14.715h-7.155c-3.173 0-5.754 2.61-5.754 5.818v23.679c0 3.172 2.581 5.753 5.754 5.753h12.973s0-5.696-4.282-5.705c-1.646-.004-4.668-.001-6.468.001-.847-.073-1.525-.733-1.627-1.572v-7.553h12.377V40.448c0-3.208-2.61-5.818-5.818-5.818z"/>
      <path fill="#FFF" d="M182.228 49.345v13.04c0 .902-.664 1.645-1.529 1.775h-2.918c-.794-.119-1.417-.756-1.515-1.557v-20.71c.098-.801.721-1.438 1.515-1.557h2.918c.865.13 1.529.873 1.53 1.774v7.235zm.597-14.715h-3.59v-.014h-3.565c-3.173 0-5.754 2.58-5.754 5.753V64.127c0 3.172 2.581 5.753 5.754 5.753h3.566l-.002-.014h3.591c3.208 0 5.818-2.61 5.818-5.818v-23.6c0-3.208-2.61-5.818-5.818-5.818zM204.854 34.63v27.756c0 .9-.664 1.645-1.529 1.774h-2.918c-.794-.119-1.418-.756-1.514-1.558V34.616h-6.35v29.51c0 3.173 2.58 5.754 5.753 5.754h3.566c0-.004 3.589-.014 3.589-.014 3.208 0 5.818-2.61 5.818-5.818V34.63h-6.415zM227.115 49.345v13.04c0 .902-.665 1.645-1.53 1.775h-4.432V40.336h4.433c.864.13 1.529.873 1.529 1.774v7.235zm.596-14.715h-3.59l.001-.014h-9.32V69.88h9.32l-.001-.014h3.59c3.209 0 5.819-2.61 5.819-5.818v-23.6c0-3.208-2.61-5.818-5.819-5.818z"/>
      <path fill="#244357" d="M94.575 35.68c-.581 0 0 0 0 0 0-18.976-16.87-35.496-35.846-35.496-13.978 0-26.446 8.45-31.812 20.432-.187-.004 0-.004-.187-.004C11.996 20.612 0 33.83 0 48.565c0 10.488 4.369 18.65 13.171 23.01 1.404-1.463 4.884-1.488 6.68-2.48-3.155-1.045-5.722-3.194-8.464-5.238-9.428-7.028-8.014-24.154-1.831-29.934 9.905-9.259 20.926-6.909 20.926-6.909l1.369-3.055c2.282-5.095 6.872-19.87 27.842-19.608 22.178.277 28.217 23.723 28.225 31.54l-.001.096-.012 5.522 5.502-.478c.436-.038.869-.057 1.286-.057 8.055 0 16.28 6.267 16.28 14.322s-8.225 12.252-16.28 12.252H49.15c.519.266 5.77 5.053 14.419 5.053h31.124c10.859 0 19.661-6.16 19.661-17.018 0-10.859-8.92-19.903-19.78-19.903"/>
      <path fill="#244357" d="M80 24.818c-2.074-.777-7.403-.253-11.148 1.209-1.836.717-3.293 1.658-3.794 2.785-1.374 3.091 7.042 8.458 10.434 7.47 1.616-.47 3.937-3.91 4.972-6.92.735-2.14.82-4.062-.464-4.544M61.18 27.364c-.96-.122-2.947-.391-3.582-1.11-1.418-1.606-3.692-2.037-5.346-1.674-1.751.385-2.684 2.424-1.48 4.96.54 1.14.403 2.514-.148 3.54 1.722-1.605 3.332-2.912 4.527-3.54 2.354-1.239 4.442-1.881 6.03-2.176M78.369 50.874s-1.718 5.84-2.92 8.501c-1.06 2.347-1.395 2.159-2.161 2.434.288-.728.495-1.682.873-3.292.454-1.938 0-2.448 0-2.448-.596 2.9-1.521 4.971-2.308 6.33-1.02.342-2.275.562-3.188.197-1.288-.515-1.507-6.57-1.507-6.913 5.605.386 8.592-1.89 11.21-4.809m-27.555-6.382c.119.562.25 1.089.389 1.6l-.131-.148s.11.254.28.69c.235.806.495 1.541.773 2.222.922 2.961 1.905 7.506.44 10.355-1.096 2.13-15.017 9.102 8.777 13.283l21.36-4.946c-9.41-1.273-5.63-6.19-3.388-10.234 2.691-4.853 3.61-7.943 4.19-12.4.348-2.68.092-4.686.018-5.169-.011-.073-.019-.113-.019-.113s-.01.15-.038.406l.038-.664s-1.698 6.827-5.047 9.275c-.78.57-1.278.948-1.598 1.203.337-1.273 1.602-6.638-.206-9.576 0 0-.75 12.343-7.33 12.999-6.582.655-15.856-6.079-18.508-8.783"/>
      <path fill="#244357" d="M31.876 44.084c-.264 1.478-.378 2.809-.337 3.982-1.279 2.027-10.513 23.982-21.983 14.117 1.963 1.72 3.615 9.391 3.615 9.391C23.96 77.88 31.43 53.154 32.283 51.532c.695 1.486 1.87 4.504 8.39 4.638 0 0-7.65-3.75-4.235-13.7 3.414-9.952 8.461-18.397 15.391-22.302 6.93-3.905 13.932-3.639 20.373-.89 0 0-9.72-8.937-20.89-2.182-6.417 3.88-10.689 8.187-13.63 12.6-2.466.44-5.465.043-6.68.043-1.537 0-3.908 1.042-2.836 4.815 1.05 3.694 3.946 7.43 3.71 9.53"/>
    </g>
  </symbol>

  <symbol id="database" viewBox="0 0 32 32">
    <g stroke="none" stroke-width="1" fill-rule="evenodd" transform="translate(3.000000, 10.604400)">
      <path d="M12.269,11.0671 C19.047,11.0671 24.538,8.3221 24.538,4.9331 L24.538,0.3321 C24.538,3.7211 19.047,6.4661 12.269,6.4661 C5.491,6.4661 5.32907052e-15,3.7211 5.32907052e-15,0.3321 L5.32907052e-15,4.9331 C5.32907052e-15,8.3221 5.491,11.0671 12.269,11.0671" />
      <path d="M12.269,18.735 C19.047,18.735 24.538,15.99 24.538,12.6 L24.538,8 C24.538,11.389 19.047,14.134 12.269,14.134 C5.491,14.134 5.32907052e-15,11.389 5.32907052e-15,8 L5.32907052e-15,12.6 C5.32907052e-15,15.99 5.491,18.735 12.269,18.735" />
      <path d="M12.269,3.3991 C19.047,3.3991 24.538,0.6541 24.538,-2.7349 C24.538,-6.1239 19.047,-8.8699 12.269,-8.8699 C5.491,-8.8699 5.32907052e-15,-6.1239 5.32907052e-15,-2.7349 C5.32907052e-15,0.6541 5.491,3.3991 12.269,3.3991" />
    </g>
  </symbol>

  <symbol id="schema_system" viewBox="0 0 32 32">
    <g stroke="none" stroke-width="1" fill-rule="evenodd" transform="translate(3.000000, 4.000000)">
      <polygon points="6.835 6.4211 11.611 6.4211 11.611 5.0871 6.835 5.0871"></polygon>
      <polygon points="13.611 7.7541 19.613 7.7541 19.613 3.7531 13.611 3.7531"></polygon>
      <polygon points="6.835 13.1711 11.611 13.1711 11.611 11.8371 6.835 11.8371"></polygon>
      <polygon points="13.611 14.5041 19.613 14.5041 19.613 10.5031 13.611 10.5031"></polygon>
      <polygon points="6.835 19.5041 11.611 19.5041 11.611 18.1701 6.835 18.1701"></polygon>
      <polygon points="13.611 20.8371 19.613 20.8371 19.613 16.8361 13.611 16.8361"></polygon>
      <polygon points="0.826 2.4491 5.23 2.4491 5.23 0.0131 0.826 0.0131"></polygon>
      <polygon points="0.826 23.6991 5.23 23.6991 5.23 21.2641 0.826 21.2641"></polygon>
      <polygon points="0 23.5701 2.435 23.5701 2.435 0.0001 0 0.0001"></polygon>
      <polygon points="21 23.6851 25.404 23.6851 25.404 21.2501 21 21.2501"></polygon>
      <polygon points="21 2.4361 25.404 2.4361 25.404 0.0011 21 0.0011"></polygon>
      <polygon points="23.793 23.6991 26.229 23.6991 26.229 0.1291 23.793 0.1291"></polygon>
    </g>
  </symbol>

  <symbol id="sort-arrow" viewBox="0 0 6 6">
    <g>
      <path d="M2.564 0L0 2.383 1.832 2.383 1.832 4.582 3.297 4.582 3.297 2.383 5.128 2.383z" transform="translate(-5 -.222) translate(5 .389)"/>
    </g>
  </symbol>

</svg>
