<?xml version="1.0" encoding="UTF-8" ?>
<svg xmlns="http://www.w3.org/2000/svg"
  xmlns:xlink="http://www.w3.org/1999/xlink">

  <symbol id="settings" viewBox="0 0 28 28">
    <g fill="none" fill-rule="evenodd">
      <path d="M-4-4h36v36H-4z"/>
      <path fill-rule="nonzero" stroke="#FFF" stroke-width="2" d="M24.5 1.5h-21a2 2 0 0 0-2 2v21a2 2 0 0 0 2 2h21a2 2 0 0 0 2-2v-21a2 2 0 0 0-2-2z"/>
      <path fill="#FFF" fill-rule="nonzero" d="M19.398 14c0 .23-.02.46-.052.68l1.522 1.16c.134.11.175.3.082.45l-1.44 2.42a.369.369 0 0 1-.441.15l-1.79-.7c-.37.28-.78.51-1.212.69l-.268 1.85a.37.37 0 0 1-.36.3h-2.878a.371.371 0 0 1-.36-.29l-.268-1.85a5.323 5.323 0 0 1-1.213-.69l-1.789.7c-.164.06-.35 0-.442-.15L7.05 16.3a.347.347 0 0 1 .083-.45l1.522-1.16c-.031-.23-.052-.46-.052-.69 0-.23.02-.46.052-.68l-1.522-1.16a.347.347 0 0 1-.082-.45l1.44-2.42a.369.369 0 0 1 .441-.15l1.79.7c.37-.28.78-.51 1.212-.69l.268-1.85a.37.37 0 0 1 .36-.3h2.878c.175 0 .33.13.36.29l.268 1.85c.442.18.843.41 1.213.69l1.789-.7c.164-.06.35 0 .442.15l1.44 2.42c.092.15.05.34-.083.45l-1.522 1.16c.031.23.052.46.052.69zM14 12c-1.1 0-2 .9-2 2s.9 2 2 2 2-.9 2-2-.9-2-2-2z"/>
    </g>
  </symbol>

  <symbol id="sql-text" viewBox="0 0 32 32">
    <defs>
      <polygon id="path-1" points="0.575051172 0.637522461 21.0569629 0.637522461 21.0569629 20.6921857 0.575051172 20.6921857"></polygon>
    </defs>
    <g id="sql_text" stroke="none" stroke-width="1" fill="none" fill-rule="evenodd">
      <g id="Page-1" transform="translate(0.468750, 5.000000)">
        <g id="Group-3" transform="translate(9.853516, 0.347435)">
          <mask id="mask-2" fill="white">
            <use xlink:href="#path-1"></use>
          </mask>
          <g id="Clip-2"></g>
          <path d="M19.773641,6.80168477 L21.0575541,6.45287031 L19.5066107,0.637325391 L2.12599453,0.637325391 L0.575051172,6.45287031 L1.85797891,6.80168477 C2.46002871,5.63798457 3.07488809,4.47526973 3.78335586,3.88701484 C4.49280898,3.31156953 5.32148965,3.31156953 6.13736074,3.31156953 L9.47967324,3.31156953 L9.47967324,17.3498732 C9.47967324,18.018927 9.47967324,18.6869953 9.03823574,19.0210295 C8.58398867,19.3550637 7.70111367,19.3550637 6.8054291,19.3550637 L6.8054291,20.6921857 L14.8271762,20.6921857 L14.8271762,19.3550637 C13.9314916,19.3550637 13.0486166,19.3550637 12.5943695,19.0210295 C12.152932,18.6869953 12.152932,18.018927 12.152932,17.3498732 L12.152932,3.31156953 L15.4952445,3.31156953 C16.3111156,3.31156953 17.1397963,3.31156953 17.8482641,3.88701484 C18.5577172,4.47526973 19.1725766,5.63798457 19.773641,6.80168477" id="Fill-1" fill="#338ECC" mask="url(#mask-2)"></path>
        </g>
        <polygon id="Fill-4" fill="#338ECC" points="4.99908262 9.03035293 0.000394140625 14.0290414 4.99908262 19.0395541 6.5352457 17.4925521 3.07074961 14.0290414 6.5352457 10.566516"></polygon>
        <polygon id="Fill-6" fill="#338ECC" points="11.3374551 19.0397512 16.3371289 14.0292385 11.3374551 9.03055 9.80227734 10.5657277 13.2657881 14.0292385 9.80227734 17.4927492"></polygon>
      </g>
    </g>
  </symbol>

  <symbol id="add_sm" viewBox="0 0 18 18">
    <path fill="currentColor" fill-rule="evenodd" clip-rule="evenodd" d="M10 5H8v3H5v2h3v3h2v-3h3V8h-3V5z"/>
  </symbol>

  <symbol id="arrow" viewBox="0 0 16 16">
    <path class="icon-fill" d="M8.245 10.66L4 6.4155L5.41567 5.001L8.245 7.831L11.0743 5L12.49 6.4155L8.245 10.66Z" />
  </symbol>

  <symbol id="cross" viewBox="0 0 24 24">
    <path fill="currentColor" fill-rule="evenodd" clip-rule="evenodd" d="M3.31579 3.31579C2.89474 3.73684 2.89474 4.42105 3.31579 4.84211L10.4737 12L3.31579 19.1579C2.89474 19.5789 2.89474 20.2632 3.31579 20.6842C3.73684 21.1053 4.42105 21.1053 4.84211 20.6842L12 13.5263L19.1579 20.6842C19.5789 21.1053 20.2632 21.1053 20.6842 20.6842C21.1053 20.2632 21.1053 19.5789 20.6842 19.1579L13.5263 12L20.6842 4.84211C21.1053 4.42105 21.1053 3.73684 20.6842 3.31579C20.2632 2.89474 19.5789 2.89474 19.1579 3.31579L12 10.4737L4.84211 3.31579C4.42105 2.89474 3.73684 2.89474 3.31579 3.31579Z"/>
  </symbol>

  <symbol id="export" viewBox="0 0 32 32">
    <g id="export" stroke="none" stroke-width="1" fill="none" fill-rule="evenodd">
      <g id="Page-1" transform="translate(3.000000, 2.000000)" fill="#338ECC">
        <polygon id="Fill-1" points="12.7422 -0.0003 5.4502 7.2927 9.6172 7.2927 9.6172 20.4797 15.8672 20.4797 15.8672 7.2927 20.0342 7.2927"></polygon>
        <polygon id="Fill-2" points="3.641 28.6602 21.844 28.6602 21.844 25.0192 3.641 25.0192"></polygon>
        <polygon id="Fill-3" points="0 25.0192 3.641 25.0192 3.641 18.7792 0 18.7792"></polygon>
        <polygon id="Fill-4" points="0 28.6602 3.641 28.6602 3.641 25.0192 0 25.0192"></polygon>
        <polygon id="Fill-5" points="21.844 25.0192 25.485 25.0192 25.485 18.7792 21.844 18.7792"></polygon>
        <polygon id="Fill-6" points="21.844 28.6602 25.485 28.6602 25.485 25.0192 21.844 25.0192"></polygon>
      </g>
    </g>
  </symbol>

  <symbol id="undo" viewBox="0 0 32 32">
    <g id="Undo" stroke="none" stroke-width="1" fill="none" fill-rule="evenodd">
      <g id="Page-1" transform="translate(4.000000, 2.000000)" fill="#338ECC">
        <path d="M1.6611,10.0149 L8.4301,3.2479 L8.4301,6.5099 C8.4301,6.8749 8.7601,7.1529 9.1221,7.0859 C9.5931,6.9979 10.2971,6.8929 10.9861,6.8929 C16.3411,6.8929 20.6991,11.1569 20.6991,16.3989 C20.6991,19.0679 19.5691,21.4969 17.5851,23.2469 C17.8901,22.4439 18.0441,21.5999 18.0441,20.7229 C18.0441,16.3839 14.4791,12.8559 10.1031,12.8559 C9.2041,12.8559 8.4301,12.8479 8.4301,13.5139 L8.4301,16.7749 L1.6611,10.0149 Z M0.4221,10.4269 L8.6011,18.5979 C8.9721,18.9739 9.5981,18.7009 9.5981,18.1859 L9.5981,14.0419 C9.7651,14.0299 9.9341,14.0239 10.1031,14.0239 C13.8371,14.0239 16.8761,17.0299 16.8761,20.7229 C16.8761,22.2309 16.3551,23.5709 15.2891,24.8209 C14.8811,25.3009 15.4221,26.0189 15.9991,25.7209 C19.6741,23.8399 21.8681,20.3559 21.8681,16.3989 C21.8681,10.5109 16.9861,5.7249 10.9861,5.7249 C10.5041,5.7249 10.0181,5.7679 9.5981,5.8239 L9.5981,1.8379 C9.5981,1.3229 8.9721,1.0499 8.6011,1.4259 L0.4221,9.6029 C0.1921,9.8269 0.1921,10.2029 0.4221,10.4269 L0.4221,10.4269 Z" id="Fill-1"></path>
        <g id="Group-5" transform="translate(0.000000, 0.040800)">
          <path d="M10.0371,12.5654 L10.0691,12.5654 C14.6201,12.5654 18.2941,16.2064 18.2941,20.6824 C18.2941,21.2494 18.2301,21.8064 18.1051,22.3484 C19.6241,20.7064 20.4491,18.6114 20.4491,16.3574 C20.4491,11.2544 16.2041,7.1024 10.9861,7.1024 C10.3181,7.1024 9.6291,7.2044 9.1681,7.2904 C8.9211,7.3344 8.6731,7.2714 8.4811,7.1124 C8.2901,6.9534 8.1801,6.7184 8.1801,6.4694 L8.1801,3.8114 L2.0151,9.9744 L8.1801,16.1314 L8.1801,13.4724 C8.1801,13.1844 8.2961,12.8084 8.8511,12.6564 C9.1751,12.5674 9.5931,12.5654 10.0371,12.5654 L10.0371,12.5654 Z M16.9931,24.0614 L17.3511,23.1174 C17.6441,22.3424 17.7941,21.5234 17.7941,20.6824 C17.7941,16.4824 14.3441,13.0654 10.1031,13.0654 C9.6571,13.0804 9.2511,13.0654 8.9831,13.1384 C8.7291,13.2084 8.6801,13.3144 8.6801,13.4724 L8.6801,17.3374 L1.3081,9.9744 L8.6801,2.6044 L8.6801,6.4694 C8.6801,6.5694 8.7241,6.6634 8.8011,6.7274 C8.8791,6.7924 8.9751,6.8164 9.0761,6.7994 C9.5581,6.7094 10.2801,6.6024 10.9861,6.6024 C16.4791,6.6024 20.9491,10.9784 20.9491,16.3574 C20.9491,19.0764 19.8131,21.5744 17.7501,23.3934 L16.9931,24.0614 Z M10.1031,13.7334 C13.9751,13.7334 17.1261,16.8504 17.1261,20.6824 C17.1261,22.2504 16.5871,23.6434 15.4791,24.9424 C15.3481,25.0974 15.3941,25.2714 15.4751,25.3724 C15.5151,25.4224 15.6591,25.5734 15.8841,25.4574 C19.4751,23.6194 21.6181,20.2184 21.6181,16.3574 C21.6181,10.6104 16.8491,5.9344 10.9861,5.9344 C10.5721,5.9344 10.1171,5.9664 9.6321,6.0314 L9.3491,6.0684 L9.3491,1.7964 C9.3491,1.6304 9.2401,1.5274 9.1391,1.4854 C9.0901,1.4654 8.9241,1.4134 8.7801,1.5604 L0.5991,9.7384 C0.5341,9.8014 0.5001,9.8844 0.5001,9.9734 C0.5001,10.0634 0.5341,10.1464 0.5971,10.2064 L0.5991,10.2094 L8.7781,18.3794 C8.9251,18.5294 9.0921,18.4764 9.1391,18.4564 C9.2401,18.4144 9.3491,18.3114 9.3491,18.1454 L9.3491,13.7684 L9.5811,13.7514 C9.7531,13.7394 9.9291,13.7334 10.1031,13.7334 L10.1031,13.7334 Z M15.7221,26.0004 C15.4801,26.0004 15.2481,25.8904 15.0841,25.6844 C14.8301,25.3644 14.8361,24.9264 15.0991,24.6184 C16.1261,23.4134 16.6261,22.1264 16.6261,20.6824 C16.6261,17.0424 13.5441,14.1124 9.8491,14.2374 L9.8491,18.1454 C9.8491,18.4854 9.6441,18.7894 9.3281,18.9194 C9.0091,19.0484 8.6641,18.9754 8.4231,18.7324 L0.2461,10.5634 C0.0871,10.4084 0.0001,10.1984 0.0001,9.9734 C0.0001,9.7484 0.0881,9.5384 0.2471,9.3824 L8.4251,1.2084 C8.6641,0.9644 9.0131,0.8934 9.3281,1.0234 C9.6441,1.1524 9.8491,1.4564 9.8491,1.7964 L9.8491,5.5014 C10.2511,5.4564 10.6331,5.4344 10.9861,5.4344 C17.1241,5.4344 22.1181,10.3344 22.1181,16.3574 C22.1181,20.4094 19.8731,23.9774 16.1131,25.9024 C15.9861,25.9674 15.8521,26.0004 15.7221,26.0004 L15.7221,26.0004 Z" id="Fill-3"></path>
        </g>
      </g>
    </g>
  </symbol>

  <symbol id="search" width="24" height="24" viewBox="0 0 24 24"
    xmlns="http://www.w3.org/2000/svg">
    <path fill="currentColor" fill-rule="evenodd" clip-rule="evenodd" d="M13.75 10.5C13.75 12.2949 12.2949 13.75 10.5 13.75C8.70507 13.75 7.25 12.2949 7.25 10.5C7.25 8.70507 8.70507 7.25 10.5 7.25C12.2949 7.25 13.75 8.70507 13.75 10.5ZM13.6521 13.7116C12.8402 14.5085 11.7275 15 10.5 15C8.01472 15 6 12.9853 6 10.5C6 8.01472 8.01472 6 10.5 6C12.9853 6 15 8.01472 15 10.5C15 11.4459 14.7082 12.3235 14.2097 13.048L14.7678 13.1464L19.0104 17.3891L17.9497 18.4497L13.7071 14.2071L13.6521 13.7116Z"/>
  </symbol>

  <symbol id="user" width="28" height="28" viewBox="0 0 28 28">
    <g fill="none" fill-rule="evenodd">
      <path fill-rule="nonzero" stroke="#FFF" stroke-width="2" d="M5.5 7.5v21c0 1.104.893 2 2 2h21c1.098 0 2-.902 2-2v-21c0-1.098-.902-2-2-2h-21c-1.107 0-2 .896-2 2z" transform="translate(-4 -4)"/>
      <path fill="#FFF" fill-rule="nonzero" d="M22.5 13.5c0 2.49-2.01 4.5-4.5 4.5s-4.5-2.01-4.5-4.5S15.51 9 18 9s4.5 2.01 4.5 4.5zM9 25.5c0-3 6-4.65 9-4.65s9 1.65 9 4.65V27H9v-1.5z" transform="translate(-4 -4)"/>
      <path d="M0 0L36 0 36 36 0 36z" transform="translate(-4 -4)"/>
    </g>
  </symbol>

  <symbol id='add' width="24" height="24" viewBox="0 0 24 24">
    <path fill-rule="evenodd" clip-rule="evenodd" d="M13 5H11V11H5V13H11V19H13V13H19V11H13V5Z" fill="currentColor"/>
  </symbol>

  <symbol id="trash" width="24" height="24" viewBox="0 0 24 24">
    <path fill-rule="evenodd" clip-rule="evenodd" d="M8 3H16V4H19V6H5V4H8V3ZM8 9H16V18H8L8 9ZM6 18V7H18V18C18 19.1046 17.1046 20 16 20H8C6.89543 20 6 19.1046 6 18Z" fill="currentColor"/>
  </symbol>

  <symbol id="admin-cancel" width="24" height="24" viewBox="0 0 24 24">
    <path fill-rule="evenodd" clip-rule="evenodd" d="M18.257 7.25701L16.6928 5.69276L12 10.3855L7.30727 5.69273L5.74302 7.25698L10.4358 11.9497L5.74301 16.6425L7.30726 18.2067L12 13.514L16.6928 18.2067L18.257 16.6425L13.5643 11.9497L18.257 7.25701Z" fill="currentColor"/>
  </symbol>

  <symbol id="admin-save" width="24" height="24" viewBox="0 0 24 24">
    <path fill-rule="evenodd" clip-rule="evenodd" d="M4 18V7V5H6H9H14H16V5.00015L16.5 5.00015L20 8.58579V9.50015V10.5861L20 10.5861V20H19H18H16H8H6H4V18ZM15.5858 7L14 7V9H9V7L6 7V18H8V12H16V18H18V9.41418L15.5858 7ZM14 18H10V14H14V18Z" fill="currentColor"/>
  </symbol>

  <symbol id="angle" viewBox="0 0 15 8">
    <path class="icon-fill" fill-rule="evenodd" d="M14.5.954l-.875-.88L7.5 6.238 1.375 0 .5.88 7.5 8z"/>
  </symbol>

  <symbol id="cross-bold" viewBox="0 0 7 8">
    <g fill="#6D6D6D" fill-rule="evenodd">
      <path d="M.514 6.514L6.171.858l.707.707-5.656 5.657z"/>
      <path d="M6.171 7.143L.514 1.486l.629-.629L6.8 6.514z"/>
    </g>
  </symbol>

  <symbol id="spinner" viewBox="0 0 43 42">
    <defs>
      <linearGradient id="prefix__a" x1="59.847%" x2="43.09%" y1="106.152%" y2="60.499%">
        <stop offset="0%" stop-color="#FFF" stop-opacity="0"/>
        <stop offset="100%" stop-color="#FFF"/>
      </linearGradient>
    </defs>
    <path fill="none" fill-rule="evenodd" stroke="url(#prefix__a)" stroke-linecap="round" stroke-linejoin="round" stroke-width="6" d="M808.5 476c-9.94 0-18-8.06-18-18s8.06-18 18-18 18 8.06 18 18" transform="translate(-787 -437)"/>
  </symbol>

  <symbol id="snack" viewBox="0 0 16 10">
    <path d="M0 8.464h16v1H0zm0-4.038h16v1H0zM0 .387h16v1H0z" />
  </symbol>

  <symbol id="reload" viewBox="0 0 16 16">
    <path fill-rule="evenodd" clip-rule="evenodd" d="M3.1 8C3.1 5.62518 5.02518 3.7 7.4 3.7C9.41287 3.7 11.1027 5.08306 11.5711 6.95071L10.5663 6.33373C10.2368 6.13143 9.80579 6.23451 9.60349 6.56395C9.40119 6.8934 9.50427 7.32446 9.83371 7.52676L12.8405 9.37309L14.6868 6.36629C14.8891 6.03684 14.7861 5.60578 14.4566 5.40348C14.1272 5.20118 13.6961 5.30426 13.4938 5.63371L12.9191 6.56971C12.2845 4.11395 10.0541 2.3 7.4 2.3C4.25198 2.3 1.7 4.85198 1.7 8C1.7 11.148 4.25198 13.7 7.4 13.7C9.08822 13.7 10.6057 12.9652 11.6484 11.8002C11.9063 11.5121 11.8818 11.0696 11.5937 10.8117C11.3056 10.5539 10.8631 10.5784 10.6053 10.8665C9.81689 11.7473 8.67345 12.3 7.4 12.3C5.02518 12.3 3.1 10.3748 3.1 8Z"></path>
  </symbol>

  <symbol id="refresh" viewBox="0 0 24 24">
    <path fill-rule="evenodd" clip-rule="evenodd" d="M5.71118 12C5.71118 9.08355 8.06427 6.7193 10.9669 6.7193C13.4272 6.7193 15.4926 8.41779 16.0651 10.7114L14.837 9.9537C14.4343 9.70527 13.9075 9.83186 13.6602 10.2364C13.4129 10.641 13.5389 11.1704 13.9416 11.4188L17.6167 13.6863L19.8734 9.99369C20.1206 9.5891 19.9947 9.05973 19.592 8.81129C19.1894 8.56285 18.6625 8.68944 18.4152 9.09403L17.7128 10.2435C16.9371 7.22766 14.211 5 10.9669 5C7.11921 5 4 8.13401 4 12C4 15.866 7.11921 19 10.9669 19C13.0304 19 14.8852 18.0976 16.1596 16.6669C16.4748 16.3131 16.4449 15.7697 16.0928 15.453C15.7406 15.1364 15.1998 15.1665 14.8847 15.5203C13.921 16.6019 12.5234 17.2807 10.9669 17.2807C8.06427 17.2807 5.71118 14.9164 5.71118 12Z" fill="currentColor"/>
  </symbol>

  <symbol id="apply" viewBox="0 0 12 10">
    <path fill="#4FA843" fill-rule="evenodd" d="M309.706 13.261L306.565 10.131 305 11.696 309.706 16.392 317 9.087 315.434 7.522z" transform="translate(-305 -7)"/>
  </symbol>

  <symbol id="table-icon" viewBox="0 0 32 32" fill="none">
    <path fill-rule="evenodd" clip-rule="evenodd" d="M29 5H12V9L29 9V5ZM31 9V5C31 3.89543 30.1046 3 29 3H3C1.89543 3 1 3.89543 1 5V9V11V15V17V21V23V27C1 28.1046 1.89543 29 3 29H10H12H29C30.1046 29 31 28.1046 31 27V23V21V17V15V11V9ZM29 11L12 11V15L29 15V11ZM10 9V5H3V9L10 9ZM3 11L10 11V15H3V11ZM10 17L3 17V21H10V17ZM29 21V17L12 17V21L29 21ZM29 23L12 23V27H29V23ZM3 23H10V27H3V23Z" fill="#338ECC"/>
  </symbol>

  <symbol id="table-icon-sm" viewBox="0 0 32 32" fill="none">
    <path fill-rule="evenodd" clip-rule="evenodd" d="M29 5H12V9L29 9V5ZM31 9V5C31 3.89543 30.1046 3 29 3H3C1.89543 3 1 3.89543 1 5V9V11V15V17V21V23V27C1 28.1046 1.89543 29 3 29H10H12H29C30.1046 29 31 28.1046 31 27V23V21V17V15V11V9ZM29 11L12 11V15L29 15V11ZM10 9V5H3V9L10 9ZM3 11L10 11V15H3V11ZM10 17L3 17V21H10V17ZM29 21V17L12 17V21L29 21ZM29 23L12 23V27H29V23ZM3 23H10V27H3V23Z" fill="#338ECC"/>
  </symbol>

  <symbol id="table-save" viewBox="0 0 16 16">
    <path fill="#4FA843" fill-rule="evenodd" clip-rule="evenodd" d="M5.0606 5.8396C5.12754 4.4408 6.37628 3.25 8 3.25C9.62372 3.25 10.8725 4.4408 10.9394 5.8396C10.9565 6.19621 11.2225 6.49137 11.5755 6.54518C12.5755 6.69767 13.25 7.47205 13.25 8.30769C13.25 9.23534 12.4087 10.0962 11.2308 10.0962H10V11.5962H11.2308C13.1116 11.5962 14.75 10.184 14.75 8.30769C14.75 6.82652 13.7228 5.62973 12.3694 5.19576C11.9861 3.20473 10.1415 1.75 8 1.75C5.85848 1.75 4.01389 3.20473 3.63058 5.19575C2.27723 5.62973 1.25 6.82652 1.25 8.30769C1.25 10.184 2.88838 11.5962 4.76923 11.5962H6V10.0962H4.76923C3.59128 10.0962 2.75 9.23534 2.75 8.30769C2.75 7.47205 3.42451 6.69767 4.42452 6.54518C4.77746 6.49136 5.04354 6.19621 5.0606 5.8396ZM10.5303 8.59099C10.2374 8.88388 9.76256 8.88388 9.46967 8.59099L8.75 7.87132V14.0607H7.25V7.87132L6.53033 8.59099C6.23744 8.88388 5.76256 8.88388 5.46967 8.59099C5.17678 8.2981 5.17678 7.82322 5.46967 7.53033L8 5L10.5303 7.53033C10.8232 7.82322 10.8232 8.2981 10.5303 8.59099Z"/>
  </symbol>

  <symbol id="table-cancel" viewBox="0 0 16 16">
    <path fill="#D7351F" fill-rule="evenodd" clip-rule="evenodd" d="M4.3988 3.13864C4.05709 2.79693 3.50307 2.79693 3.16136 3.13864C2.81965 3.48035 2.81965 4.03437 3.16136 4.37608L6.78528 8L3.16136 11.6239C2.81965 11.9656 2.81965 12.5197 3.16136 12.8614C3.50307 13.2031 4.05709 13.2031 4.3988 12.8614L8.02272 9.23744L11.6466 12.8614C11.9883 13.2031 12.5424 13.2031 12.8841 12.8614C13.2258 12.5197 13.2258 11.9656 12.8841 11.6239L9.26015 8L12.8841 4.37608C13.2258 4.03437 13.2258 3.48035 12.8841 3.13864C12.5424 2.79693 11.9883 2.79693 11.6466 3.13864L8.02272 6.76256L4.3988 3.13864Z"/>
  </symbol>

  <symbol id="table-revert" viewBox="0 0 32 32" fill="none">
    <path fill-rule="evenodd" clip-rule="evenodd" d="M9 1H11V3H9V1ZM27 25V23H25V25H27ZM27 3V1H25V3H27ZM13 1V3H15V1H13ZM21 1V3H23V1H21ZM27 5H25V7H27V5ZM22.5 25V23H20.5V25H22.5ZM9 7V5H11V7H19V17.3778C18.331 17.357 17.6606 17.3189 17 17.2672V9H3V29H17V21.2783C17.6615 21.3258 18.3309 21.3605 19 21.3794V31H1V7H9ZM25 15.5H26.8519C26.9049 15.4489 26.9543 15.3969 27 15.3441V13.5H25V15.5ZM27 20.4954C26.3649 20.7059 25.6941 20.8714 25.0032 21H27V20.4954ZM19 3H17V1H19V3ZM25 10V9H27V10.0559C28.1842 10.1957 29.139 10.5998 29.832 11.2929C30.7107 12.1716 30.9999 13.3459 30.9999 14.5C30.9999 16.7479 29.6535 18.2181 27.8296 19.0898C26.0539 19.9384 23.7192 20.2893 21.3483 20.3744C16.8361 20.5362 11.7935 19.7442 9.14992 19.0739L10.7015 23.1744L8.83089 23.8822L6.70756 18.2705L6.70753 18.2705L5.99976 16.3999L5.99978 16.3999L5.99977 16.3999L7.87035 15.6921L7.87035 15.6921L13.4821 13.5688L14.1898 15.4394L9.68124 17.1453C12.1703 17.772 16.9988 18.5291 21.2766 18.3756C23.5515 18.294 25.5606 17.9575 26.9672 17.2852C28.3256 16.6361 28.9999 15.7521 28.9999 14.5C28.9999 13.6541 28.7891 13.0784 28.4178 12.7071C28.0465 12.3358 27.3458 12 25.9999 12H24.9999V10H25Z" fill="#338ECC"/>
  </symbol>

  <symbol id="table-revert-sm" viewBox="0 0 16 16" fill="none">
    <path fill-rule="evenodd" clip-rule="evenodd" d="M5.25 0H4V1.25H5.25V0ZM13 13H11.75V12.0602C11.7794 12.0573 11.8087 12.0543 11.8379 12.0512C12.2191 12.0103 12.6114 11.9488 13 11.8562V13ZM10 4V8.12051C9.60898 8.11079 9.19099 8.08539 8.75 8.04505V5.25H1.25V14.75H8.75V12.0591C9.44429 12.1126 10.1156 12.1352 10.75 12.1199V13H10V16H0V4H10ZM13 0V1.25H11.75V0H13ZM6.25 1.25V0H7.75V1.25H6.25ZM9.25 1.25V0H10.75V1.25H9.25ZM11.75 2.0625H13V3.4375H11.75V2.0625ZM5.25 3.4375H4V2.0625H5.25V3.4375ZM11.7504 5.375H12.3754C12.9683 5.375 13.6281 5.52201 14.1506 5.95739C14.693 6.40948 15.0004 7.09977 15.0004 8.00011C15.0004 8.85239 14.599 9.50761 13.9427 9.94855C13.3208 10.3664 12.4853 10.5856 11.567 10.684C9.84315 10.8687 7.59208 10.6497 5.24862 10.2091L5.87381 11.8614L5.00087 12.1917L4.17021 9.99634L4.14 9.9903L4.14966 9.94202L4.01002 9.57299L4.01001 9.57299L3.67971 8.70006L3.67973 8.70005L3.67969 8.69995L4.55262 8.36965L4.55266 8.36975L7.17145 7.37887L7.50175 8.2518L5.54386 8.99262C7.81411 9.41563 9.90108 9.60531 11.4339 9.4411C12.2656 9.352 12.8676 9.16498 13.2456 8.91098C13.5893 8.68007 13.7504 8.39781 13.7504 8.00011C13.7504 7.40035 13.5578 7.09059 13.3503 6.91765C13.1227 6.728 12.7826 6.625 12.3754 6.625H11.7504V5.375Z" fill="#338ECC"/>
  </symbol>

  <symbol id="table-export" viewBox="0 0 16 16">
    <path fill="#338ECC" fill-rule="evenodd" clip-rule="evenodd" d="M14 3.5V2L2 2V3.5L14 3.5ZM10.5303 8.53033C10.2374 8.82323 9.76256 8.82323 9.46967 8.53033L8.75 7.81067V14H7.25V7.81067L6.53033 8.53033C6.23744 8.82323 5.76256 8.82323 5.46967 8.53033C5.17677 8.23744 5.17677 7.76257 5.46967 7.46968L8 4.93935L10.5303 7.46968C10.8232 7.76257 10.8232 8.23744 10.5303 8.53033Z"/>
  </symbol>

  <symbol id="edit" viewBox="0 0 13 13">
    <g fill="#338ECC" fill-rule="evenodd">
      <path d="M9.823.192c-.245-.256-.653-.256-.898 0L7.759 1.36 10.15 3.75l1.167-1.166c.256-.245.256-.653 0-.898L9.823.192zM0 9.106L0 11.509 2.403 11.509 9.473 4.427 7.082 2.035zM4.808 10.287H12V11.509H4.808z" transform="translate(.5 .519)"/>
    </g>
  </symbol>

  <symbol id="reject" viewBox="0 0 11 11">
    <path fill="#D7351F" fill-rule="evenodd" d="M332.531 5.956L332.531 10.762 327.725 10.762 327.725 13.15 332.531 13.15 332.531 17.957 334.918 17.957 334.918 13.15 339.725 13.15 339.725 10.762 334.918 10.762 334.918 5.956z" transform="rotate(-45 162.482 404.888)"/>
  </symbol>

  <symbol id="database" viewBox="0 0 32 32">
    <g stroke="none" stroke-width="1" fill-rule="evenodd" transform="translate(3.000000, 10.604400)">
      <path d="M12.269,11.0671 C19.047,11.0671 24.538,8.3221 24.538,4.9331 L24.538,0.3321 C24.538,3.7211 19.047,6.4661 12.269,6.4661 C5.491,6.4661 5.32907052e-15,3.7211 5.32907052e-15,0.3321 L5.32907052e-15,4.9331 C5.32907052e-15,8.3221 5.491,11.0671 12.269,11.0671" />
      <path d="M12.269,18.735 C19.047,18.735 24.538,15.99 24.538,12.6 L24.538,8 C24.538,11.389 19.047,14.134 12.269,14.134 C5.491,14.134 5.32907052e-15,11.389 5.32907052e-15,8 L5.32907052e-15,12.6 C5.32907052e-15,15.99 5.491,18.735 12.269,18.735" />
      <path d="M12.269,3.3991 C19.047,3.3991 24.538,0.6541 24.538,-2.7349 C24.538,-6.1239 19.047,-8.8699 12.269,-8.8699 C5.491,-8.8699 5.32907052e-15,-6.1239 5.32907052e-15,-2.7349 C5.32907052e-15,0.6541 5.491,3.3991 12.269,3.3991" />
    </g>
  </symbol>

  <symbol id="schema_system" viewBox="0 0 32 32">
    <g stroke="none" stroke-width="1" fill-rule="evenodd" transform="translate(3.000000, 4.000000)">
      <polygon points="6.835 6.4211 11.611 6.4211 11.611 5.0871 6.835 5.0871"></polygon>
      <polygon points="13.611 7.7541 19.613 7.7541 19.613 3.7531 13.611 3.7531"></polygon>
      <polygon points="6.835 13.1711 11.611 13.1711 11.611 11.8371 6.835 11.8371"></polygon>
      <polygon points="13.611 14.5041 19.613 14.5041 19.613 10.5031 13.611 10.5031"></polygon>
      <polygon points="6.835 19.5041 11.611 19.5041 11.611 18.1701 6.835 18.1701"></polygon>
      <polygon points="13.611 20.8371 19.613 20.8371 19.613 16.8361 13.611 16.8361"></polygon>
      <polygon points="0.826 2.4491 5.23 2.4491 5.23 0.0131 0.826 0.0131"></polygon>
      <polygon points="0.826 23.6991 5.23 23.6991 5.23 21.2641 0.826 21.2641"></polygon>
      <polygon points="0 23.5701 2.435 23.5701 2.435 0.0001 0 0.0001"></polygon>
      <polygon points="21 23.6851 25.404 23.6851 25.404 21.2501 21 21.2501"></polygon>
      <polygon points="21 2.4361 25.404 2.4361 25.404 0.0011 21 0.0011"></polygon>
      <polygon points="23.793 23.6991 26.229 23.6991 26.229 0.1291 23.793 0.1291"></polygon>
    </g>
  </symbol>

  <symbol id="order-arrow-up" viewBox="0 0 16 16">
    <path fill="#338ECC" fill-rule="evenodd" d="M1 7l7-6 7 6h-5v8H6V7H1z" clip-rule="evenodd"/>
  </symbol>
  <symbol id="order-arrow-down" viewBox="0 0 16 16">
    <path fill="#338ECC" fill-rule="evenodd" d="M15 9l-7 6-7-6h5V1h4v8h5z" clip-rule="evenodd"/>
  </symbol>
  <symbol id="order-arrow-unknown" viewBox="0 0 16 16">
    <path fill="currentColor" fill-rule="evenodd" d="M11.5 2L8 6h2.333v8h2.334V6H15l-3.5-4zm-7 12L8 10H5.667V2H3.333v8H1l3.5 4z" clip-rule="evenodd"/>
  </symbol>
  <symbol id="password-hide" viewBox="0 0 16 16">
    <path fill-rule="evenodd" clip-rule="evenodd" d="M8 9C4.13401 9 1.93333 6.3 1 4.5H2.43914C3.39058 6.0143 5.17528 7.75 8 7.75C10.8247 7.75 12.6094 6.0143 13.5609 4.5H15C14.0667 6.3 11.866 9 8 9ZM14.9999 8.77009L13.7144 7.23804L12.9484 7.88081L14.2339 9.41286L14.9999 8.77009ZM8.5 12.2499V10.25H7.50003V12.2499H8.5ZM1 8.77009L2.28554 7.23805L3.05156 7.88082L1.76602 9.41286L1 8.77009ZM4.50498 9.23861L3.75578 11.0929L4.68294 11.4675L5.43213 9.61321L4.50498 9.23861ZM11.4323 9.23861L12.1815 11.0929L11.2543 11.4675L10.5051 9.61321L11.4323 9.23861Z" fill="currentColor"/>
  </symbol>
  <symbol id="password-show" viewBox="0 0 16 16">
    <path fill-rule="evenodd" clip-rule="evenodd" d="M8 11.25C10.8247 11.25 12.6094 9.5143 13.5609 8C12.6094 6.4857 10.8247 4.75 8 4.75C5.17528 4.75 3.39058 6.4857 2.43914 8C3.39058 9.5143 5.17528 11.25 8 11.25ZM15 8C14.0667 9.8 11.866 12.5 8 12.5C4.13401 12.5 1.93333 9.8 1 8C1.93333 6.2 4.13401 3.5 8 3.5C11.866 3.5 14.0667 6.2 15 8ZM7.99997 9.88333C9.0309 9.88333 9.86663 9.0476 9.86663 8.01666C9.86663 6.98573 9.0309 6.15 7.99997 6.15C6.96904 6.15 6.1333 6.98573 6.1333 8.01666C6.1333 9.0476 6.96904 9.88333 7.99997 9.88333Z" fill="currentColor"/>
  </symbol>
  <symbol id="execution-plan-tab" viewBox="0 0 32 32">
    <path d="M5 2H19.5858L27 9.41421V30H5V2Z" stroke="#338ECC" stroke-width="2" fill="transparent"/>
    <path fill-rule="evenodd" clip-rule="evenodd" d="M19 1L28 10H19V1ZM8 8H13V12H8V8ZM24 22H19V26H24V22ZM19 15H24V19H19V15ZM11.5 13H9.5V25H10H11.5H18V23H11.5V18H18V16H11.5V13Z" fill="#338ECC"/>
  </symbol>
  <symbol id="external-link" viewBox="0 0 24 24">
    <path fill-rule="evenodd" clip-rule="evenodd" d="M13.5855 3V4.92469H17.0404L7.58063 14.3851L8.9375 15.7413L18.3973 6.2822V9.73641H20.3219V3H13.5855Z" fill="#338ECC"/>
    <mask id="mask0" mask-type="alpha" maskUnits="userSpaceOnUse" x="3" y="3" width="18" height="18">
      <path d="M11.6611 3H3V20.3222H11.6611H20.3221V3H11.6611Z" fill="white"/>
    </mask>
    <g mask="url(#mask0)">
      <path fill-rule="evenodd" clip-rule="evenodd" d="M4.92463 20.3222H18.3975C19.4557 20.3222 20.3222 19.4564 20.3222 18.3975V11.6611H18.3975V18.3975H4.92463V4.92469H11.661V3H4.92463C3.85614 3 2.99994 3.86643 2.99994 4.92469V18.3975C2.99994 19.4564 3.85614 20.3222 4.92463 20.3222Z" fill="#338ECC"/>
    </g>
  </symbol>
  <symbol id="filter" viewBox="0 0 32 32">
    <path fill-rule="evenodd" clip-rule="evenodd" d="M1 1.99951V4.69551L9.087 12.6625V21.913L17.176 30V12.6765L25.263 4.69551V1.99951H1ZM4 4.5H22L14.5 11.6435V23.5L11.5 20.5V11.6435L4 4.5Z" fill="#338ECC"/>
    <path d="M22 4.5H4L11.5 11.7293V20.5L14.5 23.5V12L22 4.5Z" fill="#88C7EA"/>
    <path fill-rule="evenodd" clip-rule="evenodd" d="M20 21H22V23L29 23V21H31V23V25V27H29V25L22 25V27H20V25V23V21Z" fill="#338ECC"/>
  </symbol>
  <symbol id="filter-clipboard" viewBox="0 0 32 32">
    <g clip-path="url(#clip0)">
      <path fill-rule="evenodd" clip-rule="evenodd" d="M30 7H4V30H17.2917C15.8666 28.4077 15 26.3051 15 24C15 19.0294 19.0294 15 24 15C26.3051 15 28.4077 15.8666 30 17.2917V7Z" fill="#88C7EA"/>
      <path fill-rule="evenodd" clip-rule="evenodd" d="M16 3.399C16.662 3.399 17.199 3.936 17.199 4.598C17.199 5.261 16.662 5.798 16 5.798C15.338 5.798 14.801 5.261 14.801 4.598C14.801 3.936 15.338 3.399 16 3.399ZM19.242 27.589H4.398V6.997H6.797V9.396H25.203V6.997H27.602V18.895C27.871 18.871 28.142 18.854 28.417 18.854C28.958 18.854 29.485 18.91 30 19V6.997C30 5.672 28.926 4.598 27.602 4.598H19.598C19.598 2.611 17.987 1 16 1C14.013 1 12.402 2.611 12.402 4.598H4.398C3.074 4.598 2 5.672 2 6.997V27.589C2 28.914 3.074 29.988 4.398 29.988H19.017C19.013 29.875 19 29.765 19 29.652C19 28.941 19.089 28.253 19.242 27.589Z" fill="#338ECC"/>
      <circle cx="24" cy="24" r="9" fill="transparent"/>
      <path fill-rule="evenodd" clip-rule="evenodd" d="M19 19.7046V20.7566L22.5 23.8184V27.5L25.6561 30.6571V23.8231L29 20.7566V19.7046H19Z" fill="#338ECC"/>
    </g>
    <defs>
      <clipPath id="clip0">
        <rect width="32" height="32" fill="white"/>
      </clipPath>
    </defs>
  </symbol>
  <symbol id="filter-custom" viewBox="0 0 32 32">
    <path fill-rule="evenodd" clip-rule="evenodd" d="M31 19L31 21L29 21L29 28L31 28L31 30L29 30L27 30L25 30L25 28L27 28L27 21L25 21L25 19L27 19L29 19L31 19Z" fill="#338ECC"/>
    <path fill-rule="evenodd" clip-rule="evenodd" d="M1 1.99951V4.69551L9.087 12.6625V21.913L17.176 30V12.6765L25.263 4.69551V1.99951H1ZM4 4.5H22L14.5 11.6435V23.5L11.5 20.5V11.6435L4 4.5Z" fill="#338ECC"/>
    <path d="M22 4.5H4L11.5 11.7293V20.5L14.5 23.5V12L22 4.5Z" fill="#88C7EA"/>
  </symbol>
  <symbol id="filter-reset" viewBox="0 0 32 32">
    <path fill-rule="evenodd" clip-rule="evenodd" d="M24.0946 22.3099L20.761 19L19.1001 20.6728L22.41 23.9708L19.1001 27.3272L20.761 29L24.0946 25.6435L27.4273 29L29.0882 27.3272L25.7436 23.9708L29.0882 20.6728L27.4273 19L24.0946 22.3099Z" fill="#D7351F"/>
    <path fill-rule="evenodd" clip-rule="evenodd" d="M1 1.99951V4.69551L9.087 12.6625V21.913L17.176 30V12.6765L25.263 4.69551V1.99951H1ZM4 4.5H22L14.5 11.6435V23.5L11.5 20.5V11.6435L4 4.5Z" fill="#338ECC"/>
    <path d="M22 4.5H4L11.5 11.7293V20.5L14.5 23.5V12L22 4.5Z" fill="#88C7EA"/>
  </symbol>
  <symbol id="filter-reset-all" viewBox="0 0 32 32">
    <path fill-rule="evenodd" clip-rule="evenodd" d="M1 1.99951V4.69551L9.087 12.6625V21.913L17.176 30V12.6765L25.263 4.69551V1.99951H1Z" fill="#C4C4C4"/>
    <path fill-rule="evenodd" clip-rule="evenodd" d="M24.9945 21.3099L21.6609 18L20 19.6728L23.3099 22.9708L20 26.3272L21.6609 28L24.9945 24.6435L28.3272 28L29.9881 26.3272L26.6435 22.9708L29.9881 19.6728L28.3272 18L24.9945 21.3099Z" fill="#D7351F"/>
  </symbol>
   <symbol id="erase" viewBox="0 0 32 32">
    <path d="M22.0726 2.84352L29.1621 9.96662C30.2793 11.1057 30.2793 12.9226 29.1621 14.0617L16 27.313C13.7657 29.5623 10.1422 29.5623 7.89361 27.313L2.83785 22.223C1.72072 21.0838 1.72072 19.267 2.83785 18.1279L18.0194 2.84352C19.1509 1.71883 20.9555 1.71883 22.0726 2.84352ZM4.85729 20.1754L9.92737 25.2654C11.0445 26.4045 12.8491 26.4045 13.9806 25.2654L19.0363 20.1754L11.9468 13.0379L4.85729 20.1754Z" fill="#338ECC"/>
    <path d="M30 27H20V29H30V27Z" fill="#338ECC"/>
  </symbol>
  <symbol id="value-panel" viewBox="0 0 32 32">
    <path fill-rule="evenodd" clip-rule="evenodd" d="M3.95038 17.6176H17.9515V8.60199H3.95038V17.6176Z" fill="#88C7EA"/>
    <path fill-rule="evenodd" clip-rule="evenodd" d="M27.9134 17.018C27.043 16.7311 26.1145 16.5693 25.1472 16.5693C22.9733 16.5693 20.9864 17.3601 19.4483 18.6637V8.60141H27.9134V17.018Z" fill="white"/>
    <path fill-rule="evenodd" clip-rule="evenodd" d="M17.9511 20.3009V19.1436H3.94995V27.6775H16.6369C16.4411 26.9467 16.3267 26.183 16.3267 25.3902C16.3267 23.4925 16.9315 21.7402 17.9511 20.3009Z" fill="white"/>
    <mask id="mask0" mask-type="alpha" maskUnits="userSpaceOnUse" x="0" y="0" width="31" height="31">
      <path d="M0.95459 30.7309H30.9089V0.969482H0.95459V30.7309Z" fill="white"/>
    </mask>
    <g mask="url(#mask0)">
      <path fill-rule="evenodd" clip-rule="evenodd" d="M3.95041 17.6175H17.9516V8.60199H3.95041V17.6175ZM3.95041 30.7309H18.1386C17.4534 29.8325 16.9387 28.8003 16.6373 27.6779H3.95041V19.1431H17.9516V20.3013C18.3809 19.6946 18.883 19.144 19.448 18.6643V8.60199H27.9131V17.0176C29.0277 17.3859 30.0405 17.9694 30.9089 18.7205V4.02248C30.9089 2.34285 29.5607 0.969482 27.9131 0.969482H3.95041C2.30276 0.969482 0.970097 2.34285 0.970097 4.02248L0.95459 27.6779C0.95459 29.3566 2.30276 30.7309 3.95041 30.7309Z" fill="#338ECC"/>
      <path fill-rule="evenodd" clip-rule="evenodd" d="M28.8102 23.4575V24.6118H27.9136H21.8861V23.4575H20.7328V26.9195H21.8861V25.7652H27.9136H28.8102V26.9195H29.9635V23.4575H28.8102Z" fill="#338ECC"/>
    </g>
  </symbol>
  <symbol id="permission" viewBox="0 0 32 32">
    <path fill-rule="evenodd" clip-rule="evenodd" d="M8 13C5.79086 13 4 14.7909 4 17V27C4 29.2091 5.79086 31 8 31H24C26.2091 31 28 29.2091 28 27V17C28 14.7909 26.2091 13 24 13H8ZM18.5 20.5C18.5 21.5252 17.883 22.4062 17 22.792V25C17 25.5523 16.5523 26 16 26C15.4477 26 15 25.5523 15 25V22.792C14.117 22.4062 13.5 21.5252 13.5 20.5C13.5 19.1193 14.6193 18 16 18C17.3807 18 18.5 19.1193 18.5 20.5Z" fill="#338ECC"/>
    <path d="M8 17H24V9C24 5.68629 21.3137 3 18 3H14C10.6863 3 8 5.68629 8 9V10" stroke="#338ECC" stroke-width="2" fill="transparent"/>
  </symbol>
   <symbol id="sql-script" viewBox="0 0 32 32">
    <g clip-path="url(#clip0)">
      <path fill-rule="evenodd" clip-rule="evenodd" d="M31 2.5C31 1.11929 29.8807 0 28.5 0H8.39735C6.74049 0 5.39735 1.34315 5.39735 3L5.39734 5L5.3999 4.99696V23H7.5999V4.49998C7.59989 3.9996 7.63677 3.49608 7.82583 3.13249C7.90752 2.97541 8.0104 2.86064 8.15262 2.77735C8.29863 2.69185 8.55416 2.6 8.9999 2.6H22.9001V28C22.9001 28.5039 22.8678 29.0333 22.6922 29.4181C22.6146 29.5879 22.5254 29.6909 22.4267 29.7567C22.3314 29.8202 22.1517 29.9 21.805 29.9H20V26H0V32H6.0001V32.1H21.805C22.5119 32.1 23.1334 31.9298 23.6473 31.587C24.1578 31.2466 24.4856 30.7871 24.6934 30.3319C25.0885 29.4667 25.1001 28.4961 25.1001 28L25.1001 5H31V2.5Z" fill="#338ECC"/>
    </g>
    <defs>
      <clipPath id="clip0">
        <rect width="32" height="32" fill="white"/>
      </clipPath>
    </defs>
  </symbol>
  <symbol id="sql-script-preview" viewBox="0 0 32 32">
    <g clip-path="url(#clip0)">
      <path fill-rule="evenodd" clip-rule="evenodd" d="M31 2.5C31 1.11929 29.8807 0 28.5 0H8.39735C6.74049 0 5.39735 1.34315 5.39735 3L5.39734 5L5.3999 4.99696V6V23V26H0V30C0 31.1046 0.895431 32 2 32H6.0001V32.1H21.805C22.4631 32.1 23.0473 31.9524 23.5395 31.6555L20.0513 28.1673C19.1573 28.6963 18.1141 29 17 29C13.6863 29 11 26.3137 11 23C11 19.6863 13.6863 17 17 17C20.3137 17 23 19.6863 23 23C23 24.4755 22.4674 25.8266 21.584 26.8715L24.7958 30.0833C25.0906 29.2868 25.1001 28.4491 25.1001 28L25.1001 5H31V2.5ZM17 27C19.2091 27 21 25.2091 21 23C21 20.7909 19.2091 19 17 19C14.7909 19 13 20.7909 13 23C13 25.2091 14.7909 27 17 27Z" fill="#338ECC"/>
    </g>
    <defs>
      <clipPath id="clip0">
        <rect width="32" height="32" fill="white"/>
      </clipPath>
    </defs>
  </symbol>
</svg>
