<svg width="32" height="32" viewBox="0 0 32 32" fill="none" xmlns="http://www.w3.org/2000/svg">
<path fill-rule="evenodd" clip-rule="evenodd" d="M3 2C1.89543 2 1 2.89543 1 4V26C1 27.1046 1.89543 28 3 28H12.398C11.5066 26.3662 11 24.4923 11 22.5C11 16.1487 16.1487 11 22.5 11C25.8674 11 28.8968 12.4474 31 14.7539V7C31 5.89543 30.1046 5 29 5H17.0704C16.4017 5 15.7772 4.6658 15.4063 4.1094L14.5937 2.8906C14.2228 2.3342 13.5983 2 12.9296 2H3Z" fill="#88C7EA"/>
<path fill-rule="evenodd" clip-rule="evenodd" d="M11.5423 26H3L3 4L12.9296 4L13.7422 5.2188C14.484 6.3316 15.733 7 17.0704 7H29V13.0119C29.7322 13.5145 30.4034 14.0996 31 14.7539V7C31 5.89543 30.1046 5 29 5H17.0704C16.4017 5 15.7772 4.6658 15.4063 4.1094L14.5937 2.8906C14.2228 2.3342 13.5983 2 12.9296 2H3C1.89543 2 1 2.89543 1 4V26C1 27.1046 1.89543 28 3 28H12.398C12.0527 27.367 11.7651 26.698 11.5423 26Z" fill="#338ECC"/>
<path fill-rule="evenodd" clip-rule="evenodd" d="M22.679 15.1497C22.6003 15.0679 22.4695 15.0679 22.3908 15.1497L15.1642 22.6613C15.0419 22.7883 15.132 22.9999 15.3083 22.9999H20V28H25V22.9999H29.7624C29.9388 22.9999 30.0288 22.7883 29.9065 22.6612L22.679 15.1497Z" fill="#338ECC"/>
</svg>
