<svg width="16" height="16" viewBox="0 0 16 16" fill="none" xmlns="http://www.w3.org/2000/svg">
<g clip-path="url(#clip0_2549_1202)">
<path fill-rule="evenodd" clip-rule="evenodd" d="M8 16C12.4183 16 16 12.4183 16 8C16 3.58172 12.4183 0 8 0C3.58172 0 0 3.58172 0 8C0 12.4183 3.58172 16 8 16ZM7.3287 6.27134V12H8.6713V6.27134H7.3287ZM7.44907 4.22237C7.31636 4.37062 7.25 4.55945 7.25 4.78888C7.25 5.02184 7.3179 5.21244 7.4537 5.36069C7.59259 5.50893 7.77469 5.58306 8 5.58306C8.22531 5.58306 8.40586 5.50893 8.54167 5.36069C8.68056 5.21244 8.75 5.02184 8.75 4.78888C8.75 4.55945 8.6821 4.37062 8.5463 4.22237C8.41049 4.07412 8.2284 4 8 4C7.76852 4 7.58488 4.07412 7.44907 4.22237Z" fill="#338ECC"/>
</g>
<defs>
<clipPath id="clip0_2549_1202">
<rect width="16" height="16" fill="white"/>
</clipPath>
</defs>
</svg>
