<?xml version="1.0" encoding="UTF-8"?>
<svg width="32px" height="32px" viewBox="0 0 32 32" version="1.1" xmlns="http://www.w3.org/2000/svg">
    <title>load</title>
    <g id="load" stroke="none" stroke-width="1" fill="none" fill-rule="evenodd">
        <g id="Page-1" transform="translate(0.000000, 1.000000)">
            <polygon id="Fill-1" fill="#338ECC" points="21.2878 22.6287 23.4968 22.6287 23.4968 29.6187 26.8088 29.6187 26.8088 22.6287 29.0178 22.6287 25.1538 18.7637"></polygon>
            <g id="Group-7" transform="translate(0.000000, 0.619000)">
                <g id="Group-6">
                    <path d="M3.1691,6.7196 L3.1691,22.5666 L15.4381,22.5666 C15.5501,17.4236 19.7461,13.2876 24.9151,13.2876 C26.1931,13.2876 27.4111,13.5446 28.5231,14.0026 L28.5231,6.7196 L3.1691,6.7196 Z" id="Fill-1" fill="#F6BC8D"></path>
                    <path d="M3.1687,22.5663 L3.1687,6.7193 L28.5237,6.7193 L28.5237,14.0033 C29.7247,14.4973 30.7997,15.2303 31.6927,16.1433 L31.6927,6.7193 C31.6927,4.9763 30.2667,3.5503 28.5237,3.5503 L15.8467,3.5503 L12.6777,0.3813 L3.1687,0.3813 C1.4257,0.3813 0.0157,1.8073 0.0157,3.5503 L-0.0003,22.5663 C-0.0003,24.3093 1.4257,25.7353 3.1687,25.7353 L15.9037,25.7353 C15.5977,24.8033 15.4267,23.8103 15.4267,22.7763 C15.4267,22.7053 15.4367,22.6363 15.4377,22.5663 L3.1687,22.5663 Z" id="Fill-3" fill="#F48400"></path>
                </g>
            </g>
        </g>
    </g>
</svg>