<svg xmlns="http://www.w3.org/2000/svg" width="361" height="73" viewBox="0 0 361 73">
    <g fill="none" fill-rule="evenodd">
        <path fill="#FFF" d="M148.71 34.954V30.17c0-4.275-3.479-7.752-7.753-7.752h-5.865c-4.275 0-7.753 3.477-7.753 7.752v31.959c0 4.275 3.478 7.752 7.753 7.752h5.865c4.274 0 7.752-3.477 7.752-7.752V59.06h-6.414v1.451c0 2.266-.86 3.664-2.955 3.664H136.708c-2.094 0-2.954-1.398-2.954-3.664V31.785c0-2.215.994-3.662 2.954-3.662h2.633c1.959 0 2.954 1.447 2.954 3.662v3.17h6.414zM164.41 69.852c-.26 0-.69.004-1.198.01-1.844.02-3.431.034-4.188-.017-3.238-.286-5.588-2.73-5.588-5.81V34.601h6.35s.08 19.396 0 27.479c-.02 2.123-.022 2.087 1.568 2.133 1.442.042 2.04.083 2.72.088 3.436.024 3.436 5.55 3.436 5.55h-3.1z"/>
        <path fill="#4598D3" d="M198.923 62.387v1.797h1.798c-.993 0-1.798-.805-1.798-1.797"/>
        <path fill="#244357" d="M252.705 60.511c0 2.198-1.254 3.664-2.954 3.664h-5.393V46.847h5.007c1.884 0 3.34 1.314 3.34 3.598v10.066zm-8.347-32.388h4.04c1.84 0 2.953 1.515 2.953 3.662v5.693c0 2.532-.91 3.662-2.953 3.662h-4.04V28.123zm12.127 15.205c.828-1.266 1.282-2.731 1.282-4.234V30.17c0-4.26-3.36-7.666-7.688-7.752h-12.136s-.008 1.697 0 6.278c.02 10.75 0 41.185 0 41.185h13.853c1.076 0 2.425-.546 2.425-.546 2.913-1.18 4.9-4.002 4.9-7.206v-13.3c0-2.018-.99-4.017-2.636-5.5zM268.596 49.345v-7.451c.097-.802.72-1.44 1.515-1.558h2.917c.865.13 1.53.873 1.53 1.774v7.235h-5.962zm6.558-14.715H268c-3.173 0-5.754 2.61-5.754 5.818v23.679c0 3.172 2.581 5.753 5.754 5.753h12.974s0-5.696-4.283-5.705c-1.646-.004-4.667-.001-6.468.001-.847-.073-1.525-.733-1.626-1.572v-7.553h12.377V40.448c0-3.208-2.61-5.818-5.819-5.818zM296.325 64.176l-4.296.002c-.916-.065-1.64-.815-1.666-1.741l-.002-8.977c.002-.871.624-1.596 1.448-1.758h4.516v12.474zM290.36 51.77v.724-.724zm6.562-17.14h-7.501c-4.388 0-4.446 5.706-4.446 5.706h9.833c.8.12 1.427.764 1.517 1.572v4.088h-6.558c-3.173 0-5.754 2.581-5.754 5.754v12.377c0 3.172 2.581 5.753 5.754 5.753h12.973V40.448c0-3.208-2.61-5.818-5.818-5.818zM313.564 55.813L309.588 34.63 303.432 34.63 309.979 69.88 316.999 69.88 323.546 34.63 317.586 34.63zM357.874 34.63c-.26 0-.691-.005-1.199-.01-1.844-.02-3.43-.034-4.188.017-3.238.286-5.588 2.73-5.588 5.81V69.88h6.35s.08-19.396 0-27.48c-.02-2.122-.022-2.086 1.568-2.132 1.442-.042 2.04-.083 2.72-.088 3.436-.024 3.436-5.55 3.436-5.55h-3.1zM331.317 49.345v-7.451c.097-.802.72-1.44 1.515-1.558h2.918c.865.13 1.529.873 1.53 1.774v7.235h-5.963zm6.559-14.715h-7.155c-3.173 0-5.754 2.61-5.754 5.818v23.679c0 3.172 2.581 5.753 5.754 5.753h12.973s0-5.696-4.282-5.705c-1.646-.004-4.668-.001-6.468.001-.847-.073-1.525-.733-1.627-1.572v-7.553h12.377V40.448c0-3.208-2.61-5.818-5.818-5.818z"/>
        <path fill="#FFF" d="M182.228 49.345v13.04c0 .902-.664 1.645-1.529 1.775h-2.918c-.794-.119-1.417-.756-1.515-1.557v-20.71c.098-.801.721-1.438 1.515-1.557h2.918c.865.13 1.529.873 1.53 1.774v7.235zm.597-14.715h-3.59v-.014h-3.565c-3.173 0-5.754 2.58-5.754 5.753V64.127c0 3.172 2.581 5.753 5.754 5.753h3.566l-.002-.014h3.591c3.208 0 5.818-2.61 5.818-5.818v-23.6c0-3.208-2.61-5.818-5.818-5.818zM204.854 34.63v27.756c0 .9-.664 1.645-1.529 1.774h-2.918c-.794-.119-1.418-.756-1.514-1.558V34.616h-6.35v29.51c0 3.173 2.58 5.754 5.753 5.754h3.566c0-.004 3.589-.014 3.589-.014 3.208 0 5.818-2.61 5.818-5.818V34.63h-6.415zM227.115 49.345v13.04c0 .902-.665 1.645-1.53 1.775h-4.432V40.336h4.433c.864.13 1.529.873 1.529 1.774v7.235zm.596-14.715h-3.59l.001-.014h-9.32V69.88h9.32l-.001-.014h3.59c3.209 0 5.819-2.61 5.819-5.818v-23.6c0-3.208-2.61-5.818-5.819-5.818z"/>
        <path fill="#244357" d="M94.575 35.68c-.581 0 0 0 0 0 0-18.976-16.87-35.496-35.846-35.496-13.978 0-26.446 8.45-31.812 20.432-.187-.004 0-.004-.187-.004C11.996 20.612 0 33.83 0 48.565c0 10.488 4.369 18.65 13.171 23.01 1.404-1.463 4.884-1.488 6.68-2.48-3.155-1.045-5.722-3.194-8.464-5.238-9.428-7.028-8.014-24.154-1.831-29.934 9.905-9.259 20.926-6.909 20.926-6.909l1.369-3.055c2.282-5.095 6.872-19.87 27.842-19.608 22.178.277 28.217 23.723 28.225 31.54l-.001.096-.012 5.522 5.502-.478c.436-.038.869-.057 1.286-.057 8.055 0 16.28 6.267 16.28 14.322s-8.225 12.252-16.28 12.252H49.15c.519.266 5.77 5.053 14.419 5.053h31.124c10.859 0 19.661-6.16 19.661-17.018 0-10.859-8.92-19.903-19.78-19.903"/>
        <path fill="#244357" d="M80 24.818c-2.074-.777-7.403-.253-11.148 1.209-1.836.717-3.293 1.658-3.794 2.785-1.374 3.091 7.042 8.458 10.434 7.47 1.616-.47 3.937-3.91 4.972-6.92.735-2.14.82-4.062-.464-4.544M61.18 27.364c-.96-.122-2.947-.391-3.582-1.11-1.418-1.606-3.692-2.037-5.346-1.674-1.751.385-2.684 2.424-1.48 4.96.54 1.14.403 2.514-.148 3.54 1.722-1.605 3.332-2.912 4.527-3.54 2.354-1.239 4.442-1.881 6.03-2.176M78.369 50.874s-1.718 5.84-2.92 8.501c-1.06 2.347-1.395 2.159-2.161 2.434.288-.728.495-1.682.873-3.292.454-1.938 0-2.448 0-2.448-.596 2.9-1.521 4.971-2.308 6.33-1.02.342-2.275.562-3.188.197-1.288-.515-1.507-6.57-1.507-6.913 5.605.386 8.592-1.89 11.21-4.809m-27.555-6.382c.119.562.25 1.089.389 1.6l-.131-.148s.11.254.28.69c.235.806.495 1.541.773 2.222.922 2.961 1.905 7.506.44 10.355-1.096 2.13-15.017 9.102 8.777 13.283l21.36-4.946c-9.41-1.273-5.63-6.19-3.388-10.234 2.691-4.853 3.61-7.943 4.19-12.4.348-2.68.092-4.686.018-5.169-.011-.073-.019-.113-.019-.113s-.01.15-.038.406l.038-.664s-1.698 6.827-5.047 9.275c-.78.57-1.278.948-1.598 1.203.337-1.273 1.602-6.638-.206-9.576 0 0-.75 12.343-7.33 12.999-6.582.655-15.856-6.079-18.508-8.783"/>
        <path fill="#244357" d="M31.876 44.084c-.264 1.478-.378 2.809-.337 3.982-1.279 2.027-10.513 23.982-21.983 14.117 1.963 1.72 3.615 9.391 3.615 9.391C23.96 77.88 31.43 53.154 32.283 51.532c.695 1.486 1.87 4.504 8.39 4.638 0 0-7.65-3.75-4.235-13.7 3.414-9.952 8.461-18.397 15.391-22.302 6.93-3.905 13.932-3.639 20.373-.89 0 0-9.72-8.937-20.89-2.182-6.417 3.88-10.689 8.187-13.63 12.6-2.466.44-5.465.043-6.68.043-1.537 0-3.908 1.042-2.836 4.815 1.05 3.694 3.946 7.43 3.71 9.53"/>
    </g>
</svg>
