<svg width="117" height="27" viewBox="0 0 117 27" fill="none" xmlns="http://www.w3.org/2000/svg">
<path fill-rule="evenodd" clip-rule="evenodd" d="M48.0204 11.2768V9.72522C48.0204 8.33874 46.8969 7.21106 45.5168 7.21106H43.6229C42.2425 7.21106 41.1194 8.33874 41.1194 9.72522V20.0903C41.1194 21.4768 42.2425 22.6045 43.6229 22.6045H45.5168C46.8969 22.6045 48.02 21.4768 48.02 20.0903V19.095H45.9489V19.5655C45.9489 20.3005 45.6712 20.7539 44.9947 20.7539H44.1448C43.4686 20.7539 43.1909 20.3005 43.1909 19.5655V10.249C43.1909 9.53063 43.5118 9.06133 44.1448 9.06133H44.995C45.6276 9.06133 45.9489 9.53063 45.9489 10.249V11.2771H48.02L48.0204 11.2768ZM53.0901 22.5951C53.0061 22.5951 52.8673 22.5964 52.7032 22.5983C52.1078 22.6048 51.5953 22.6093 51.3509 22.5928C50.3053 22.5 49.5464 21.7074 49.5464 20.7085V11.1623H51.5969C51.5969 11.1623 51.6228 17.4529 51.5969 20.0744C51.5905 20.763 51.5898 20.7513 52.1033 20.7662C52.5689 20.7798 52.762 20.7931 52.9816 20.7947C54.0911 20.8025 54.0911 22.5947 54.0911 22.5947H53.0901V22.5951ZM64.2348 20.174V20.7568H64.8153C64.4947 20.7568 64.2348 20.4957 64.2348 20.174Z" fill="white"/>
<path fill-rule="evenodd" clip-rule="evenodd" d="M81.6015 19.5655C81.6015 20.2784 81.1965 20.7539 80.6476 20.7539H78.9061V15.134H80.523C81.1313 15.134 81.6015 15.5601 81.6015 16.3009V19.5655ZM78.9061 9.06133H80.2107C80.8049 9.06133 81.1643 9.55268 81.1643 10.249V12.0954C81.1643 12.9166 80.8704 13.2831 80.2107 13.2831H78.9061V9.06133V9.06133ZM82.8221 13.9927C83.0895 13.5821 83.2361 13.107 83.2361 12.6195V9.72522C83.2361 8.3436 82.1511 7.23895 80.7535 7.21106H76.8346C76.8346 7.21106 76.8321 7.76144 76.8346 9.24717C76.8411 12.7337 76.8346 22.6045 76.8346 22.6045H81.308C81.6554 22.6045 82.091 22.4274 82.091 22.4274C83.0317 22.0447 83.6733 21.1294 83.6733 20.0903V15.7768C83.6733 15.1223 83.3536 14.474 82.8221 13.993V13.9927ZM86.7329 15.9441V13.5276C86.7642 13.2675 86.9654 13.0606 87.2221 13.0223H88.164C88.4434 13.0645 88.6581 13.3054 88.6581 13.5977V15.9441H86.7329V15.9441ZM88.8505 11.1717H86.5404C85.5158 11.1717 84.6824 12.0182 84.6824 13.0586V20.7383C84.6824 21.7671 85.5158 22.6041 86.5404 22.6041H90.7299C90.7299 22.6041 90.7299 20.7568 89.3469 20.7539C88.8153 20.7526 87.8398 20.7535 87.2583 20.7542C86.9847 20.7305 86.7658 20.5165 86.7332 20.2444V17.7947H90.7299V13.0586C90.7299 12.0182 89.8871 11.1717 88.8509 11.1717H88.8505ZM95.6869 20.7542L94.2997 20.7548C94.0039 20.7338 93.7701 20.4905 93.7617 20.1902L93.7611 17.2787C93.7617 16.9962 93.9626 16.7611 94.2286 16.7086H95.6869V20.7542V20.7542ZM93.7607 16.7306V16.9654V16.7306ZM95.8797 11.1717H93.4575C92.0406 11.1717 92.0219 13.0223 92.0219 13.0223H95.1971C95.4554 13.0612 95.6579 13.2701 95.6869 13.5321V14.858H93.5693C92.5447 14.858 91.7112 15.6951 91.7112 16.7241V20.7383C91.7112 21.7671 92.5447 22.6041 93.5693 22.6041H97.7584V13.0586C97.7584 12.0182 96.9156 11.1717 95.8797 11.1717V11.1717ZM101.254 18.0419L99.9697 11.1717H97.9819L100.096 22.6041H102.363L104.477 11.1717H102.552L101.254 18.0419ZM115.562 11.1717C115.478 11.1717 115.339 11.1701 115.175 11.1685C114.579 11.162 114.067 11.1574 113.822 11.174C112.777 11.2667 112.018 12.0594 112.018 13.0583V22.6041H114.068C114.068 22.6041 114.094 16.3135 114.068 13.6917C114.062 13.0035 114.061 13.0152 114.575 13.0002C115.04 12.9866 115.233 12.9733 115.453 12.9717C116.563 12.9639 116.563 11.1717 116.563 11.1717H115.562H115.562ZM106.986 15.9441V13.5276C107.018 13.2675 107.219 13.0606 107.475 13.0223H108.418C108.697 13.0645 108.911 13.3054 108.912 13.5977V15.9441H106.986V15.9441ZM109.104 11.1717H106.794C105.769 11.1717 104.936 12.0182 104.936 13.0586V20.7383C104.936 21.7671 105.769 22.6041 106.794 22.6041H110.983C110.983 22.6041 110.983 20.7568 109.6 20.7539C109.069 20.7526 108.093 20.7535 107.512 20.7542C107.238 20.7305 107.019 20.5165 106.986 20.2444V17.7947H110.983V13.0586C110.983 12.0182 110.14 11.1717 109.104 11.1717V11.1717Z" fill="#1E3C4F"/>
<path fill-rule="evenodd" clip-rule="evenodd" d="M58.8436 15.9442V20.1734C58.8436 20.4659 58.6292 20.7069 58.3499 20.7491H57.4076C57.1512 20.7105 56.9501 20.5039 56.9184 20.2441V13.5273C56.9501 13.2676 57.1512 13.061 57.4076 13.0224H58.3499C58.6292 13.0645 58.8436 13.3055 58.8439 13.5977V15.9442H58.8436ZM59.0364 11.1718H57.8771V11.1672H56.726C55.7014 11.1672 54.8679 12.004 54.8679 13.0331V20.7384C54.8679 21.7671 55.7014 22.6042 56.726 22.6042H57.8775L57.8768 22.5997H59.0364C60.0723 22.5997 60.9151 21.7532 60.9151 20.7127V13.0587C60.9151 12.0183 60.0723 11.1718 59.0364 11.1718V11.1718ZM66.1498 11.1718V20.1737C66.1498 20.4656 65.9354 20.7072 65.6561 20.7491H64.7138C64.4575 20.7105 64.256 20.5039 64.225 20.2438V11.1672H62.1745V20.738C62.1745 21.7671 63.0076 22.6042 64.0322 22.6042H65.1837C65.1837 22.6029 66.3426 22.5997 66.3426 22.5997C67.3785 22.5997 68.2213 21.7532 68.2213 20.7127V11.1718H66.1498ZM73.3382 15.9442V20.1734C73.3382 20.4659 73.1235 20.7069 72.8441 20.7491H71.413V13.0224H72.8445C73.1235 13.0645 73.3382 13.3055 73.3382 13.5977V15.9442ZM73.5307 11.1718H72.3714L72.3717 11.1672H69.3622V22.6042H72.3717L72.3714 22.5997H73.5307C74.5669 22.5997 75.4097 21.7532 75.4097 20.7127V13.0587C75.4097 12.0183 74.5669 11.1718 73.5307 11.1718V11.1718Z" fill="white"/>
<path fill-rule="evenodd" clip-rule="evenodd" d="M30.5395 11.5122C30.3518 11.5122 30.5395 11.5122 30.5395 11.5122C30.5395 5.35784 25.0919 0 18.9643 0C14.4507 0 10.4246 2.74054 8.69184 6.62659C8.63145 6.6253 8.69184 6.6253 8.63145 6.6253C3.87366 6.6253 0 10.9122 0 15.6911C0 19.0926 1.4108 21.7398 4.25308 23.1538C4.70645 22.6794 5.83019 22.6712 6.41014 22.3495C5.39135 22.0106 4.56243 21.3136 3.67701 20.6507C0.632586 18.3714 1.08918 12.817 3.08575 10.9424C6.2842 7.93946 9.84302 8.70162 9.84302 8.70162L10.2851 7.71081C11.022 6.05838 12.5041 1.26649 19.2756 1.35146C26.4372 1.4413 28.3872 9.04541 28.3898 11.5806L28.3895 11.6118L28.3856 13.4027L30.1623 13.2477C30.3031 13.2354 30.4429 13.2292 30.5776 13.2292C33.1786 13.2292 35.8346 15.2617 35.8346 17.8742C35.8346 20.4866 33.1786 21.8478 30.5776 21.8478H15.8712C16.0387 21.9341 17.7344 23.4866 20.5272 23.4866H30.5776C34.0841 23.4866 36.9263 21.4888 36.9263 17.9672C36.9263 14.4454 34.046 11.5122 30.5391 11.5122" fill="#244357"/>
<path fill-rule="evenodd" clip-rule="evenodd" d="M25.833 7.98952C25.1633 7.73752 23.4425 7.90746 22.2331 8.38162C21.6403 8.61417 21.1698 8.91935 21.008 9.28487C20.5643 10.2874 23.282 12.028 24.3773 11.7076C24.8991 11.5551 25.6486 10.4395 25.9828 9.46325C26.2201 8.76919 26.2476 8.14584 25.833 7.98952ZM19.7558 8.81525C19.4458 8.77568 18.8041 8.68844 18.5991 8.45525C18.1412 7.93438 17.4069 7.7946 16.8728 7.91233C16.3074 8.03719 16.0061 8.69849 16.3949 9.52098C16.5693 9.89071 16.525 10.3363 16.3471 10.6691C16.9032 10.1485 17.423 9.72465 17.8089 9.52098C18.5691 9.11914 19.2433 8.91092 19.7561 8.81525H19.7558ZM25.3063 16.4401C25.3063 16.4401 24.7515 18.3342 24.3634 19.1972C24.0211 19.9584 23.9129 19.8974 23.6656 19.9866C23.7586 19.7505 23.8254 19.4411 23.9475 18.9189C24.0941 18.2904 23.9475 18.125 23.9475 18.125C23.755 19.0655 23.4563 19.7372 23.2022 20.1779C22.8728 20.2889 22.4676 20.3602 22.1728 20.2418C21.7568 20.0748 21.6861 18.111 21.6861 17.9998C23.4961 18.125 24.4606 17.3868 25.306 16.4401H25.3063ZM16.4081 14.3703C16.4466 14.5525 16.4889 14.7235 16.5337 14.8892L16.4914 14.8412C16.4914 14.8412 16.527 14.9236 16.5819 15.065C16.6577 15.3264 16.7417 15.5648 16.8315 15.7856C17.1292 16.7459 17.4466 18.22 16.9735 19.144C16.6196 19.8348 12.1244 22.096 19.8077 23.452L26.7052 21.8479C23.6666 21.435 24.8872 19.8403 25.6111 18.5288C26.4801 16.9548 26.7768 15.9527 26.9641 14.5071C27.0765 13.638 26.9938 12.9874 26.9699 12.8307C26.9664 12.807 26.9638 12.7941 26.9638 12.7941C26.9638 12.7941 26.9606 12.8427 26.9515 12.9257L26.9638 12.7104C26.9638 12.7104 26.4155 14.9245 25.3341 15.7185C25.0822 15.9034 24.9214 16.026 24.8181 16.1087C24.9269 15.6958 25.3354 13.9558 24.7515 13.0029C24.7515 13.0029 24.5094 17.0061 22.3846 17.2188C20.2592 17.4312 17.2645 15.2472 16.4081 14.3703" fill="#244357"/>
<path fill-rule="evenodd" clip-rule="evenodd" d="M10.2933 14.2379C10.2081 14.7173 10.1713 15.1489 10.1845 15.5294C9.77152 16.1868 6.78974 23.3073 3.08594 20.1079C3.71981 20.6657 4.25327 23.1536 4.25327 23.1536C7.73717 25.1988 10.1493 17.1795 10.4248 16.6535C10.6492 17.1354 11.0286 18.1142 13.134 18.1577C13.134 18.1577 10.6637 16.9415 11.7665 13.7145C12.8689 10.4868 14.4986 7.74786 16.7364 6.48137C18.9742 5.21489 21.2352 5.30116 23.3151 6.19272C23.3151 6.19272 20.1764 3.29424 16.5695 5.48505C14.4973 6.74343 13.1179 8.14029 12.1682 9.57153C11.3719 9.71424 10.4035 9.58548 10.0111 9.58548C9.5148 9.58548 8.74918 9.92343 9.09534 11.1471C9.4344 12.3452 10.3696 13.5568 10.2933 14.2379" fill="#244357"/>
</svg>
