<svg xmlns="http://www.w3.org/2000/svg" width="154" height="31" fill="none" viewBox="0 0 154 31">
    <path fill="#fff" fill-rule="evenodd" d="M65.472 14.404v-1.982c0-1.77-1.438-3.211-3.205-3.211h-2.424c-1.767 0-3.205 1.44-3.205 3.211v13.24c0 1.77 1.438 3.211 3.205 3.211h2.424c1.767 0 3.205-1.44 3.205-3.211V24.39H62.82v.601c0 .94-.356 1.518-1.222 1.518h-1.088c-.866 0-1.221-.579-1.221-1.518v-11.9c0-.917.41-1.517 1.221-1.517h1.088c.81 0 1.222.6 1.222 1.517v1.314h2.651zm6.49 14.457l-.495.004c-.762.009-1.418.014-1.731-.007-1.339-.118-2.31-1.13-2.31-2.407V14.258h2.625s.033 8.035 0 11.383c-.008.88-.01.865.648.884.596.018.843.034 1.124.037 1.42.01 1.42 2.299 1.42 2.299h-1.28zM86.23 25.77v.744h.743c-.41 0-.743-.333-.743-.744z" clip-rule="evenodd"/>
    <path fill="#1E3C4F" fill-rule="evenodd" d="M108.46 24.991c0 .911-.518 1.518-1.221 1.518h-2.229v-7.178h2.069c.779 0 1.381.544 1.381 1.49v4.17zm-3.45-13.417h1.67c.76 0 1.22.628 1.22 1.517v2.359c0 1.049-.376 1.517-1.22 1.517h-1.67v-5.393zm5.013 6.3c.342-.525.53-1.132.53-1.755v-3.697c0-1.765-1.389-3.176-3.178-3.211h-5.017s-.003.703 0 2.6c.008 4.454 0 17.062 0 17.062h5.726c.445 0 1.003-.226 1.003-.226 1.204-.489 2.025-1.658 2.025-2.985v-5.51c0-.836-.409-1.664-1.089-2.279zm5.006 2.492v-3.087c.04-.332.298-.596.626-.645h1.206c.358.053.632.361.632.735v2.997h-2.464zm2.711-6.096h-2.957c-1.312 0-2.379 1.081-2.379 2.41v9.81c0 1.314 1.067 2.383 2.379 2.383h5.363s0-2.36-1.771-2.364h-2.674c-.35-.03-.63-.303-.672-.65v-3.13h5.117V16.68c0-1.329-1.079-2.41-2.406-2.41zm8.751 12.24h-1.776c-.378-.026-.678-.337-.688-.72l-.001-3.72c.001-.36.258-.66.598-.728h1.867v5.168zm-2.466-5.14v.3-.3zm2.713-7.1h-3.101c-1.814 0-1.838 2.364-1.838 2.364h4.065c.331.05.59.316.627.65v1.694h-2.711c-1.311 0-2.378 1.07-2.378 2.384v5.127c0 1.314 1.067 2.384 2.378 2.384h5.363V16.68c0-1.329-1.079-2.41-2.405-2.41zm6.879 8.775l-1.643-8.775h-2.545l2.706 14.603h2.902l2.707-14.603h-2.464l-1.663 8.775zm18.317-8.775l-.496-.004c-.762-.009-1.418-.014-1.731.007-1.339.118-2.31 1.13-2.31 2.407v12.193h2.625s.033-8.035 0-11.384c-.008-.88-.009-.864.648-.884.596-.017.843-.034 1.124-.036 1.421-.01 1.421-2.3 1.421-2.3h-1.282.001zm-10.978 6.096v-3.087c.04-.332.297-.596.626-.645h1.206c.358.053.632.361.633.735v2.997h-2.465zm2.711-6.096h-2.958c-1.311 0-2.378 1.081-2.378 2.41v9.81c0 1.314 1.067 2.383 2.378 2.383h5.363s0-2.36-1.77-2.364h-2.674c-.35-.03-.63-.303-.672-.65v-3.13h5.116V16.68c0-1.329-1.079-2.41-2.405-2.41z" clip-rule="evenodd"/>
    <path fill="#fff" fill-rule="evenodd" d="M79.328 20.366v5.402c0 .374-.275.681-.632.735h-1.207c-.328-.05-.585-.313-.626-.645v-8.58c.04-.331.298-.595.626-.644h1.207c.357.054.632.361.632.735v2.997zm.246-6.096h-1.483v-.006h-1.474c-1.312 0-2.379 1.069-2.379 2.383v9.843c0 1.314 1.067 2.383 2.379 2.383h1.474v-.006h1.484c1.325 0 2.404-1.081 2.404-2.41V16.68c0-1.329-1.079-2.41-2.404-2.41zm9.107 0v11.498c0 .373-.275.682-.632.735h-1.207c-.328-.05-.586-.313-.626-.645V14.264h-2.624V26.49c0 1.315 1.066 2.384 2.378 2.384h1.474c0-.002 1.483-.006 1.483-.006 1.326 0 2.405-1.081 2.405-2.41V14.27h-2.651zm9.202 6.096v5.402c0 .374-.275.681-.633.735h-1.832v-9.87h1.832c.358.055.633.362.633.736v2.997zm.246-6.096h-1.484v-.006h-3.852v14.609h3.852v-.006h1.484c1.326 0 2.405-1.081 2.405-2.41V16.68c0-1.329-1.079-2.41-2.405-2.41z" clip-rule="evenodd"/>
    <path fill="#244357" fill-rule="evenodd" d="M39.094 14.705c-.24 0 0 0 0 0C39.094 6.844 32.121 0 24.277 0c-5.778 0-10.932 3.5-13.15 8.464l-.078-.001C4.96 8.463 0 13.938 0 20.043c0 4.344 1.806 7.726 5.444 9.532.58-.606 2.02-.617 2.762-1.027-1.304-.433-2.366-1.324-3.499-2.17C.81 23.466 1.394 16.37 3.95 13.977c4.095-3.836 8.65-2.862 8.65-2.862l.566-1.266c.944-2.11 2.84-8.231 11.51-8.123 9.167.115 11.663 9.828 11.667 13.066v.04l-.006 2.287 2.275-.197c.18-.016.359-.024.531-.024 3.33 0 6.73 2.596 6.73 5.933 0 3.337-3.4 5.076-6.73 5.076H20.317c.215.11 2.385 2.093 5.96 2.093h12.866c4.489 0 8.127-2.552 8.127-7.05 0-4.499-3.687-8.245-8.176-8.245" clip-rule="evenodd"/>
    <path fill="#244357" fill-rule="evenodd" d="M33.07 10.205c-.858-.322-3.06-.105-4.609.5-.759.298-1.36.688-1.568 1.155-.568 1.28 2.911 3.504 4.313 3.094.668-.195 1.628-1.62 2.055-2.867.304-.886.34-1.682-.191-1.882zm-7.78 1.055c-.397-.05-1.218-.162-1.48-.46-.587-.665-1.527-.844-2.21-.694-.724.16-1.11 1.005-.612 2.055.223.473.166 1.042-.061 1.467.711-.665 1.377-1.207 1.87-1.467.974-.513 1.837-.779 2.493-.901zM32.395 21s-.71 2.419-1.207 3.52c-.438.973-.576.895-.893 1.01.12-.302.205-.698.36-1.365.189-.802 0-1.014 0-1.014-.245 1.202-.628 2.06-.953 2.623-.422.141-.94.232-1.318.081-.532-.213-.623-2.721-.623-2.864 2.317.16 3.552-.782 4.634-1.992zm-11.39-2.645c.049.233.103.451.16.663l-.054-.061s.046.105.116.286c.097.334.205.638.32.92.38 1.227.787 3.11.181 4.29-.453.882-6.207 3.77 3.629 5.503l8.83-2.05c-3.89-.527-2.328-2.564-1.401-4.239 1.112-2.01 1.492-3.29 1.732-5.137.143-1.11.038-1.941.007-2.141l-.008-.047s-.004.062-.016.168l.016-.275s-.702 2.828-2.086 3.843c-.322.236-.528.392-.66.498.139-.527.662-2.75-.086-3.967 0 0-.31 5.113-3.03 5.385-2.72.271-6.554-2.518-7.65-3.639" clip-rule="evenodd"/>
    <path fill="#244357" fill-rule="evenodd" d="M13.177 18.186c-.11.613-.157 1.164-.14 1.65-.528.84-4.345 9.935-9.087 5.848.812.713 1.495 3.89 1.495 3.89 4.46 2.613 7.547-7.63 7.9-8.302.287.616.773 1.866 3.468 1.921 0 0-3.162-1.553-1.75-5.675 1.41-4.123 3.497-7.621 6.361-9.24 2.865-1.617 5.76-1.507 8.422-.368 0 0-4.018-3.702-8.635-.904-2.653 1.608-4.419 3.392-5.634 5.22-1.02.182-2.26.018-2.762.018-.635 0-1.615.431-1.172 1.995.434 1.53 1.631 3.078 1.534 3.947" clip-rule="evenodd"/>
</svg>
