<svg xmlns="http://www.w3.org/2000/svg" xmlns:xlink="http://www.w3.org/1999/xlink" width="361" height="74" viewBox="0 0 361 74">
    <defs>
        <path id="prefix__a" d="M0 0.006L114.354 0.006 114.354 72.424 0 72.424z"/>
    </defs>
    <g fill="none" fill-rule="evenodd" transform="translate(0 .676)">
        <path fill="#4598D3" d="M148.71 34.777V29.99c0-4.274-3.479-7.752-7.753-7.752h-5.865c-4.275 0-7.753 3.478-7.753 7.752v31.96c0 4.274 3.478 7.752 7.753 7.752h5.865c4.274 0 7.752-3.478 7.752-7.752v-3.069h-6.414v1.452c0 2.265-.86 3.663-2.955 3.663H136.708c-2.094 0-2.954-1.398-2.954-3.663V31.608c0-2.215.994-3.663 2.954-3.663h2.633c1.959 0 2.954 1.448 2.954 3.663v3.169h6.414zM164.41 69.674c-.26 0-.69.005-1.198.01-1.844.02-3.431.035-4.188-.017-3.238-.286-5.588-2.73-5.588-5.81V34.423h6.35s.08 19.396 0 27.48c-.02 2.122-.022 2.087 1.568 2.132 1.442.042 2.04.084 2.72.088 3.436.024 3.436 5.55 3.436 5.55h-3.1zM198.923 62.21v1.797h1.798c-.993 0-1.798-.805-1.798-1.798"/>
        <path fill="#ffffff" d="M252.705 60.334c0 2.198-1.254 3.663-2.954 3.663h-5.393V46.669h5.007c1.884 0 3.34 1.314 3.34 3.599v10.066zm-8.347-32.389h4.04c1.84 0 2.953 1.515 2.953 3.663V37.3c0 2.533-.91 3.663-2.953 3.663h-4.04V27.945zm12.127 15.206c.828-1.266 1.282-2.732 1.282-4.234V29.99c0-4.26-3.36-7.665-7.688-7.751h-12.136s-.008 1.697 0 6.277c.02 10.751 0 41.186 0 41.186h13.853c1.076 0 2.425-.546 2.425-.546 2.913-1.181 4.9-4.002 4.9-7.206v-13.3c0-2.018-.99-4.018-2.636-5.5zM268.596 49.167v-7.451c.097-.801.72-1.439 1.515-1.558h2.917c.865.13 1.53.874 1.53 1.775v7.234h-5.962zm6.558-14.715H268c-3.173 0-5.754 2.61-5.754 5.818v23.68c0 3.172 2.581 5.753 5.754 5.753h12.974s0-5.697-4.283-5.706c-1.646-.004-4.667 0-6.468.002-.847-.074-1.525-.734-1.626-1.572v-7.554h12.377V40.27c0-3.208-2.61-5.818-5.819-5.818zM296.325 63.998L292.03 64c-.916-.065-1.64-.815-1.666-1.74l-.002-8.978c.002-.87.624-1.595 1.448-1.758h4.516v12.474zm-5.965-12.405v.724-.724zm6.562-17.14h-7.501c-4.388 0-4.446 5.705-4.446 5.705h9.833c.8.12 1.427.764 1.517 1.573v4.088h-6.558c-3.173 0-5.754 2.58-5.754 5.753V63.95c0 3.173 2.581 5.754 5.754 5.754h12.973V40.27c0-3.207-2.61-5.818-5.818-5.818zM313.564 55.635L309.588 34.452 303.432 34.452 309.979 69.703 316.999 69.703 323.546 34.452 317.586 34.452zM357.874 34.453c-.26 0-.691-.005-1.199-.011-1.844-.02-3.43-.034-4.188.018-3.238.286-5.588 2.73-5.588 5.81v29.433h6.35s.08-19.397 0-27.48c-.02-2.122-.022-2.087 1.568-2.133 1.442-.041 2.04-.083 2.72-.088 3.436-.023 3.436-5.55 3.436-5.55h-3.1zM331.317 49.167v-7.45c.097-.802.72-1.44 1.515-1.559h2.918c.865.13 1.529.874 1.53 1.775v7.234h-5.963zm6.559-14.715h-7.155c-3.173 0-5.754 2.61-5.754 5.818v23.68c0 3.172 2.581 5.753 5.754 5.753h12.973s0-5.697-4.282-5.706c-1.646-.004-4.668 0-6.468.002-.847-.074-1.525-.734-1.627-1.572v-7.554h12.377V40.27c0-3.208-2.61-5.818-5.818-5.818z"/>
        <path fill="#4598D3" d="M182.228 49.167v13.041c0 .901-.664 1.645-1.529 1.775h-2.918c-.794-.12-1.417-.757-1.515-1.558v-20.71c.098-.8.721-1.438 1.515-1.557h2.918c.865.13 1.529.874 1.53 1.775v7.234zm.597-14.715h-3.59v-.014h-3.565c-3.173 0-5.754 2.581-5.754 5.754V63.95c0 3.172 2.581 5.753 5.754 5.753h3.566l-.002-.014h3.591c3.208 0 5.818-2.61 5.818-5.818V40.27c0-3.208-2.61-5.818-5.818-5.818zM204.854 34.453v27.755c0 .901-.664 1.645-1.529 1.775h-2.918c-.794-.12-1.418-.757-1.514-1.558V34.438h-6.35V63.95c0 3.173 2.58 5.754 5.753 5.754h3.566c0-.005 3.589-.014 3.589-.014 3.208 0 5.818-2.61 5.818-5.818V34.453h-6.415zM227.115 49.167v13.041c0 .901-.665 1.645-1.53 1.775h-4.432V40.158h4.433c.864.13 1.529.874 1.529 1.775v7.234zm.596-14.715h-3.59l.001-.014h-9.32v35.265h9.32l-.001-.014h3.59c3.209 0 5.819-2.61 5.819-5.818V40.27c0-3.208-2.61-5.818-5.819-5.818z"/>
        <mask id="prefix__b" fill="#fff">
            <use xlink:href="#prefix__a"/>
        </mask>
        <path fill="#4598D3" d="M94.575 35.503c-.581 0 0 0 0 0 0-18.976-16.87-35.497-35.846-35.497-13.978 0-26.446 8.45-31.812 20.432-.187-.004 0-.004-.187-.004C11.996 20.434 0 33.654 0 48.388c0 10.488 4.369 18.65 13.171 23.009 1.404-1.462 4.884-1.488 6.68-2.479-3.155-1.045-5.722-3.195-8.464-5.239-9.428-7.027-8.014-24.153-1.831-29.933 9.905-9.26 20.926-6.91 20.926-6.91l1.369-3.055c2.282-5.095 6.872-19.87 27.842-19.608 22.178.277 28.217 23.724 28.225 31.54l-.001.096-.012 5.523 5.502-.478c.436-.038.869-.057 1.286-.057 8.055 0 16.28 6.266 16.28 14.322 0 8.055-8.225 12.252-16.28 12.252H49.15c.519.265 5.77 5.053 14.419 5.053h31.124c10.859 0 19.661-6.16 19.661-17.019 0-10.858-8.92-19.902-19.78-19.902" mask="url(#prefix__b)"/>
        <path fill="#4598D3" d="M80 24.64c-2.074-.777-7.403-.253-11.148 1.21-1.836.716-3.293 1.658-3.794 2.784-1.374 3.092 7.042 8.458 10.434 7.471 1.616-.47 3.937-3.91 4.972-6.92.735-2.14.82-4.062-.464-4.544M61.18 27.186c-.96-.122-2.947-.39-3.582-1.109-1.418-1.607-3.692-2.038-5.346-1.674-1.751.385-2.684 2.424-1.48 4.959.54 1.14.403 2.515-.148 3.54 1.722-1.604 3.332-2.912 4.527-3.54 2.354-1.238 4.442-1.88 6.03-2.176M78.369 50.697s-1.718 5.84-2.92 8.5c-1.06 2.347-1.395 2.16-2.161 2.435.288-.728.495-1.682.873-3.293.454-1.937 0-2.447 0-2.447-.596 2.9-1.521 4.97-2.308 6.33-1.02.341-2.275.562-3.188.196-1.288-.515-1.507-6.57-1.507-6.912 5.605.386 8.592-1.89 11.21-4.81m-27.555-6.382c.119.562.25 1.09.389 1.6l-.131-.148s.11.254.28.691c.235.805.495 1.541.773 2.222.922 2.96 1.905 7.505.44 10.355-1.096 2.13-15.017 9.102 8.777 13.282l21.36-4.945c-9.41-1.274-5.63-6.19-3.388-10.234 2.691-4.853 3.61-7.944 4.19-12.402.348-2.68.092-4.685.018-5.167-.011-.073-.019-.114-.019-.114s-.01.15-.038.407l.038-.664s-1.698 6.827-5.047 9.274c-.78.57-1.278.948-1.598 1.203.337-1.272 1.602-6.637-.206-9.576 0 0-.75 12.344-7.33 13-6.582.654-15.856-6.08-18.508-8.784"/>
        <path fill="#4598D3" d="M31.876 43.906c-.264 1.478-.378 2.81-.337 3.982C30.26 49.916 21.026 71.87 9.556 62.005c1.963 1.72 3.615 9.392 3.615 9.392 10.788 6.304 18.259-18.42 19.112-20.042.695 1.486 1.87 4.503 8.39 4.637 0 0-7.65-3.75-4.235-13.7C39.852 32.34 44.9 23.895 51.83 19.99c6.93-3.905 13.932-3.638 20.373-.89 0 0-9.72-8.936-20.89-2.182-6.417 3.881-10.689 8.187-13.63 12.6-2.466.441-5.465.043-6.68.043-1.537 0-3.908 1.043-2.836 4.815 1.05 3.694 3.946 7.43 3.71 9.53"/>
    </g>
</svg>
