<svg width="32" height="32" viewBox="0 0 32 32" fill="none" xmlns="http://www.w3.org/2000/svg">
<path fill-rule="evenodd" clip-rule="evenodd" d="M2 1C1.44772 1 1 1.44772 1 2V30C1 30.5523 1.44772 31 2 31H30C30.5523 31 31 30.5523 31 30V9.59603C31 9.33082 30.8946 9.07646 30.7071 8.88893L23.1111 1.29289C22.9235 1.10536 22.6692 1 22.404 1H19C19.5523 1 20 1.44772 20 2V12C20 12.5523 19.5523 13 19 13H7C6.44772 13 6 12.5523 6 12V2C6 1.44772 6.44772 1 7 1H2Z" fill="#88C7EA"/>
<path fill-rule="evenodd" clip-rule="evenodd" d="M29 10.0102V29H3V3H6V12C6 12.5523 6.44772 13 7 13H19C19.5523 13 20 12.5523 20 12V3H21.9898L29 10.0102ZM18 3H8V11H18V3ZM19 1H22.404C22.6692 1 22.9235 1.10536 23.1111 1.29289L30.7071 8.88893C30.8946 9.07646 31 9.33082 31 9.59603V30C31 30.5523 30.5523 31 30 31H2C1.44772 31 1 30.5523 1 30V2C1 1.44772 1.44772 1 2 1H7H19Z" fill="#338ECC"/>
<rect x="13" y="5" width="3" height="4" fill="#338ECC"/>
</svg>
