<svg width="32" height="32" viewBox="0 0 32 32" fill="none" xmlns="http://www.w3.org/2000/svg">
<path fill-rule="evenodd" clip-rule="evenodd" d="M16.0034 11.4495C18.583 11.4495 20.6815 13.4906 20.6815 15.9997C20.6815 18.5088 18.583 20.5499 16.0034 20.5499C13.4237 20.5499 11.3253 18.5088 11.3253 15.9997C11.3253 13.4906 13.4237 11.4495 16.0034 11.4495ZM6.0724 14.7257C6.01983 15.1417 5.97973 15.5707 5.97973 15.9997C5.97973 16.4287 6.01983 16.8577 6.0724 17.2737L3.25306 19.4179C2.99911 19.613 2.93228 19.964 3.09267 20.25L5.76588 24.7481C5.92627 25.0341 6.28715 25.1381 6.5812 25.0341L9.90845 23.7341C10.6035 24.2541 11.352 24.6831 12.1673 25.0081L12.6752 28.4532C12.7153 28.7653 12.996 28.9993 13.3302 28.9993H18.6766C19.0107 28.9993 19.2905 28.7653 19.3306 28.4532L19.8394 25.0081C20.6547 24.6831 21.4032 24.2411 22.0983 23.7341L25.4255 25.0341C25.7329 25.1511 26.0814 25.0341 26.2409 24.7481L28.9141 20.25C29.0745 19.964 29.0076 19.613 28.7546 19.4179L25.9343 17.2737C25.9869 16.8577 26.027 16.4417 26.027 15.9997C26.027 15.5577 25.9869 15.1417 25.9343 14.7257L28.7546 12.5806C29.0076 12.3856 29.0745 12.0346 28.9141 11.7486L26.2409 7.25041C26.0814 6.9644 25.7196 6.8604 25.4255 6.9644L22.0983 8.26444C21.4032 7.74443 20.6547 7.31541 19.8394 6.9904L19.3306 3.54529C19.2905 3.23414 19.0107 2.99927 18.6766 2.99927H13.3302C12.996 2.99927 12.7153 3.23414 12.6752 3.54529L12.1673 6.9904C11.352 7.31541 10.6035 7.75743 9.90845 8.26444L6.5812 6.9644C6.27378 6.8474 5.92627 6.9644 5.76588 7.25041L3.09267 11.7486C2.91891 12.0346 2.99911 12.3856 3.25306 12.5806L6.0724 14.7257Z" fill="#338ECC"/>
</svg>
