<svg width="16" height="16" viewBox="0 0 16 16" fill="none" xmlns="http://www.w3.org/2000/svg">
<path fill-rule="evenodd" clip-rule="evenodd" d="M8.00135 5.9C9.19192 5.9 10.1604 6.842 10.1604 8C10.1604 9.158 9.19192 10.1 8.00135 10.1C6.81079 10.1 5.8423 9.158 5.8423 8C5.8423 6.842 6.81079 5.9 8.00135 5.9ZM3.41798 7.412C3.39372 7.604 3.37521 7.802 3.37521 8C3.37521 8.198 3.39372 8.396 3.41798 8.588L2.11679 9.5776C1.99959 9.6676 1.96874 9.8296 2.04277 9.9616L3.27652 12.0376C3.35054 12.1696 3.5171 12.2176 3.65281 12.1696L5.18841 11.5696C5.50918 11.8096 5.85463 12.0076 6.23093 12.1576L6.46534 13.7476C6.48384 13.8916 6.61339 13.9996 6.76761 13.9996H9.2351C9.38932 13.9996 9.51845 13.8916 9.53696 13.7476L9.77178 12.1576C10.1481 12.0076 10.4935 11.8036 10.8143 11.5696L12.3499 12.1696C12.4918 12.2236 12.6526 12.1696 12.7262 12.0376L13.9599 9.9616C14.034 9.8296 14.0031 9.6676 13.8863 9.5776L12.5847 8.588C12.609 8.396 12.6275 8.204 12.6275 8C12.6275 7.796 12.609 7.604 12.5847 7.412L13.8863 6.422C14.0031 6.332 14.034 6.17 13.9599 6.038L12.7262 3.962C12.6526 3.83 12.4856 3.782 12.3499 3.83L10.8143 4.43C10.4935 4.19 10.1481 3.992 9.77178 3.842L9.53696 2.252C9.51845 2.1084 9.38932 2 9.2351 2H6.76761C6.61339 2 6.48384 2.1084 6.46534 2.252L6.23093 3.842C5.85463 3.992 5.50918 4.196 5.18841 4.43L3.65281 3.83C3.51093 3.776 3.35054 3.83 3.27652 3.962L2.04277 6.038C1.96258 6.17 1.99959 6.332 2.11679 6.422L3.41798 7.412Z" fill="#338ECC"/>
</svg>
