<svg width="24" height="24" viewBox="0 0 24 24" fill="none" xmlns="http://www.w3.org/2000/svg">
<path fill-rule="evenodd" clip-rule="evenodd" d="M12.0023 8.50022C13.9865 8.50022 15.6007 10.0703 15.6007 12.0003C15.6007 13.9304 13.9865 15.5005 12.0023 15.5005C10.018 15.5005 8.40383 13.9304 8.40383 12.0003C8.40383 10.0703 10.018 8.50022 12.0023 8.50022ZM4.36331 11.0203C4.32287 11.3403 4.29202 11.6703 4.29202 12.0003C4.29202 12.3303 4.32287 12.6604 4.36331 12.9804L2.19466 14.6298C1.99931 14.7798 1.94791 15.0498 2.07128 15.2698L4.12753 18.7299C4.2509 18.9499 4.52849 19.0299 4.75468 18.9499L7.31402 17.9499C7.84864 18.3499 8.42439 18.6799 9.05154 18.9299L9.44223 21.58C9.47307 21.82 9.68898 22 9.94601 22H14.0585C14.3155 22 14.5307 21.82 14.5616 21.58L14.953 18.9299C15.5801 18.6799 16.1559 18.3399 16.6905 17.9499L19.2498 18.9499C19.4863 19.0399 19.7543 18.9499 19.877 18.7299L21.9332 15.2698C22.0566 15.0498 22.0052 14.7798 21.8105 14.6298L19.6412 12.9804C19.6816 12.6604 19.7125 12.3403 19.7125 12.0003C19.7125 11.6603 19.6816 11.3403 19.6412 11.0203L21.8105 9.37025C22.0052 9.22024 22.0566 8.95023 21.9332 8.73022L19.877 5.27011C19.7543 5.0501 19.476 4.9701 19.2498 5.0501L16.6905 6.05014C16.1559 5.65012 15.5801 5.32011 14.953 5.0701L14.5616 2.42001C14.5307 2.18067 14.3155 2 14.0585 2H9.94601C9.68898 2 9.47307 2.18067 9.44223 2.42001L9.05154 5.0701C8.42439 5.32011 7.84864 5.66012 7.31402 6.05014L4.75468 5.0501C4.51821 4.9601 4.2509 5.0501 4.12753 5.27011L2.07128 8.73022C1.93763 8.95023 1.99931 9.22024 2.19466 9.37025L4.36331 11.0203Z" fill="#338ECC"/>
</svg>
