<svg width="16" height="16" viewBox="0 0 16 16" fill="none" xmlns="http://www.w3.org/2000/svg">
<path fill-rule="evenodd" clip-rule="evenodd" d="M8.00158 5.55015C9.39057 5.55015 10.5205 6.64919 10.5205 8.00023C10.5205 9.35128 9.39057 10.4503 8.00158 10.4503C6.61259 10.4503 5.48268 9.35128 5.48268 8.00023C5.48268 6.64919 6.61259 5.55015 8.00158 5.55015ZM2.65432 7.31421C2.62601 7.53822 2.60442 7.76923 2.60442 8.00023C2.60442 8.23124 2.62601 8.46225 2.65432 8.68626L1.13626 9.84083C0.999519 9.94583 0.963535 10.1348 1.0499 10.2888L2.48927 12.7109C2.57563 12.8649 2.76995 12.9209 2.92828 12.8649L4.71981 12.1649C5.09405 12.4449 5.49707 12.6759 5.93608 12.8509L6.20956 14.706C6.23115 14.874 6.38229 15 6.56221 15H9.44095C9.62087 15 9.77152 14.874 9.79312 14.706L10.0671 12.8509C10.5061 12.6759 10.9091 12.4379 11.2833 12.1649L13.0749 12.8649C13.2404 12.9279 13.428 12.8649 13.5139 12.7109L14.9533 10.2888C15.0396 10.1348 15.0036 9.94583 14.8674 9.84083L13.3488 8.68626C13.3771 8.46225 13.3987 8.23824 13.3987 8.00023C13.3987 7.76223 13.3771 7.53822 13.3488 7.31421L14.8674 6.15917C15.0036 6.05417 15.0396 5.86516 14.9533 5.71116L13.5139 3.28908C13.428 3.13507 13.2332 3.07907 13.0749 3.13507L11.2833 3.83509C10.9091 3.55509 10.5061 3.32408 10.0671 3.14907L9.79312 1.29401C9.77152 1.12647 9.62087 1 9.44095 1H6.56221C6.38229 1 6.23115 1.12647 6.20956 1.29401L5.93608 3.14907C5.49707 3.32408 5.09405 3.56209 4.71981 3.83509L2.92828 3.13507C2.76275 3.07207 2.57563 3.13507 2.48927 3.28908L1.0499 5.71116C0.956338 5.86516 0.999519 6.05417 1.13626 6.15917L2.65432 7.31421Z" fill="#338ECC"/>
</svg>
