<svg width="32" height="32" viewBox="0 0 32 32" fill="none" xmlns="http://www.w3.org/2000/svg">
<path fill-rule="evenodd" clip-rule="evenodd" d="M16.0032 11.1003C18.7811 11.1003 21.041 13.2984 21.041 16.0005C21.041 18.7026 18.7811 20.9006 16.0032 20.9006C13.2252 20.9006 10.9654 18.7026 10.9654 16.0005C10.9654 13.2984 13.2252 11.1003 16.0032 11.1003ZM5.30863 14.6284C5.25202 15.0764 5.20883 15.5385 5.20883 16.0005C5.20883 16.4625 5.25202 16.9245 5.30863 17.3725L2.27252 19.6817C1.99904 19.8917 1.92707 20.2697 2.09979 20.5777L4.97854 25.4218C5.15126 25.7299 5.53989 25.8419 5.85655 25.7299L9.43963 24.3298C10.1881 24.8898 10.9941 25.3518 11.8722 25.7019L12.4191 29.412C12.4623 29.748 12.7646 30 13.1244 30H18.8819C19.2417 30 19.543 29.748 19.5862 29.412L20.1341 25.7019C21.0122 25.3518 21.8182 24.8758 22.5667 24.3298L26.1498 25.7299C26.4808 25.8559 26.856 25.7299 27.0278 25.4218L29.9065 20.5777C30.0792 20.2697 30.0073 19.8917 29.7348 19.6817L26.6977 17.3725C26.7543 16.9245 26.7975 16.4765 26.7975 16.0005C26.7975 15.5245 26.7543 15.0764 26.6977 14.6284L29.7348 12.3183C30.0073 12.1083 30.0792 11.7303 29.9065 11.4223L27.0278 6.57815C26.856 6.27014 26.4664 6.15814 26.1498 6.27014L22.5667 7.67019C21.8182 7.11017 21.0122 6.64816 20.1341 6.29814L19.5862 2.58802C19.543 2.25294 19.2417 2 18.8819 2H13.1244C12.7646 2 12.4623 2.25294 12.4191 2.58802L11.8722 6.29814C10.9941 6.64816 10.1881 7.12417 9.43963 7.67019L5.85655 6.27014C5.5255 6.14414 5.15126 6.27014 4.97854 6.57815L2.09979 11.4223C1.91268 11.7303 1.99904 12.1083 2.27252 12.3183L5.30863 14.6284Z" fill="#338ECC"/>
</svg>
