<svg width="24" height="24" viewBox="0 0 24 24" fill="none" xmlns="http://www.w3.org/2000/svg">
<path fill-rule="evenodd" clip-rule="evenodd" d="M12.0025 8.15024C14.1852 8.15024 15.9607 9.8773 15.9607 12.0004C15.9607 14.1234 14.1852 15.8505 12.0025 15.8505C9.81978 15.8505 8.04421 14.1234 8.04421 12.0004C8.04421 9.8773 9.81978 8.15024 12.0025 8.15024ZM3.59964 10.9223C3.55516 11.2743 3.52123 11.6374 3.52123 12.0004C3.52123 12.3634 3.55516 12.7264 3.59964 13.0784L1.21412 14.8927C0.999244 15.0577 0.942697 15.3547 1.07841 15.5968L3.34028 19.4029C3.47599 19.6449 3.78134 19.7329 4.03015 19.6449L6.84542 18.5449C7.43351 18.9849 8.06683 19.3479 8.7567 19.6229L9.18645 22.538C9.22038 22.802 9.45788 23 9.74061 23H14.2643C14.5471 23 14.7838 22.802 14.8178 22.538L15.2483 19.6229C15.9381 19.3479 16.5715 18.9739 17.1595 18.5449L19.9748 19.6449C20.2349 19.7439 20.5297 19.6449 20.6647 19.4029L22.9265 15.5968C23.0623 15.3547 23.0057 15.0577 22.7916 14.8927L20.4053 13.0784C20.4498 12.7264 20.4837 12.3744 20.4837 12.0004C20.4837 11.6264 20.4498 11.2743 20.4053 10.9223L22.7916 9.10727C23.0057 8.94227 23.0623 8.64526 22.9265 8.40325L20.6647 4.59712C20.5297 4.35511 20.2236 4.26711 19.9748 4.35511L17.1595 5.45515C16.5715 5.01513 15.9381 4.65212 15.2483 4.37711L14.8178 1.46202C14.7838 1.19874 14.5471 1 14.2643 1H9.74061C9.45788 1 9.22038 1.19874 9.18645 1.46202L8.7567 4.37711C8.06683 4.65212 7.43351 5.02613 6.84542 5.45515L4.03015 4.35511C3.77003 4.25611 3.47599 4.35511 3.34028 4.59712L1.07841 8.40325C0.931388 8.64526 0.999244 8.94227 1.21412 9.10727L3.59964 10.9223Z" fill="#338ECC"/>
</svg>
