<svg width="40" height="40" viewBox="0 0 40 40" fill="none" xmlns="http://www.w3.org/2000/svg">
  <path fill-rule="evenodd" clip-rule="evenodd" d="M20 5C11.7157 5 5 11.7157 5 20C5 28.2843 11.7157 35 20 35C28.2843 35 35 28.2843 35 20C35 18.8954 35.8954 18 37 18C38.1046 18 39 18.8954 39 20C39 30.4934 30.4934 39 20 39C9.50659 39 1 30.4934 1 20C1 9.50659 9.50659 1 20 1C21.1046 1 22 1.89543 22 3C22 4.10457 21.1046 5 20 5Z" fill="url(#paint0_radial_3182_950)"/>
  <defs>
    <radialGradient id="paint0_radial_3182_950" cx="0" cy="0" r="1" gradientUnits="userSpaceOnUse" gradientTransform="translate(39 20) rotate(180) scale(32.7903 32.3541)">
      <stop offset="0.139672" stop-color="#417BAF" stop-opacity="0"/>
      <stop offset="0.559863" stop-color="#417BAF" stop-opacity="0.3"/>
      <stop offset="0.869303" stop-color="#417BAF"/>
    </radialGradient>
  </defs>
</svg>
