<svg width="32" height="32" viewBox="0 0 32 32" fill="none" xmlns="http://www.w3.org/2000/svg">
<path fill-rule="evenodd" clip-rule="evenodd" d="M16.866 3.5C16.4811 2.83333 15.5189 2.83333 15.134 3.5L1.27756 27.5C0.892657 28.1667 1.37378 29 2.14358 29H29.8564C30.6262 29 31.1073 28.1667 30.7224 27.5L16.866 3.5ZM14.9744 20.5546L14.7667 11H17.1702L16.9724 20.5546H14.9744ZM17.4966 24.0263C17.4966 24.9065 16.8932 25.5 15.9833 25.5C15.0634 25.5 14.4502 24.9065 14.4502 24.0263C14.4502 23.1361 15.0634 22.5426 15.9833 22.5426C16.8932 22.5426 17.4966 23.1361 17.4966 24.0263Z" fill="#E28835"/>
</svg>
