<svg id="Слой_1" data-name="Слой 1" xmlns="http://www.w3.org/2000/svg" viewBox="0 0 90.71 90.71"><defs><style>.cls-1{fill:#fff;}.cls-2{fill:#1e3c4e;}</style></defs><rect class="cls-1" width="90.71" height="90.71" rx="11.38"/><path class="cls-2" d="M51.14,11.26A29.41,29.41,0,0,0,25.73,28.65h-.16C13,28.65,2.73,39.94,2.73,52.53c0,9,3.73,15.93,11.25,19.66,9.22,5.39,15.6-15.74,16.33-17.13.59,1.27,1.6,3.85,7.17,4,0,0-6.54-3.21-3.62-11.71S41.09,31.6,47,28.27a19,19,0,0,1,17.41-.77s-8.31-7.63-17.85-1.86A36,36,0,0,0,34.92,36.41a29.2,29.2,0,0,1-5.7,0c-1.32,0-3.34.89-2.43,4.12S30.16,46.91,30,48.7a16.3,16.3,0,0,0-.28,3.4c-1.1,1.73-9,20.49-18.79,12.06a2.58,2.58,0,0,1,.37.42C4.54,58.08,5.89,44.7,10.89,40a21.33,21.33,0,0,1,17.88-5.9l1.17-2.61c1.85-4.14,6.53-16.19,21.2-16.64a28.76,28.76,0,0,1,16.78,5.07A30.41,30.41,0,0,1,81.47,43.58c0,.55,0,1.11,0,1.67,0,9.71-6,30.15-12.29,24.4-2.45-2.25-.11-6.65,1.31-9.21a26.25,26.25,0,0,0,3.58-10.59,16.09,16.09,0,0,0,0-4.42.62.62,0,0,1,0-.09l0,.34,0-.56S72.67,51,69.81,53c-.67.49-1.1.81-1.37,1,.29-1.09,1.37-5.67-.18-8.18,0,0-.64,10.54-6.26,11.1s-13.55-5.19-15.81-7.5c.1.48.21.93.33,1.37l-.11-.13.24.59a18.25,18.25,0,0,0,.66,1.9c.79,2.53,1.63,6.41.37,8.85-.85,1.65-10.78,8.61,2.78,12.54a19.13,19.13,0,0,0,4.71,1.06h0c.61.06,9.75.09,9.75.09,13.29,0,23-16.08,23-30.51C88,24.93,66.81,10.73,51.14,11.26ZM61.44,65c-1.1-.44-1.29-5.62-1.29-5.91,4.79.33,7.34-1.61,9.58-4.11,0,0-1.47,5-2.49,7.27-.91,2-1.19,1.84-1.85,2.07a22.88,22.88,0,0,0,.75-2.81c.38-1.65,0-2.09,0-2.09a17.73,17.73,0,0,1-2,5.41A4.28,4.28,0,0,1,61.44,65Z"/><path class="cls-2" d="M67.27,42.47c1.39-.4,3.37-3.34,4.25-5.91.63-1.83.7-3.47-.39-3.88-1.78-.67-6.33-.22-9.53,1a5.72,5.72,0,0,0-3.24,2.38C57.19,38.73,64.38,43.32,67.27,42.47Z"/><path class="cls-2" d="M49.89,36.71a18.78,18.78,0,0,1,5.16-1.86c-.83-.1-2.52-.33-3.06-.94a4.86,4.86,0,0,0-4.57-1.43c-1.5.32-2.3,2.07-1.27,4.23a3.46,3.46,0,0,1-.12,3A21.1,21.1,0,0,1,49.89,36.71Z"/></svg>