<svg width="16" height="16" viewBox="0 0 16 16" fill="none" xmlns="http://www.w3.org/2000/svg">
<path fill-rule="evenodd" clip-rule="evenodd" d="M2.5 2.5V7.5H6V2.5H2.5ZM2 1C1.44772 1 1 1.44772 1 2V8C1 8.55228 1.44772 9 2 9H6.5C7.05228 9 7.5 8.55228 7.5 8V2C7.5 1.44772 7.05228 1 6.5 1H2Z" fill="#338ECC"/>
<path fill-rule="evenodd" clip-rule="evenodd" d="M13.5 13.5L13.5 8.5L10 8.5L10 13.5L13.5 13.5ZM14 15C14.5523 15 15 14.5523 15 14L15 8C15 7.44772 14.5523 7 14 7L9.5 7C8.94772 7 8.5 7.44771 8.5 8L8.5 14C8.5 14.5523 8.94772 15 9.5 15L14 15Z" fill="#338ECC"/>
<path fill-rule="evenodd" clip-rule="evenodd" d="M2.5 11.5V13.5H6V11.5H2.5ZM2 10C1.44772 10 1 10.4477 1 11V14C1 14.5523 1.44772 15 2 15H6.5C7.05228 15 7.5 14.5523 7.5 14V11C7.5 10.4477 7.05228 10 6.5 10H2Z" fill="#338ECC"/>
<path fill-rule="evenodd" clip-rule="evenodd" d="M13.5 4.5L13.5 2.5L10 2.5L10 4.5L13.5 4.5ZM14 6C14.5523 6 15 5.55228 15 5L15 2C15 1.44772 14.5523 1 14 1L9.5 1C8.94772 0.999999 8.5 1.44771 8.5 2L8.5 5C8.5 5.55228 8.94772 6 9.5 6L14 6Z" fill="#338ECC"/>
</svg>
