<svg width="24" height="24" viewBox="0 0 24 24" fill="none" xmlns="http://www.w3.org/2000/svg">
<g clip-path="url(#clip0_11514_2)">
<path d="M14.3572 10.166H15.9286V2.94231H14.3572V10.166Z" fill="#3387C5"/>
<path d="M17.9244 6.10471L15.1429 3.27143L12.3615 6.10471L11.2537 4.973L15.1429 1L19.0322 4.973L17.9244 6.10471Z" fill="#3387C5"/>
<path d="M15.9286 18.5214L8.85719 11.2977L2.34362 17.9515L1.22791 16.8198L8.85719 9.02631L15.9286 16.2499L19.0715 13.0394L22.7722 16.8198L21.6565 17.9515L19.0715 15.3109L15.9286 18.5214Z" fill="#3387C5"/>
<path d="M19.0714 2.93439L20.6429 4.53964H21.4286V21.3948H2.57143V4.53964H9.64286L11.2143 2.93439H1V23.0001H23V2.93439H19.0714Z" fill="#3387C5"/>
</g>
<defs>
<clipPath id="clip0_11514_2">
<rect width="24" height="24" fill="white"/>
</clipPath>
</defs>
</svg>
