<svg width="16" height="16" viewBox="0 0 16 16" fill="none" xmlns="http://www.w3.org/2000/svg">
<path fill-rule="evenodd" clip-rule="evenodd" d="M10.5 6.5C10.5 8.70914 8.70914 10.5 6.5 10.5C4.29086 10.5 2.5 8.70914 2.5 6.5C2.5 4.29086 4.29086 2.5 6.5 2.5C8.70914 2.5 10.5 4.29086 10.5 6.5ZM9.68256 10.9862C8.78427 11.6246 7.68597 12 6.5 12C3.46243 12 1 9.53757 1 6.5C1 3.46243 3.46243 1 6.5 1C9.53757 1 12 3.46243 12 6.5C12 7.88792 11.4859 9.15577 10.6378 10.1235L10.7678 10.1464L15.0104 14.3891L13.9497 15.4497L9.70711 11.2071L9.68256 10.9862ZM4.8 7.29999V5.79999H5.8V4.79999H7.3V5.79999H8.3V7.29999H7.3V8.29999H5.8V7.29999H4.8Z" fill="#398FCA"/>
</svg>
