<svg width="16" height="16" viewBox="0 0 16 16" fill="none" xmlns="http://www.w3.org/2000/svg">
<path fill-rule="evenodd" clip-rule="evenodd" d="M6.5 10.5C8.70914 10.5 10.5 8.70914 10.5 6.5C10.5 4.29086 8.70914 2.5 6.5 2.5C4.29086 2.5 2.5 4.29086 2.5 6.5C2.5 8.70914 4.29086 10.5 6.5 10.5ZM6.5 12C7.68597 12 8.78427 11.6246 9.68256 10.9862L9.70711 11.2071L13.9497 15.4497L15.0104 14.3891L10.7678 10.1464L10.6378 10.1235C11.4859 9.15577 12 7.88792 12 6.5C12 3.46243 9.53757 1 6.5 1C3.46243 1 1 3.46243 1 6.5C1 9.53757 3.46243 12 6.5 12ZM4.8 5.79999V7.29999H8.3V5.79999H4.8Z" fill="#398FCA"/>
</svg>
