<svg width="16" height="16" viewBox="0 0 16 16" fill="none" xmlns="http://www.w3.org/2000/svg">
<path fill-rule="evenodd" clip-rule="evenodd" d="M5 6C3.34315 6 2 7.34315 2 9V12C2 13.6569 3.34315 15 5 15H11C12.6569 15 14 13.6569 14 12V9C14 7.34315 12.6569 6 11 6H5ZM9 10C9 10.3701 8.7989 10.6933 8.5 10.8662V12.5C8.5 12.7761 8.27614 13 8 13C7.72386 13 7.5 12.7761 7.5 12.5V10.8662C7.2011 10.6933 7 10.3701 7 10C7 9.44772 7.44772 9 8 9C8.55228 9 9 9.44772 9 10Z" fill="#338ECC"/>
<path fill-rule="evenodd" clip-rule="evenodd" d="M8 1C6.067 1 4.5 2.567 4.5 4.5V6.5H5.5V4.5C5.5 3.11929 6.61929 2 8 2C9.38071 2 10.5 3.11929 10.5 4.5V7H5V8H11.5V4.5C11.5 2.567 9.933 1 8 1Z" fill="#338ECC"/>
</svg>
