<svg width="24" height="24" viewBox="0 0 24 24" fill="none" xmlns="http://www.w3.org/2000/svg">
<g clip-path="url(#clip0_3207_946)">
<path fill-rule="evenodd" clip-rule="evenodd" d="M21 0C22.1046 0 23 0.89543 23 2V4H20L20 21.5799C20 22.9164 18.8232 23.9999 17.4867 23.9999L14 23.9999V24L8.9046 24L8.0466 24L8.0401 24L1 23.9999V19.9999L14 20V22.0933L17.4867 22.0932C17.7702 22.0932 18 21.8634 18 21.5799L18 2L8.23591 2L7 2V17H5L5 5V3C5 2.9996 5 2.99919 5 2.99879V2C5 0.895431 5.89543 0 7 0H8H19H21Z" fill="#338ECC"/>
</g>
<defs>
<clipPath id="clip0_3207_946">
<rect width="24" height="24" fill="white"/>
</clipPath>
</defs>
</svg>
