<svg width="32" height="32" viewBox="0 0 32 32" fill="none" xmlns="http://www.w3.org/2000/svg">
<path fill-rule="evenodd" clip-rule="evenodd" d="M8 12C5.79086 12 4 13.7909 4 16V27C4 29.2091 5.79086 31 8 31H24C26.2091 31 28 29.2091 28 27V16C28 13.7909 26.2091 12 24 12H8ZM18.5 20.5C18.5 21.5252 17.883 22.4062 17 22.792V25C17 25.5523 16.5523 26 16 26C15.4477 26 15 25.5523 15 25V22.792C14.117 22.4062 13.5 21.5252 13.5 20.5C13.5 19.1193 14.6193 18 16 18C17.3807 18 18.5 19.1193 18.5 20.5Z" fill="#338ECC"/>
<path fill-rule="evenodd" clip-rule="evenodd" d="M7 8C7 4.13401 10.134 1 14 1H18C21.866 1 25 4.13401 25 8V17H7V8ZM14 3C11.2386 3 9 5.23858 9 8V15H23V8C23 5.23858 20.7614 3 18 3H14Z" fill="#338ECC"/>
</svg>
