<svg width="24" height="24" viewBox="0 0 24 24" fill="none" xmlns="http://www.w3.org/2000/svg">
<path fill-rule="evenodd" clip-rule="evenodd" d="M12 1C8.68629 1 6 3.68629 6 7V7.38462H8V7C8 4.79086 9.79086 3 12 3C14.2091 3 16 4.79086 16 7V9H6C4.34315 9 3 10.3431 3 12V20C3 21.6569 4.34315 23 6 23H18C19.6569 23 21 21.6569 21 20V12C21 10.3431 19.6569 9 18 9V7C18 3.68629 15.3137 1 12 1ZM12.9999 16.7325C13.5977 16.3867 13.9999 15.7404 13.9999 15.0001C13.9999 13.8955 13.1044 13.0001 11.9999 13.0001C10.8953 13.0001 9.99987 13.8955 9.99987 15.0001C9.99987 15.7404 10.4021 16.3867 10.9999 16.7325V18.0001C10.9999 18.5524 11.4476 19.0001 11.9999 19.0001C12.5522 19.0001 12.9999 18.5524 12.9999 18.0001V16.7325Z" fill="#338ECC"/>
</svg>
