<svg width="32" height="32" viewBox="0 0 32 32" fill="none" xmlns="http://www.w3.org/2000/svg">
<g clip-path="url(#clip0)">
<path fill-rule="evenodd" clip-rule="evenodd" d="M28.5 0C29.8807 0 31 1.11929 31 2.5V5H25.1001L25.1001 28C25.1001 28.4961 25.0885 29.4667 24.6934 30.3319C24.4856 30.7871 24.1578 31.2466 23.6473 31.587C23.1334 31.9298 22.5119 32.1 21.805 32.1H6.0001V32H0V26H20V29.9H21.805C22.1517 29.9 22.3314 29.8202 22.4267 29.7567C22.5254 29.6909 22.6146 29.5879 22.6922 29.4181C22.8678 29.0333 22.9001 28.5039 22.9001 28V2.6H8.9999C8.55416 2.6 8.29863 2.69185 8.15262 2.77735C8.0104 2.86064 7.90752 2.97541 7.82583 3.13249C7.63677 3.49608 7.59989 3.9996 7.5999 4.49998V23H5.3999V4.99696L5.39734 5L5.39735 3C5.39735 1.34315 6.74049 0 8.39735 0H28.5ZM19.5 15L11.5 8V22L19.5 15Z" fill="#F48400"/>
</g>
<defs>
<clipPath id="clip0">
<rect width="32" height="32" fill="white"/>
</clipPath>
</defs>
</svg>
