<svg id="Layer_1" data-name="Layer 1" xmlns="http://www.w3.org/2000/svg" viewBox="0 0 24 24"><defs><style>.cls-1{fill:#338ecc;}</style></defs><path class="cls-1" d="M15.25,2H4.5A1.5,1.5,0,0,0,3,3.5v18A1.49,1.49,0,0,0,4.49,23h15A1.49,1.49,0,0,0,21,21.52V7.75ZM15,3.87,19.09,8H15Zm4.5,17.6H4.5V3.5h9V8A1.49,1.49,0,0,0,15,9.5H19.5Z"/><polygon class="cls-1" points="12.75 17.75 12.75 11.75 17.25 14.75 12.75 17.75"/><rect class="cls-1" x="11.25" y="11" width="1.5" height="7.5" transform="translate(26.75 2.75) rotate(90)"/></svg>