<svg width="16" height="16" viewBox="0 0 16 16" fill="none" xmlns="http://www.w3.org/2000/svg">
<path fill-rule="evenodd" clip-rule="evenodd" d="M1 1.2C1 1.08954 1.08954 1 1.2 1H6.8C6.91046 1 7 1.08954 7 1.2V2.8C7 2.91046 6.91046 3 6.8 3H1.2C1.08954 3 1 2.91046 1 2.8V1.2ZM5 13L3 15H13.8C13.9105 15 14 14.9105 14 14.8V13.2C14 13.0895 13.9105 13 13.8 13H5ZM1.2 5C1.08954 5 1 5.08954 1 5.2V6.8C1 6.91046 1.08954 7 1.2 7H14.8C14.9105 7 15 6.91046 15 6.8V5.2C15 5.08954 14.9105 5 14.8 5H1.2ZM3 9L5 11H11.8C11.9105 11 12 10.9105 12 10.8V9.2C12 9.08954 11.9105 9 11.8 9H3Z" fill="#338ECC"/>
<path d="M1 9V15L4 12L1 9Z" fill="#4FA843"/>
</svg>
