<svg width="32" height="32" viewBox="0 0 32 32" fill="none" xmlns="http://www.w3.org/2000/svg">
<g clip-path="url(#clip0_2405_984)">
<path fill-rule="evenodd" clip-rule="evenodd" d="M31 2.5C31 1.11929 29.8807 0 28.5 0H8.39735C6.74049 0 5.39735 1.34315 5.39735 3L5.39734 5L5.3999 4.99696V23H7.5999V4.49998C7.59989 3.9996 7.63677 3.49608 7.82583 3.13249C7.90752 2.97541 8.0104 2.86064 8.15262 2.77735C8.29863 2.69185 8.55416 2.6 8.9999 2.6H22.9001V28C22.9001 28.5039 22.8678 29.0333 22.6922 29.4181C22.6146 29.5879 22.5254 29.6909 22.4267 29.7567C22.3314 29.8202 22.1517 29.9 21.805 29.9H20V26H0V32H6.0001V32.1H21.805C22.5119 32.1 23.1334 31.9298 23.6473 31.587C24.1578 31.2466 24.4856 30.7871 24.6934 30.3319C25.0885 29.4667 25.1001 28.4961 25.1001 28L25.1001 5H31V2.5Z" fill="#338ECC"/>
</g>
<defs>
<clipPath id="clip0_2405_984">
<rect width="32" height="32" fill="white"/>
</clipPath>
</defs>
</svg>
