<svg width="32" height="32" viewBox="0 0 32 32" fill="none" xmlns="http://www.w3.org/2000/svg">
<path fill-rule="evenodd" clip-rule="evenodd" d="M2 3.2C2 3.08954 2.08954 3 2.2 3H12.8C12.9105 3 13 3.08954 13 3.2V6.8C13 6.91046 12.9105 7 12.8 7H2.2C2.08954 7 2 6.91046 2 6.8V3.2ZM6.33333 24L2.86667 28H26.8C26.9105 28 27 27.9105 27 27.8V24.2C27 24.0895 26.9105 24 26.8 24H6.33333ZM8.06667 21H21.8C21.9105 21 22 20.9105 22 20.8V17.2C22 17.0895 21.9105 17 21.8 17H4.6L8.06667 21ZM2.2 10C2.08954 10 2 10.0895 2 10.2V13.8C2 13.9105 2.08954 14 2.2 14H29.8C29.9105 14 30 13.9105 30 13.8V10.2C30 10.0895 29.9105 10 29.8 10H2.2Z" fill="#338ECC"/>
<path d="M2 17V26L6 21.5L2 17Z" fill="#4FA843"/>
</svg>
