<svg width="24" height="24" viewBox="0 0 24 24" fill="none" xmlns="http://www.w3.org/2000/svg">
<path fill-rule="evenodd" clip-rule="evenodd" d="M1 1.2C1 1.08954 1.08954 1 1.2 1H9.8C9.91046 1 10 1.08954 10 1.2V3.8C10 3.91046 9.91046 4 9.8 4H1.2C1.08954 4 1 3.91046 1 3.8V1.2ZM7 19L4 22H20.8C20.9105 22 21 21.9105 21 21.8V19.2C21 19.0895 20.9105 19 20.8 19H7ZM1.2 7C1.08954 7 1 7.08954 1 7.2V9.8C1 9.91046 1.08954 10 1.2 10H22.8C22.9105 10 23 9.91046 23 9.8V7.2C23 7.08954 22.9105 7 22.8 7H1.2ZM4 13L7 16H16.8C16.9105 16 17 15.9105 17 15.8V13.2C17 13.0895 16.9105 13 16.8 13H4Z" fill="#338ECC"/>
<path d="M1 13V22L5 17.5L1 13Z" fill="#4FA843"/>
</svg>
