<svg width="32" height="32" viewBox="0 0 32 32" fill="none" xmlns="http://www.w3.org/2000/svg">
<path fill-rule="evenodd" clip-rule="evenodd" d="M8 13C5.79086 13 4 14.7909 4 17V27C4 29.2091 5.79086 31 8 31H24C26.2091 31 28 29.2091 28 27V17C28 14.7909 26.2091 13 24 13H8ZM18.5 20.5C18.5 21.5252 17.883 22.4062 17 22.792V25C17 25.5523 16.5523 26 16 26C15.4477 26 15 25.5523 15 25V22.792C14.117 22.4062 13.5 21.5252 13.5 20.5C13.5 19.1193 14.6193 18 16 18C17.3807 18 18.5 19.1193 18.5 20.5Z" fill="#338ECC"/>
<path d="M8 17H24V9C24 5.68629 21.3137 3 18 3H14C10.6863 3 8 5.68629 8 9V10" stroke="#338ECC" stroke-width="2"/>
</svg>
