<svg width="32" height="32" viewBox="0 0 32 32" fill="none" xmlns="http://www.w3.org/2000/svg">
<path fill-rule="evenodd" clip-rule="evenodd" d="M15.5 1C10.8056 1 7 4.80558 7 9.5V12.126C5.27477 12.5701 4 14.1362 4 16V27C4 29.2091 5.79086 31 8 31H24C26.2091 31 28 29.2091 28 27V16C28 14.1362 26.7252 12.5701 25 12.126V10C25 5.02944 20.9706 1 16 1H15.5ZM22 12V10C22 6.68629 19.3137 4 16 4H15.5C12.4624 4 10 6.46243 10 9.5V12H22ZM17 22.792C17.883 22.4062 18.5 21.5252 18.5 20.5C18.5 19.1193 17.3807 18 16 18C14.6193 18 13.5 19.1193 13.5 20.5C13.5 21.5252 14.117 22.4062 15 22.792V25C15 25.5523 15.4477 26 16 26C16.5523 26 17 25.5523 17 25V22.792Z" fill="#338ECC"/>
</svg>
