<svg width="16" height="16" viewBox="0 0 16 16" fill="none" xmlns="http://www.w3.org/2000/svg">
<path fill-rule="evenodd" clip-rule="evenodd" d="M8 1C5.92893 1 4.25 2.67893 4.25 4.75V4.98077H5.75V4.75C5.75 3.50736 6.75736 2.5 8 2.5C9.24264 2.5 10.25 3.50736 10.25 4.75V6H4C2.89543 6 2 6.89543 2 8V13C2 14.1046 2.89543 15 4 15H12C13.1046 15 14 14.1046 14 13V8C14 6.89543 13.1046 6 12 6H11.75V4.75C11.75 2.67893 10.0711 1 8 1ZM8.5 10.8662C8.7989 10.6933 9 10.3701 9 10C9 9.44772 8.55228 9 8 9C7.44772 9 7 9.44772 7 10C7 10.3701 7.2011 10.6933 7.5 10.8662V12C7.5 12.2761 7.72386 12.5 8 12.5C8.27614 12.5 8.5 12.2761 8.5 12V10.8662Z" fill="#338ECC"/>
</svg>
