<svg width="16" height="16" viewBox="0 0 16 16" fill="none" xmlns="http://www.w3.org/2000/svg">
<path fill-rule="evenodd" clip-rule="evenodd" d="M8 1C6.067 1 4.5 2.567 4.5 4.5H5.5C5.5 3.11929 6.61929 2 8 2C9.38071 2 10.5 3.11929 10.5 4.5V6H5C3.34315 6 2 7.34315 2 9V12C2 13.6569 3.34315 15 5 15H11C12.6569 15 14 13.6569 14 12V9C14 7.5135 12.9189 6.27952 11.5 6.04148V4.5C11.5 2.567 9.933 1 8 1ZM8.5 10.8662C8.7989 10.6933 9 10.3701 9 10C9 9.44772 8.55228 9 8 9C7.44772 9 7 9.44772 7 10C7 10.3701 7.2011 10.6933 7.5 10.8662V12.5C7.5 12.7761 7.72386 13 8 13C8.27614 13 8.5 12.7761 8.5 12.5V10.8662Z" fill="#338ECC"/>
</svg>
