<svg width="32" height="32" viewBox="0 0 32 32" fill="none" xmlns="http://www.w3.org/2000/svg">
<path d="M26.08 4C26.6114 4 27.0905 4.21472 27.437 4.56128C27.7853 4.90956 28 5.39065 28 5.92V26.08C28 26.6093 27.7853 27.0904 27.437 27.4387C27.0905 27.7853 26.6114 28 26.08 28H5.92C5.38856 28 4.90952 27.7853 4.56296 27.4387C4.21468 27.0904 4 26.6093 4 26.08V5.92C4 5.39065 4.21468 4.90956 4.56296 4.56128C4.90952 4.21472 5.38856 4 5.92 4H26.08Z" stroke="white" stroke-width="2"/>
<circle cx="16.4445" cy="12.1758" r="4.17582" fill="white"/>
<path d="M16.4444 24.923H24.8889C24.8889 20.9653 21.5182 18.984 16.4444 18.984C11.3707 18.984 8 20.9653 8 24.923H16.4444Z" fill="white"/>
</svg>
