<svg width="24" height="24" viewBox="0 0 24 24" fill="none" xmlns="http://www.w3.org/2000/svg">
<path d="M22.08 1C22.336 1 22.5635 1.10198 22.7299 1.26839C22.8981 1.43654 23 1.66616 23 1.92V22.08C23 22.3338 22.8981 22.5635 22.7299 22.7316C22.5635 22.898 22.336 23 22.08 23H1.92C1.66403 23 1.43647 22.898 1.27006 22.7316C1.10191 22.5635 1 22.3338 1 22.08V1.92C1 1.66616 1.10191 1.43654 1.27006 1.26839C1.43647 1.10198 1.66403 1 1.92 1H22.08Z" stroke="white" stroke-width="2"/>
<circle cx="12.4445" cy="8.17583" r="4.17582" fill="white"/>
<path d="M12.4444 20.923H20.8889C20.8889 16.9653 17.5182 14.984 12.4444 14.984C7.37071 14.984 4 16.9653 4 20.923H12.4444Z" fill="white"/>
</svg>
