<svg width="16" height="16" viewBox="0 0 16 16" fill="none" xmlns="http://www.w3.org/2000/svg">
<path fill-rule="evenodd" clip-rule="evenodd" d="M2 2C1.72386 2 1.5 2.22386 1.5 2.5V13.5C1.5 13.7761 1.72386 14 2 14H14C14.2761 14 14.5 13.7761 14.5 13.5V2.5C14.5 2.22386 14.2761 2 14 2H2ZM1 0.5C0.447715 0.5 0 0.947715 0 1.5V14.5C0 15.0523 0.447715 15.5 1 15.5H15C15.5523 15.5 16 15.0523 16 14.5V1.5C16 0.947715 15.5523 0.5 15 0.5H1ZM5 4.5H13V5.5H5V4.5ZM13 10.5H5V11.5H13V10.5ZM3 4.5H4V5.5H3V4.5ZM4 10.5H3V11.5H4V10.5ZM3 6.5H4V7.5H3V6.5ZM4 8.5H3V9.5H4V8.5ZM5 6.5H13V7.5H5V6.5ZM13 8.5H5V9.5H13V8.5Z" fill="#3584BD"/>
</svg>
