<?xml version="1.0" encoding="UTF-8"?>
<svg id="Layer_1" data-name="Layer 1" xmlns="http://www.w3.org/2000/svg" viewBox="0 0 32 32">
  <defs>
    <style>
      .cls-1 {
        fill: #fff;
        stroke-width: 0px;
      }
    </style>
  </defs>
  <path class="cls-1" d="M19.21,29H6.01v-9.81l6.3-2.1c.6-.2,1.25-.05,1.69.4l1.14,1.14c.36.36.53.85.47,1.35-.05.5-.33.94-.75,1.21l-1.36.86,7.97.74h0c.56,0,1.14.38,1.41.98.25.56.16,1.2-.21,1.68l-1.4,2.37c-.43.73-1.22,1.18-2.07,1.18ZM8.01,27h11.2c.14,0,.28-.08.35-.2l1.23-2.07-7.87-.73c-.35.01-1.68,0-2.1-1-.26-.63-.04-1.31.66-2.01l.17-.14,1.77-1.12-.68-.68-4.73,1.58v6.37ZM21.32,24.78s.04,0,.06,0h-.06Z"/>
  <polygon class="cls-1" points="25.01 2 13.01 2 13.01 4 18.01 4 18.01 17 20.01 17 20.01 4 25.01 4 25.01 2"/>
  <rect class="cls-1" x="25.01" y="6" width="2" height="2"/>
  <rect class="cls-1" x="22.01" y="6" width="2" height="2"/>
  <rect class="cls-1" x="22.01" y="9" width="2" height="2"/>
  <rect class="cls-1" x="22.01" y="12" width="2" height="2"/>
  <rect class="cls-1" x="22.01" y="15" width="2" height="2"/>
  <rect class="cls-1" x="22.01" y="18" width="2" height="2"/>
  <rect class="cls-1" x="28.01" y="6" width="2" height="2"/>
  <path class="cls-1" d="M6.03,30h-2.04c-1.09,0-1.98-.89-1.98-1.98v-8.14c0-1.09.89-1.98,1.98-1.98h2.04c1.09,0,1.98.89,1.98,1.98v8.14c0,1.09-.89,1.98-1.98,1.98ZM6.03,28v1-1h0,0ZM6.01,19.88l-2.02.02.02,8.12,2-.02v-8.12Z"/>
</svg>