<?xml version="1.0" encoding="UTF-8"?>
<svg id="Layer_1" data-name="Layer 1" xmlns="http://www.w3.org/2000/svg" viewBox="0 0 32 32">
  <defs>
    <style>
      .cls-1 {
        fill: #f1f2f2;
        stroke-width: 0px;
      }
    </style>
  </defs>
  <polygon class="cls-1" points="20 18 22 18 22 5 27 5 27 3 15 3 15 5 20 5 20 18"/>
  <rect class="cls-1" x="27" y="7" width="2" height="2"/>
  <rect class="cls-1" x="24" y="7" width="2" height="2"/>
  <rect class="cls-1" x="24" y="10" width="2" height="2"/>
  <rect class="cls-1" x="24" y="13" width="2" height="2"/>
  <rect class="cls-1" x="24" y="16" width="2" height="2"/>
  <rect class="cls-1" x="24" y="19" width="2" height="2"/>
  <rect class="cls-1" x="30" y="7" width="2" height="2"/>
  <path class="cls-1" d="M7.02,31c.73,0,1.37-.41,1.71-1h11.47c.85,0,1.64-.45,2.07-1.18l1.4-2.37c.37-.48.46-1.12.21-1.68-.26-.6-.88-1.01-1.42-.98l-7.97-.74,1.36-.86c.42-.27.7-.71.75-1.21.06-.5-.12-.99-.47-1.35l-1.14-1.14c-.44-.45-1.09-.6-1.69-.4l-4.74,1.58c-.36-.46-.92-.76-1.54-.76h-2.04c-1.09,0-1.98.89-1.98,1.98v8.14c0,1.09.89,1.98,1.98,1.98h2.04ZM13.73,20.05l.68.68-1.77,1.12-.17.14c-.7.7-.92,1.38-.66,2.01.42,1,1.75,1.01,2.1,1l7.87.73-1.23,2.07c-.07.12-.2.2-.35.2h-11.2v-6.37l4.73-1.58ZM7,20.88v8.12l-2,.02-.02-8.12,2.02-.02Z"/>
</svg>