<?xml version="1.0" encoding="UTF-8"?>
<svg id="Layer_1" data-name="Layer 1" xmlns="http://www.w3.org/2000/svg" viewBox="0 0 24 24">
  <defs>
    <style>
      .cls-1 {
        fill: #fff;
        stroke-width: 0px;
      }
    </style>
  </defs>
  <g>
    <path class="cls-1" d="M11.33,21.75h-6.72c-.38,0-.75-.17-1-.48-.23-.28-.36-.63-.36-1V4.39c0-.37.13-.72.35-1,.26-.31.63-.48,1.01-.48h9.73l5.08,5.8v4.28h-1.5v-3.72l-4.26-4.87H4.75v15.83s6.58,0,6.58,0v1.5Z"/>
    <path class="cls-1" d="M18.67,9.75h-4.01c-.78,0-1.41-.63-1.41-1.41V3.67h1.5v4.58h3.92v1.5Z"/>
  </g>
  <path class="cls-1" d="M18.67,21.75h-4c-1.15,0-2.08-.93-2.08-2.08v-4c0-1.15.93-2.08,2.08-2.08h3.42l2.66,2.66v3.42c0,1.15-.93,2.08-2.08,2.08ZM14.67,15.08c-.32,0-.58.26-.58.58v4c0,.32.26.58.58.58h4c.32,0,.58-.26.58-.58v-2.8l-1.78-1.78h-2.8Z"/>
  <rect class="cls-1" x="15.25" y="13.58" width="2.5" height="2.83"/>
</svg>