<?xml version="1.0" encoding="UTF-8"?>
<svg id="Layer_1" data-name="Layer 1" xmlns="http://www.w3.org/2000/svg" viewBox="0 0 32 32">
  <defs>
    <style>
      .cls-1 {
        fill: #fff;
        stroke-width: 0px;
      }
    </style>
  </defs>
  <g>
    <path class="cls-1" d="M16.01,30H5.93c-.54,0-1.05-.25-1.41-.67-.33-.38-.51-.89-.51-1.42V4.09c0-.53.18-1.03.51-1.42.36-.42.87-.67,1.41-.67h14.53l7.55,8.62v6.38h-2v-5.62l-6.45-7.38H6.02s-.01.05-.01.09v23.83s0,.07.01.09h9.99v2Z"/>
    <path class="cls-1" d="M27.01,12h-6.01c-1.1,0-1.99-.89-1.99-1.99V3h2v7.01h6s0,1.99,0,1.99Z"/>
  </g>
  <path class="cls-1" d="M27.01,30h-6c-1.65,0-3-1.35-3-3v-6c0-1.65,1.35-3,3-3h5.08l3.92,3.92v5.08c0,1.65-1.35,3-3,3ZM21.01,20c-.55,0-1,.45-1,1v6c0,.55.45,1,1,1h6c.55,0,1-.45,1-1v-4.25l-2.75-2.75h-4.25Z"/>
  <path class="cls-1" d="M26.01,22h-5v-4h5v4ZM23.01,20h1-1Z"/>
</svg>