<?xml version="1.0" encoding="UTF-8"?>
<svg id="Layer_1" data-name="Layer 1" xmlns="http://www.w3.org/2000/svg" viewBox="0 0 16 16">
  <defs>
    <style>
      .cls-1 {
        fill: #fff;
        stroke-width: 0px;
      }
    </style>
  </defs>
  <g>
    <path class="cls-1" d="M8,15H2.96c-.27,0-.53-.12-.71-.34-.16-.19-.25-.44-.25-.71V2.04c0-.26.09-.52.25-.71.18-.21.44-.34.71-.34h7.25l3.79,3.79v3.21h-1v-2.79l-3.21-3.21H2.96l.04,11.96,5,.04v1Z"/>
    <path class="cls-1" d="M13.5,5.5h-3c-.55,0-1-.45-1-1V1.5h1v3h3s0,1,0,1Z"/>
  </g>
  <g>
    <path class="cls-1" d="M13.5,15h-3c-.83,0-1.5-.67-1.5-1.5v-3c0-.83.67-1.5,1.5-1.5h2.54l1.96,1.96v2.54c0,.83-.67,1.5-1.5,1.5ZM10.5,10c-.28,0-.5.22-.5.5v3c0,.28.22.5.5.5h3c.28,0,.5-.22.5-.5v-2.13l-1.37-1.37h-2.13Z"/>
    <path class="cls-1" d="M13,11h-2v-2h2v2ZM11.8,10h.4-.4Z"/>
  </g>
</svg>