<?xml version="1.0" encoding="UTF-8"?>
<svg id="Layer_1" data-name="Layer 1" xmlns="http://www.w3.org/2000/svg" viewBox="0 0 24 24">
  <defs>
    <style>
      .cls-1 {
        fill: #fff;
        stroke-width: 0px;
      }
    </style>
  </defs>
  <path class="cls-1" d="M13.8,21.08H4.92v-6.69l4.26-1.42c.43-.14.89-.03,1.21.28l.76.76c.26.25.38.61.34.97-.04.36-.24.68-.54.87l-.7.44,5.07.47h0c.4,0,.82.28,1,.7.18.4.12.86-.15,1.2l-.93,1.58c-.3.51-.86.83-1.45.83ZM6.42,19.58h7.38c.07,0,.13-.03.16-.09l.75-1.27-5.11-.48c-.22.01-1.17,0-1.47-.72-.13-.31-.16-.82.46-1.43l.13-.1,1.09-.69-.34-.34-3.05,1.02v4.11ZM15.19,18.27s.04,0,.05,0h-.05Z"/>
  <polygon class="cls-1" points="17.67 3 9.67 3 9.67 4.33 13 4.33 13 13 14.33 13 14.33 4.33 17.67 4.33 17.67 3"/>
  <rect class="cls-1" x="17.67" y="5.67" width="1.33" height="1.33"/>
  <rect class="cls-1" x="15.67" y="5.67" width="1.33" height="1.33"/>
  <rect class="cls-1" x="15.67" y="7.67" width="1.33" height="1.33"/>
  <rect class="cls-1" x="15.67" y="9.67" width="1.33" height="1.33"/>
  <rect class="cls-1" x="15.67" y="11.67" width="1.33" height="1.33"/>
  <rect class="cls-1" x="15.67" y="13.67" width="1.33" height="1.33"/>
  <rect class="cls-1" x="19.67" y="5.67" width="1.33" height="1.33"/>
  <path class="cls-1" d="M4.69,21.75h-.71c-.95,0-1.73-.78-1.73-1.73v-4.77c0-.95.78-1.73,1.73-1.73h.71c.95,0,1.73.78,1.73,1.73v4.77c0,.95-.78,1.73-1.73,1.73ZM3.98,15.02c-.13,0-.23.1-.23.23v4.77c0,.13.1.23.23.23h.71c.13,0,.23-.1.23-.23v-4.77c0-.13-.1-.23-.23-.23h-.71Z"/>
</svg>