<?xml version="1.0" encoding="UTF-8"?>
<svg id="Layer_1" data-name="Layer 1" xmlns="http://www.w3.org/2000/svg" viewBox="0 0 24 24">
  <defs>
    <style>
      .cls-1 {
        fill: #fff;
        stroke-width: 0px;
      }
    </style>
  </defs>
  <path class="cls-1" d="M12.33,21.41h-6.72c-.38,0-.75-.17-1-.48-.23-.28-.36-.63-.36-1V4.05c0-.37.13-.72.35-1,.26-.31.63-.48,1.01-.48h9.73l5.08,5.8v4.28h-1.5v-3.72l-4.26-4.87H5.75v15.83s6.58,0,6.58,0v1.5Z"/>
  <polygon class="cls-1" points="14.33 17.33 11.67 15.33 14.33 13.33 14.33 17.33"/>
  <path class="cls-1" d="M18.33,21.33h-4v-1.33h4c1.1,0,2-.9,2-2s-.9-2-2-2h-4v-1.33h4c1.84,0,3.33,1.5,3.33,3.33s-1.5,3.33-3.33,3.33Z"/>
  <path class="cls-1" d="M19.67,9.41h-4.01c-.78,0-1.41-.63-1.41-1.41V3.33h1.5v4.58h3.92v1.5Z"/>
</svg>