<svg width="24" height="24" viewBox="0 0 24 24" fill="none" xmlns="http://www.w3.org/2000/svg">
<path d="M22.08 1C22.336 1 22.5635 1.10198 22.7299 1.26839C22.8981 1.43654 23 1.66616 23 1.92V22.08C23 22.3338 22.8981 22.5635 22.7299 22.7316C22.5635 22.898 22.336 23 22.08 23H1.92C1.66403 23 1.43647 22.898 1.27006 22.7316C1.10191 22.5635 1 22.3338 1 22.08V1.92C1 1.66616 1.10191 1.43654 1.27006 1.26839C1.43647 1.10198 1.66403 1 1.92 1H22.08Z" stroke="white" stroke-width="2"/>
<path d="M13.5017 6C13.657 6 13.7941 6.11556 13.8215 6.25778L14.0591 7.90222C14.4521 8.06222 14.8085 8.26667 15.1375 8.51556L16.7277 7.89333C16.8739 7.84 17.0384 7.89333 17.1206 8.02667L18.4001 10.1778C18.4823 10.3111 18.4458 10.48 18.327 10.5778L16.9744 11.6089C17.0018 11.8133 17.0201 12.0178 17.0201 12.2222C17.0201 12.4267 17.0018 12.6311 16.9744 12.8267L18.327 13.8578C18.4458 13.9556 18.4823 14.1244 18.4001 14.2578L17.1206 16.4089C17.0384 16.5422 16.8739 16.5956 16.7277 16.5422L15.1375 15.92C14.8085 16.1689 14.443 16.3733 14.0591 16.5333L13.8215 18.1778C13.7941 18.3289 13.657 18.4444 13.5017 18.4444H10.9428C10.7874 18.4444 10.6503 18.3289 10.6229 18.1867L10.3853 16.5422C9.99234 16.3822 9.63593 16.1778 9.30693 15.9289L7.71677 16.5511C7.57055 16.6044 7.40605 16.5511 7.3238 16.4178L6.04436 14.2667C5.96211 14.1333 5.99866 13.9644 6.11747 13.8667L7.47002 12.8356C7.4426 12.6311 7.42432 12.4267 7.42432 12.2222C7.42432 12.0178 7.4426 11.8133 7.47002 11.6178L6.11747 10.5867C5.99866 10.4889 5.96211 10.32 6.04436 10.1867L7.3238 8.03556C7.40605 7.90222 7.57055 7.84889 7.71677 7.90222L9.30693 8.52444C9.63593 8.27556 10.0015 8.07111 10.3853 7.91111L10.6229 6.26667C10.6503 6.11556 10.7874 6 10.9428 6H13.5017ZM12.2222 10.4444C11.2444 10.4444 10.4444 11.2444 10.4444 12.2222C10.4444 13.2 11.2444 14 12.2222 14C13.2 14 14 13.2 14 12.2222C14 11.2444 13.2 10.4444 12.2222 10.4444Z" fill="white"/>
</svg>
