<svg width="32" height="32" viewBox="0 0 32 32" fill="none" xmlns="http://www.w3.org/2000/svg">
<path d="M26.08 4C26.6114 4 27.0905 4.21472 27.437 4.56128C27.7853 4.90956 28 5.39065 28 5.92V26.08C28 26.6093 27.7853 27.0904 27.437 27.4387C27.0905 27.7853 26.6114 28 26.08 28H5.92C5.38856 28 4.90952 27.7853 4.56296 27.4387C4.21468 27.0904 4 26.6093 4 26.08V5.92C4 5.39065 4.21468 4.90956 4.56296 4.56128C4.90952 4.21472 5.38856 4 5.92 4H26.08Z" stroke="white" stroke-width="2"/>
<path d="M17.5017 10C17.657 10 17.7941 10.1156 17.8215 10.2578L18.0591 11.9022C18.4521 12.0622 18.8085 12.2667 19.1375 12.5156L20.7277 11.8933C20.8739 11.84 21.0384 11.8933 21.1206 12.0267L22.4001 14.1778C22.4823 14.3111 22.4458 14.48 22.327 14.5778L20.9744 15.6089C21.0018 15.8133 21.0201 16.0178 21.0201 16.2222C21.0201 16.4267 21.0018 16.6311 20.9744 16.8267L22.327 17.8578C22.4458 17.9556 22.4823 18.1244 22.4001 18.2578L21.1206 20.4089C21.0384 20.5422 20.8739 20.5956 20.7277 20.5422L19.1375 19.92C18.8085 20.1689 18.443 20.3733 18.0591 20.5333L17.8215 22.1778C17.7941 22.3289 17.657 22.4444 17.5017 22.4444H14.9428C14.7874 22.4444 14.6503 22.3289 14.6229 22.1867L14.3853 20.5422C13.9923 20.3822 13.6359 20.1778 13.3069 19.9289L11.7168 20.5511C11.5705 20.6044 11.406 20.5511 11.3238 20.4178L10.0444 18.2667C9.96211 18.1333 9.99866 17.9644 10.1175 17.8667L11.47 16.8356C11.4426 16.6311 11.4243 16.4267 11.4243 16.2222C11.4243 16.0178 11.4426 15.8133 11.47 15.6178L10.1175 14.5867C9.99866 14.4889 9.96211 14.32 10.0444 14.1867L11.3238 12.0356C11.406 11.9022 11.5705 11.8489 11.7168 11.9022L13.3069 12.5244C13.6359 12.2756 14.0015 12.0711 14.3853 11.9111L14.6229 10.2667C14.6503 10.1156 14.7874 10 14.9428 10H17.5017ZM16.2222 14.4444C15.2444 14.4444 14.4444 15.2444 14.4444 16.2222C14.4444 17.2 15.2444 18 16.2222 18C17.2 18 18 17.2 18 16.2222C18 15.2444 17.2 14.4444 16.2222 14.4444Z" fill="white"/>
</svg>
