<svg
    xmlns="http://www.w3.org/2000/svg"
    width="20"
    height="20"
    viewBox="0 0 20 20"
    version="1.1"
>
    <g stroke="none" stroke-width="1" fill="none" fill-rule="evenodd">
        <g class="bg-fill" fill="#CDCDD7">
            <path d="M6.650209873104134,9.983621513376903 L1.6801998731041485,14.953630113376903 C0.7573098731040918,15.876522313376903 0.7586698731040656,17.370098613376907 1.6807098731042218,18.2921466133769 C2.6091898731040164,19.220622913376904 4.097469873104049,19.214425013376903 5.0192298731039955,18.292661213376903 L9.989239873103998,13.322652713376904 L14.956519873104071,18.2899328133769 C15.879409873104123,19.2128250133769 17.372479873104112,19.211972213376903 18.29390987310399,18.290548313376902 C19.221749873104045,17.3627005133769 19.215049873104135,15.874925713376904 18.293289873104186,14.953162013376904 L13.326009873104113,9.985881813376906 L18.29441987310406,5.017471513376905 C19.217309873104114,4.094579313376908 19.215949873104137,2.6010030133769066 18.29390987310399,1.678955013376907 C17.365429873104176,0.7504787133768972 15.877149873104145,0.7566766133769067 14.955389873104195,1.6784404133769075 L9.986979873104021,6.646850713376903 L5.018099873104122,1.677972213376908 C4.095209873104068,0.755080013376906 2.602139873104079,0.7559329133769032 1.6807098731042218,1.677356713376905 C0.7528698731041582,2.605204613376908 0.7595698731040624,4.092979313376908 1.6813298731040214,5.014743113376902 L6.650209873104134,9.983621513376903 z"/>
        </g>
    </g>
</svg>
