<svg xmlns="http://www.w3.org/2000/svg" width="20" height="20" viewBox="0 0 20 20">
    <path fill="#F0840E" d="M10 6c2.21 0 4 1.79 4 4s-1.79 4-4 4-4-1.79-4-4 1.79-4 4-4zm0 2c-1.105 0-2 .895-2 2s.895 2 2 2 2-.895 2-2-.895-2-2-2zM8 20c-.25 0-.46-.18-.5-.42l-.37-2.65c-.63-.25-1.17-.59-1.69-.99l-2.49 1.01c-.22.08-.49 0-.61-.22l-2-3.46c-.13-.22-.07-.49.12-.64l2.11-1.66L2.5 10l.07-1L.46 7.37c-.19-.15-.25-.42-.12-.64l2-3.46c.12-.22.39-.31.61-.22l2.49 1c.52-.39 1.06-.73 1.69-.98L7.5.42C7.54.18 7.75 0 8 0h4c.25 0 .46.18.5.42l.37 2.65c.63.25 1.17.59 1.69.98l2.49-1c.22-.09.49 0 .61.22l2 3.46c.13.22.07.49-.12.64L17.43 9l.07 1-.07 1 2.11 1.63c.19.15.25.42.12.64l-2 3.46c-.12.22-.39.31-.61.22l-2.49-1c-.52.39-1.06.73-1.69.98l-.37 2.65c-.04.24-.25.42-.5.42H8zM9.25 2l-.37 2.61c-1.2.25-2.26.89-3.03 1.78L3.44 5.35l-.75 1.3L4.8 8.2c-.4 1.17-.4 2.44 0 3.6l-2.12 1.56.75 1.3 2.43-1.04c.77.88 1.82 1.52 3.01 1.76L9.24 18h1.52l.37-2.61c1.19-.25 2.24-.89 3.01-1.77l2.43 1.04.75-1.3-2.12-1.55c.4-1.17.4-2.44 0-3.61l2.11-1.55-.75-1.3-2.41 1.04c-.77-.89-1.83-1.53-3.03-1.77L10.75 2h-1.5z"/>
</svg>
