<svg xmlns="http://www.w3.org/2000/svg" width="22" height="15" viewBox="0 0 22 15">
    <path fill="#F0840E" d="M11 4.773c1.582 0 2.864 1.282 2.864 2.863 0 1.582-1.282 2.864-2.864 2.864-1.582 0-2.864-1.282-2.864-2.864 0-1.581 1.282-2.863 2.864-2.863zm0-4.296c4.64 0 8.8 2.864 10.5 7.16-2.281 5.803-8.83 8.648-14.633 6.366C3.955 12.858 1.645 10.557.5 7.636 2.2 3.341 6.36.477 11 .477zm-8.42 7.16c2.273 4.648 7.895 6.576 12.544 4.295 1.87-.917 3.379-2.425 4.295-4.296-2.272-4.648-7.894-6.576-12.543-4.295-1.87.916-3.379 2.424-4.295 4.295z"/>
</svg>
