<svg width="28" height="28" viewBox="0 0 28 28" fill="none"
  xmlns="http://www.w3.org/2000/svg">
  <g clip-path="url(#clip0)">
    <path fill-rule="evenodd" clip-rule="evenodd" d="M0.5 3.5C0.5 1.84469 1.83974 0.5 3.5 0.5H24.5C26.1603 0.5 27.5 1.84469 27.5 3.5V24.5C27.5 26.1553 26.1603 27.5 24.5 27.5H3.5C1.83974 27.5 0.5 26.1553 0.5 24.5V3.5ZM3.5 2.5C2.94626 2.5 2.5 2.94731 2.5 3.5V24.5C2.5 25.0527 2.94626 25.5 3.5 25.5H24.5C25.0537 25.5 25.5 25.0527 25.5 24.5V3.5C25.5 2.94731 25.0537 2.5 24.5 2.5H3.5ZM16.2923 12.193C16.5813 11.7224 17.1971 11.5751 17.6677 11.8641L18.5184 12.3865C17.8472 10.4168 15.9813 9 13.7845 9C11.023 9 8.78445 11.2386 8.78445 14C8.78445 16.7614 11.023 19 13.7845 19C15.2652 19 16.5946 18.3576 17.5115 17.3331C17.8799 16.9216 18.5121 16.8865 18.9236 17.2549C19.3351 17.6232 19.3701 18.2554 19.0018 18.6669C17.7215 20.0974 15.8577 21 13.7845 21C9.91846 21 6.78445 17.866 6.78445 14C6.78445 10.134 9.91846 7 13.7845 7C16.9153 7 19.5661 9.05542 20.461 11.8905L20.9607 11.0767C21.2497 10.6061 21.8655 10.4588 22.3361 10.7478C22.8068 11.0368 22.954 11.6526 22.665 12.1233L20.3657 15.8678L16.6212 13.5684C16.1505 13.2794 16.0033 12.6636 16.2923 12.193Z" fill="black"/>
  </g>
  <defs>
    <clipPath id="clip0">
      <rect width="28" height="28" fill="white"/>
    </clipPath>
  </defs>
</svg>
