<svg id="Layer_1" data-name="Layer 1" xmlns="http://www.w3.org/2000/svg" viewBox="0 0 32 32"><path d="M9.5,6a2.47,2.47,0,0,0-1.77.71,2.38,2.38,0,0,0,0,3.43,2.46,2.46,0,0,0,1.77.7,2.46,2.46,0,0,0,1.77-.7,2.38,2.38,0,0,0,0-3.43A2.47,2.47,0,0,0,9.5,6Zm-6-4h25a1.49,1.49,0,0,1,1.07.42,1.35,1.35,0,0,1,.43,1V13.56a1.35,1.35,0,0,1-.43,1A1.49,1.49,0,0,1,28.5,15H3.5a1.49,1.49,0,0,1-1.07-.42,1.35,1.35,0,0,1-.43-1V3.44a1.35,1.35,0,0,1,.43-1A1.49,1.49,0,0,1,3.5,2ZM5,5v7H27V5ZM5,5" fill="#ee830c"/><path d="M7.73,21.71a2.38,2.38,0,0,0,0,3.43,2.46,2.46,0,0,0,1.77.7,2.46,2.46,0,0,0,1.77-.7,2.38,2.38,0,0,0,0-3.43,2.56,2.56,0,0,0-3.54,0Z" fill="#ee830c"/><path d="M16.59,27H5V20H17.08a8,8,0,0,1,3.05-3H3.5a1.49,1.49,0,0,0-1.07.42,1.35,1.35,0,0,0-.43,1V28.56a1.35,1.35,0,0,0,.43,1A1.49,1.49,0,0,0,3.5,30H18.72A8,8,0,0,1,16.59,27Z" fill="#ee830c"/><path d="M23.08,30l-.21-1.41a6.19,6.19,0,0,1-1.24-.52,4.67,4.67,0,0,1-1.06-.77l-1.18.25a1.1,1.1,0,0,1-1.21-.52l0,0a1.12,1.12,0,0,1,.2-1.4l1-1a5.82,5.82,0,0,1,0-1.8l-1-1a1.12,1.12,0,0,1-.2-1.4l0,0A1.13,1.13,0,0,1,19.39,20l1.18.26a4.41,4.41,0,0,1,1.06-.78,6.83,6.83,0,0,1,1.24-.52l.21-1.41a1.13,1.13,0,0,1,1.11-1h0a1.13,1.13,0,0,1,1.12,1l.21,1.41a6.83,6.83,0,0,1,1.24.52,4.62,4.62,0,0,1,1.06.78L29,20a1.14,1.14,0,0,1,1.21.52l0,0a1.12,1.12,0,0,1-.2,1.4l-1,1a5.82,5.82,0,0,1,0,1.8l1,1a1.12,1.12,0,0,1,.2,1.4l0,0a1.11,1.11,0,0,1-1.21.52l-1.18-.25a4.91,4.91,0,0,1-1.06.77,6.19,6.19,0,0,1-1.24.52L25.31,30a1.13,1.13,0,0,1-1.12,1h0A1.13,1.13,0,0,1,23.08,30Zm1.11-3.39a2.71,2.71,0,0,0,2.88-2.87,2.84,2.84,0,0,0-.79-2.08,2.81,2.81,0,0,0-2.09-.79,2.87,2.87,0,1,0,0,5.74Z" fill="#ee830c"/></svg>