<svg width="16" height="16" viewBox="0 0 16 16" fill="none" xmlns="http://www.w3.org/2000/svg">
<path fill-rule="evenodd" clip-rule="evenodd" d="M3.56122 8.78004C3.55414 8.57763 3.57381 8.34794 3.61937 8.09289C3.64212 7.89043 3.49618 7.59985 3.33133 7.27164C3.20112 7.01239 3.05912 6.72967 2.97916 6.44835C2.79417 5.79727 3.20332 5.61745 3.46855 5.61745C3.52363 5.61745 3.59996 5.62218 3.69029 5.62778C3.94379 5.64348 4.30753 5.66601 4.62128 5.61003C5.12879 4.84851 5.86599 4.10527 6.97333 3.43572C8.90088 2.27005 10.5782 3.81226 10.5782 3.81226C9.46672 3.33788 8.25842 3.29197 7.06255 3.96584C5.86668 4.6397 4.99575 6.09701 4.40661 7.81437C3.8173 9.53139 5.13742 10.1785 5.13742 10.1785C4.04955 10.1561 3.82397 9.66852 3.70182 9.40446C3.69764 9.39542 3.69358 9.38664 3.68961 9.37815C3.67192 9.41178 3.63776 9.50294 3.5881 9.63545C3.38765 10.1704 2.93473 11.379 2.29425 12.1959C2.18752 12.332 1.51228 11.4801 1.7506 11.3071C2.56716 10.7141 3.17842 9.51943 3.44298 9.00233C3.49756 8.89565 3.53739 8.81781 3.56122 8.78004ZM10.0001 4.97689C10.6464 4.7246 11.566 4.63418 11.9239 4.76826C12.1454 4.85144 12.1308 5.18311 12.0039 5.55239C11.8253 6.07181 11.4248 6.66543 11.1459 6.74654C10.5606 6.91703 9.1083 5.99088 9.34541 5.45748C9.43186 5.263 9.68329 5.10062 10.0001 4.97689ZM8.05808 5.01606C8.16766 5.14014 8.51054 5.18656 8.6762 5.20761C8.40217 5.25852 8.04203 5.3693 7.63581 5.58311C7.4296 5.69148 7.15177 5.91702 6.85461 6.19399C6.9497 6.01694 6.97334 5.77983 6.88015 5.58311C6.67238 5.14549 6.83339 4.79363 7.13555 4.72719C7.42097 4.66455 7.81338 4.73892 8.05808 5.01606ZM11.1385 10.7316C11.3459 10.2724 11.6424 9.2646 11.6424 9.2646C11.1906 9.76832 10.675 10.1611 9.70779 10.0945C9.70779 10.1537 9.74558 11.1985 9.96785 11.2874C10.1254 11.3504 10.342 11.3124 10.518 11.2534C10.6538 11.0189 10.8134 10.6615 10.9163 10.1611C10.9163 10.1611 10.9946 10.2491 10.9163 10.5835C10.9086 10.6162 10.9013 10.6473 10.8944 10.677C10.8424 10.8995 10.8095 11.0407 10.7656 11.1516C10.7822 11.1456 10.7976 11.141 10.8122 11.1365C10.9143 11.1054 10.9785 11.0858 11.1385 10.7316ZM6.95435 8.4394C6.93037 8.35122 6.90776 8.26028 6.88723 8.16329C7.34487 8.62991 8.94523 9.79196 10.081 9.67893C11.2165 9.56573 11.3459 7.43576 11.3459 7.43576C11.6579 7.94276 11.4397 8.86857 11.3815 9.08824C11.4367 9.04424 11.5227 8.97901 11.6573 8.88064C12.2352 8.45821 12.5282 7.28011 12.5282 7.28011L12.5216 7.39469C12.5265 7.35051 12.5282 7.32463 12.5282 7.32463C12.5282 7.32463 12.5296 7.33153 12.5315 7.34413C12.5442 7.42748 12.5884 7.77364 12.5284 8.23612C12.4283 9.00524 12.2697 9.53846 11.8053 10.3759C11.4184 11.0738 10.9163 12.117 12.0532 11.916C12.0532 11.916 10.9163 13.0816 8.70399 12.9954C5.09394 12.5866 6.27368 11.5462 6.90863 10.9863C7.04484 10.8662 7.15598 10.7682 7.18939 10.7033C7.44219 10.2116 7.27256 9.42733 7.11346 8.91637C7.06549 8.79885 7.02062 8.67201 6.98007 8.53293C6.95073 8.45769 6.93175 8.41386 6.93175 8.41386L6.95435 8.4394Z" fill="#EE8A18"/>
<path fill-rule="evenodd" clip-rule="evenodd" d="M8 14.5C11.5899 14.5 14.5 11.5899 14.5 8C14.5 4.41015 11.5899 1.5 8 1.5C4.41015 1.5 1.5 4.41015 1.5 8C1.5 11.5899 4.41015 14.5 8 14.5ZM8 16C12.4183 16 16 12.4183 16 8C16 3.58172 12.4183 0 8 0C3.58172 0 0 3.58172 0 8C0 12.4183 3.58172 16 8 16Z" fill="#EE8A18"/>
</svg>
