<svg width="24" height="24" viewBox="0 0 24 24" fill="none" xmlns="http://www.w3.org/2000/svg">
  <path
    d="M22.08 1C22.336 1 22.5635 1.10198 22.7299 1.26839C22.8981 1.43654 23 1.66616 23 1.92V22.08C23 22.3338 22.8981 22.5635 22.7299 22.7316C22.5635 22.898 22.336 23 22.08 23H1.92C1.66403 23 1.43647 22.898 1.27006 22.7316C1.10191 22.5635 1 22.3338 1 22.08V1.92C1 1.66616 1.10191 1.43654 1.27006 1.26839C1.43647 1.10198 1.66403 1 1.92 1H22.08Z"
    stroke="red" stroke-width="2" />
  <path
    d="M5.03062 9.46453C5.03062 8.67153 5.21437 8.06511 5.58953 7.63751C5.96469 7.20991 6.51593 7 7.26625 7C8.01656 7 8.56781 7.20991 8.94296 7.63751C9.31812 8.06511 9.50187 8.67153 9.50187 9.46453V9.77551H8.07015V9.37123C8.07015 9.0136 8.00124 8.76482 7.87109 8.62488C7.74093 8.47716 7.54953 8.40719 7.31218 8.40719C7.07484 8.40719 6.89109 8.47716 6.75328 8.62488C6.62312 8.77259 6.55421 9.02138 6.55421 9.37123C6.55421 9.70554 6.63078 10.001 6.77625 10.2575C6.92171 10.5141 7.10546 10.7551 7.32749 10.9883C7.54953 11.2216 7.78687 11.447 8.03953 11.6725C8.29218 11.898 8.52952 12.1545 8.75156 12.4189C8.97359 12.691 9.15734 12.9942 9.3028 13.344C9.44827 13.6861 9.52484 14.0982 9.52484 14.5646C9.52484 15.3576 9.33343 15.964 8.95062 16.3916C8.56781 16.8192 8.0089 17.0292 7.26625 17.0292C6.52359 17.0292 5.95703 16.8192 5.57422 16.3916C5.19141 15.964 5 15.3576 5 14.5646V13.966H6.43172V14.6657C6.43172 15.0233 6.50062 15.2643 6.64609 15.4043C6.79156 15.5442 6.98296 15.6142 7.22031 15.6142C7.45765 15.6142 7.64906 15.5442 7.79453 15.4043C7.93999 15.2643 8.0089 15.0155 8.0089 14.6657C8.0089 14.3314 7.93234 14.036 7.78687 13.7794C7.6414 13.5228 7.45765 13.2818 7.23562 13.0486C7.01359 12.8154 6.77625 12.5899 6.52359 12.3644C6.27093 12.139 6.03359 11.8902 5.81156 11.6181C5.58953 11.346 5.40578 11.0428 5.26031 10.6929C5.11484 10.3431 5.03828 9.93877 5.03828 9.4723L5.03062 9.46453Z"
    fill="red" />
  <path
    d="M10.2522 9.46453C10.2522 8.67153 10.4512 8.06511 10.8417 7.63751C11.2398 7.20991 11.8064 7 12.549 7C13.2917 7 13.8659 7.20991 14.2564 7.63751C14.6545 8.06511 14.8459 8.67153 14.8459 9.46453V14.5569C14.8459 15.1088 14.7464 15.5675 14.555 15.9252C14.5932 16.0185 14.6392 16.0807 14.7004 16.0962C14.7617 16.1195 14.8536 16.1273 14.9837 16.1273H15.1215V17.4956H14.9148C14.5703 17.4956 14.2947 17.4334 14.0803 17.3168C13.8659 17.2002 13.7051 17.0369 13.6056 16.8192C13.4525 16.8737 13.284 16.9203 13.1079 16.9514C12.9318 16.9825 12.7481 16.9981 12.5414 16.9981C11.7987 16.9981 11.2245 16.7881 10.834 16.3605C10.4359 15.9329 10.2445 15.3265 10.2445 14.5335V9.4412L10.2522 9.46453ZM11.7681 14.6579C11.7681 15.0155 11.837 15.2643 11.9825 15.4043C12.1279 15.552 12.3193 15.622 12.5567 15.622C12.794 15.622 12.9854 15.552 13.1309 15.4043C13.2764 15.2566 13.3453 15.0078 13.3453 14.6579V9.37123C13.3453 9.0136 13.2764 8.76482 13.1309 8.62488C12.9854 8.47716 12.794 8.40719 12.5567 8.40719C12.3193 8.40719 12.1279 8.47716 11.9825 8.62488C11.837 8.77259 11.7681 9.02138 11.7681 9.37123V14.6579Z"
    fill="red" />
  <path d="M15.8335 7.11658H17.3494V15.5131H19.8454V16.9125H15.8335V7.11658V7.11658Z" fill="red" />
</svg>