<svg width="32" height="32" viewBox="0 0 32 32" fill="none" xmlns="http://www.w3.org/2000/svg">
<path d="M26.08 4C26.6114 4 27.0905 4.21472 27.437 4.56128C27.7853 4.90956 28 5.39065 28 5.92V26.08C28 26.6093 27.7853 27.0904 27.437 27.4387C27.0905 27.7853 26.6114 28 26.08 28H5.92C5.38856 28 4.90952 27.7853 4.56296 27.4387C4.21468 27.0904 4 26.6093 4 26.08V5.92C4 5.39065 4.21468 4.90956 4.56296 4.56128C4.90952 4.21472 5.38856 4 5.92 4H26.08Z" stroke="white" stroke-width="2"/>
<path d="M9.03062 13.4645C9.03062 12.6715 9.21437 12.0651 9.58953 11.6375C9.96469 11.2099 10.5159 11 11.2662 11C12.0166 11 12.5678 11.2099 12.943 11.6375C13.3181 12.0651 13.5019 12.6715 13.5019 13.4645V13.7755H12.0702V13.3712C12.0702 13.0136 12.0012 12.7648 11.8711 12.6249C11.7409 12.4772 11.5495 12.4072 11.3122 12.4072C11.0748 12.4072 10.8911 12.4772 10.7533 12.6249C10.6231 12.7726 10.5542 13.0214 10.5542 13.3712C10.5542 13.7055 10.6308 14.001 10.7762 14.2575C10.9217 14.5141 11.1055 14.7551 11.3275 14.9883C11.5495 15.2216 11.7869 15.447 12.0395 15.6725C12.2922 15.898 12.5295 16.1545 12.7516 16.4189C12.9736 16.691 13.1573 16.9942 13.3028 17.344C13.4483 17.6861 13.5248 18.0982 13.5248 18.5646C13.5248 19.3576 13.3334 19.964 12.9506 20.3916C12.5678 20.8192 12.0089 21.0292 11.2662 21.0292C10.5236 21.0292 9.95703 20.8192 9.57422 20.3916C9.19141 19.964 9 19.3576 9 18.5646V17.966H10.4317V18.6657C10.4317 19.0233 10.5006 19.2643 10.6461 19.4043C10.7916 19.5442 10.983 19.6142 11.2203 19.6142C11.4577 19.6142 11.6491 19.5442 11.7945 19.4043C11.94 19.2643 12.0089 19.0155 12.0089 18.6657C12.0089 18.3314 11.9323 18.036 11.7869 17.7794C11.6414 17.5228 11.4577 17.2818 11.2356 17.0486C11.0136 16.8154 10.7762 16.5899 10.5236 16.3644C10.2709 16.139 10.0336 15.8902 9.81156 15.6181C9.58953 15.346 9.40578 15.0428 9.26031 14.6929C9.11484 14.3431 9.03828 13.9388 9.03828 13.4723L9.03062 13.4645Z" fill="white"/>
<path d="M14.2522 13.4645C14.2522 12.6715 14.4512 12.0651 14.8417 11.6375C15.2398 11.2099 15.8064 11 16.549 11C17.2917 11 17.8659 11.2099 18.2564 11.6375C18.6545 12.0651 18.8459 12.6715 18.8459 13.4645V18.5569C18.8459 19.1088 18.7464 19.5675 18.555 19.9252C18.5932 20.0185 18.6392 20.0807 18.7004 20.0962C18.7617 20.1195 18.8536 20.1273 18.9837 20.1273H19.1215V21.4956H18.9148C18.5703 21.4956 18.2947 21.4334 18.0803 21.3168C17.8659 21.2002 17.7051 21.0369 17.6056 20.8192C17.4525 20.8737 17.284 20.9203 17.1079 20.9514C16.9318 20.9825 16.7481 20.9981 16.5414 20.9981C15.7987 20.9981 15.2245 20.7881 14.834 20.3605C14.4359 19.9329 14.2445 19.3265 14.2445 18.5335V13.4412L14.2522 13.4645ZM15.7681 18.6579C15.7681 19.0155 15.837 19.2643 15.9825 19.4043C16.1279 19.552 16.3193 19.622 16.5567 19.622C16.794 19.622 16.9854 19.552 17.1309 19.4043C17.2764 19.2566 17.3453 19.0078 17.3453 18.6579V13.3712C17.3453 13.0136 17.2764 12.7648 17.1309 12.6249C16.9854 12.4772 16.794 12.4072 16.5567 12.4072C16.3193 12.4072 16.1279 12.4772 15.9825 12.6249C15.837 12.7726 15.7681 13.0214 15.7681 13.3712V18.6579Z" fill="white"/>
<path d="M19.8335 11.1166H21.3494V19.5131H23.8454V20.9125H19.8335V11.1166V11.1166Z" fill="white"/>
</svg>
