<svg width="36" height="36" viewBox="0 0 36 36" fill="none" xmlns="http://www.w3.org/2000/svg">
<path d="M28.5 5.5C29.0536 5.5 29.5526 5.72366 29.9136 6.08467C30.2764 6.44746 30.5 6.9486 30.5 7.5V28.5C30.5 29.0514 30.2764 29.5525 29.9136 29.9153C29.5526 30.2763 29.0536 30.5 28.5 30.5H7.5C6.94642 30.5 6.44742 30.2763 6.08641 29.9153C5.72362 29.5525 5.5 29.0514 5.5 28.5V7.5C5.5 6.9486 5.72362 6.44746 6.08641 6.08467C6.44742 5.72366 6.94642 5.5 7.5 5.5H28.5Z" stroke="white" stroke-width="2"/>
<path d="M10.3233 15.2775C10.3233 14.3853 10.53 13.7031 10.952 13.2221C11.3741 12.741 11.9942 12.5049 12.8383 12.5049C13.6824 12.5049 14.3026 12.741 14.7246 13.2221C15.1467 13.7031 15.3534 14.3853 15.3534 15.2775V15.6273H13.7427V15.1725C13.7427 14.7702 13.6652 14.4903 13.5188 14.3329C13.3724 14.1667 13.157 14.088 12.89 14.088C12.623 14.088 12.4163 14.1667 12.2613 14.3329C12.1148 14.4991 12.0373 14.7789 12.0373 15.1725C12.0373 15.5486 12.1234 15.881 12.2871 16.1696C12.4507 16.4582 12.6575 16.7294 12.9072 16.9918C13.157 17.2542 13.424 17.5078 13.7083 17.7614C13.9925 18.0151 14.2595 18.3037 14.5093 18.6011C14.7591 18.9072 14.9658 19.2483 15.1295 19.6419C15.2931 20.0267 15.3793 20.4903 15.3793 21.0151C15.3793 21.9072 15.1639 22.5894 14.7333 23.0705C14.3026 23.5515 13.6738 23.7877 12.8383 23.7877C12.0029 23.7877 11.3655 23.5515 10.9348 23.0705C10.5041 22.5894 10.2888 21.9072 10.2888 21.0151V20.3416H11.8995V21.1288C11.8995 21.5311 11.977 21.8023 12.1407 21.9597C12.3043 22.1171 12.5197 22.1958 12.7867 22.1958C13.0537 22.1958 13.269 22.1171 13.4327 21.9597C13.5963 21.8023 13.6738 21.5224 13.6738 21.1288C13.6738 20.7527 13.5877 20.4203 13.424 20.1317C13.2604 19.8431 13.0537 19.5719 12.8039 19.3095C12.5541 19.0472 12.2871 18.7935 12.0029 18.5399C11.7186 18.2862 11.4516 18.0063 11.2018 17.7002C10.952 17.3941 10.7453 17.053 10.5817 16.6594C10.418 16.2658 10.3319 15.811 10.3319 15.2862L10.3233 15.2775Z" fill="white"/>
<path d="M16.1976 15.2775C16.1976 14.3853 16.4215 13.7031 16.8608 13.2221C17.3087 12.741 17.9461 12.5049 18.7816 12.5049C19.617 12.5049 20.263 12.741 20.7023 13.2221C21.1502 13.7031 21.3655 14.3853 21.3655 15.2775V21.0063C21.3655 21.6273 21.2536 22.1434 21.0382 22.5457C21.0813 22.6507 21.133 22.7206 21.2019 22.7381C21.2708 22.7644 21.3741 22.7731 21.5206 22.7731H21.6756V24.3125H21.4431C21.0555 24.3125 20.7454 24.2425 20.5042 24.1113C20.263 23.9801 20.0822 23.7964 19.9702 23.5515C19.7979 23.6128 19.6084 23.6652 19.4103 23.7002C19.2122 23.7352 19.0055 23.7527 18.7729 23.7527C17.9375 23.7527 17.2915 23.5165 16.8522 23.0355C16.4043 22.5544 16.189 21.8722 16.189 20.9801V15.2512L16.1976 15.2775ZM17.903 21.12C17.903 21.5224 17.9805 21.8023 18.1442 21.9597C18.3078 22.1259 18.5232 22.2046 18.7902 22.2046C19.0572 22.2046 19.2725 22.1259 19.4362 21.9597C19.5998 21.7935 19.6773 21.5136 19.6773 21.12V15.1725C19.6773 14.7702 19.5998 14.4903 19.4362 14.3329C19.2725 14.1667 19.0572 14.088 18.7902 14.088C18.5232 14.088 18.3078 14.1667 18.1442 14.3329C17.9805 14.4991 17.903 14.7789 17.903 15.1725V21.12Z" fill="white"/>
<path d="M22.4766 12.6361H24.182V22.0822H26.9899V23.6565H22.4766V12.6361Z" fill="white"/>
</svg>
