<?xml version="1.0" encoding="UTF-8"?>
<svg id="Layer_1" data-name="Layer 1" xmlns="http://www.w3.org/2000/svg" viewBox="0 0 24 24">
  <defs>
    <style>
      .cls-1 {
        fill: #338ecc;
      }
    </style>
  </defs>
  <path class="cls-1" d="m20.07,16.48v3.58c0,.88-.6,1.47-1.47,1.47H5.4c-.87,0-1.47-.58-1.47-1.47v-3.58h-1.04c-.15,0-.29-.02-.43-.04v3.99c0,1.37,1.22,2.57,2.57,2.57h13.93c1.35,0,2.57-1.19,2.57-2.57v-3.95h-1.47Z"/>
  <path class="cls-1" d="m2.9,10.54h1.04v-5.14h16.13v5.14h1.47V3.57c0-1.37-1.22-2.57-2.57-2.57H5.03c-1.35,0-2.57,1.19-2.57,2.57v7.02c.14-.02.28-.04.43-.04Z"/>
  <path class="cls-1" d="m20.43,9.8H3.57c-1.23,0-2.33.99-2.53,2.2h-.04v2.57c0,1.37,1.22,2.57,2.57,2.57h16.87c1.35,0,2.57-1.19,2.57-2.57v-2.2c0-1.37-1.22-2.57-2.57-2.57Zm1.1,4.4c0,.88-.6,1.47-1.47,1.47H3.93c-.87,0-1.47-.58-1.47-1.47v-1.47c0-.88.6-1.47,1.47-1.47h16.13c.87,0,1.47.58,1.47,1.47v1.47Z"/>
  <rect class="cls-1" x="5.4" y="18.6" width="8.07" height="1.47"/>
  <rect class="cls-1" x="5.4" y="6.87" width="5.13" height="1.47"/>
  <rect class="cls-1" x="9.8" y="6.87" width="2.93" height="1.47"/>
  <rect class="cls-1" x="14.2" y="6.87" width="4.4" height="1.47"/>
  <rect class="cls-1" x="3.93" y="12.73" width="2.93" height="1.47"/>
  <rect class="cls-1" x="8.33" y="12.73" width="2.93" height="1.47"/>
</svg>