<?xml version="1.0" encoding="UTF-8"?>
<svg id="Layer_1" data-name="Layer 1" xmlns="http://www.w3.org/2000/svg" viewBox="0 0 16 16">
  <defs>
    <style>
      .cls-1 {
        fill: #338ecc;
      }
    </style>
  </defs>
  <path class="cls-1" d="m13.13,10.85v2.28c0,.56-.38.93-.93.93H3.8c-.55,0-.93-.37-.93-.93v-2.28h-.66c-.1,0-.18-.02-.27-.03v2.54c0,.87.77,1.63,1.63,1.63h8.87c.86,0,1.63-.76,1.63-1.63v-2.51h-.93Z"/>
  <path class="cls-1" d="m2.21,7.07h.66v-3.27h10.27v3.27h.93V2.63c0-.87-.77-1.63-1.63-1.63H3.57c-.86,0-1.63.76-1.63,1.63v4.47c.09-.01.18-.03.27-.03Z"/>
  <path class="cls-1" d="m13.37,6.6H2.63c-.78,0-1.49.63-1.61,1.4h-.03v1.63c0,.87.77,1.63,1.63,1.63h10.73c.86,0,1.63-.76,1.63-1.63v-1.4c0-.87-.77-1.63-1.63-1.63Zm.7,2.8c0,.56-.38.93-.93.93H2.87c-.55,0-.93-.37-.93-.93v-.93c0-.56.38-.93.93-.93h10.27c.55,0,.93.37.93.93v.93Z"/>
  <rect class="cls-1" x="3.8" y="12.2" width="5.13" height=".93"/>
  <rect class="cls-1" x="3.8" y="4.73" width="3.27" height=".93"/>
  <rect class="cls-1" x="6.6" y="4.73" width="1.87" height=".93"/>
  <rect class="cls-1" x="9.4" y="4.73" width="2.8" height=".93"/>
  <rect class="cls-1" x="2.87" y="8.47" width="1.87" height=".93"/>
  <rect class="cls-1" x="5.67" y="8.47" width="1.87" height=".93"/>
</svg>