<?xml version="1.0" encoding="UTF-8" ?>
<svg xmlns="http://www.w3.org/2000/svg" xmlns:xlink="http://www.w3.org/1999/xlink">

  <symbol id="settings" viewBox="0 0 28 28">
    <g fill="none" fill-rule="evenodd">
        <path d="M-4-4h36v36H-4z"/>
        <path fill-rule="nonzero" stroke="#FFF" stroke-width="2" d="M24.5 1.5h-21a2 2 0 0 0-2 2v21a2 2 0 0 0 2 2h21a2 2 0 0 0 2-2v-21a2 2 0 0 0-2-2z"/>
        <path fill="#FFF" fill-rule="nonzero" d="M19.398 14c0 .23-.02.46-.052.68l1.522 1.16c.134.11.175.3.082.45l-1.44 2.42a.369.369 0 0 1-.441.15l-1.79-.7c-.37.28-.78.51-1.212.69l-.268 1.85a.37.37 0 0 1-.36.3h-2.878a.371.371 0 0 1-.36-.29l-.268-1.85a5.323 5.323 0 0 1-1.213-.69l-1.789.7c-.164.06-.35 0-.442-.15L7.05 16.3a.347.347 0 0 1 .083-.45l1.522-1.16c-.031-.23-.052-.46-.052-.69 0-.23.02-.46.052-.68l-1.522-1.16a.347.347 0 0 1-.082-.45l1.44-2.42a.369.369 0 0 1 .441-.15l1.79.7c.37-.28.78-.51 1.212-.69l.268-1.85a.37.37 0 0 1 .36-.3h2.878c.175 0 .33.13.36.29l.268 1.85c.442.18.843.41 1.213.69l1.789-.7c.164-.06.35 0 .442.15l1.44 2.42c.092.15.05.34-.083.45l-1.522 1.16c.031.23.052.46.052.69zM14 12c-1.1 0-2 .9-2 2s.9 2 2 2 2-.9 2-2-.9-2-2-2z"/>
    </g>
  </symbol>

  <symbol id="sql-text" viewBox="0 0 32 32">
    <defs>
      <polygon id="path-1" points="0.575051172 0.637522461 21.0569629 0.637522461 21.0569629 20.6921857 0.575051172 20.6921857"></polygon>
    </defs>
    <g id="sql_text" stroke="none" stroke-width="1" fill="none" fill-rule="evenodd">
      <g id="Page-1" transform="translate(0.468750, 5.000000)">
        <g id="Group-3" transform="translate(9.853516, 0.347435)">
          <mask id="mask-2" fill="white">
            <use xlink:href="#path-1"></use>
          </mask>
          <g id="Clip-2"></g>
          <path d="M19.773641,6.80168477 L21.0575541,6.45287031 L19.5066107,0.637325391 L2.12599453,0.637325391 L0.575051172,6.45287031 L1.85797891,6.80168477 C2.46002871,5.63798457 3.07488809,4.47526973 3.78335586,3.88701484 C4.49280898,3.31156953 5.32148965,3.31156953 6.13736074,3.31156953 L9.47967324,3.31156953 L9.47967324,17.3498732 C9.47967324,18.018927 9.47967324,18.6869953 9.03823574,19.0210295 C8.58398867,19.3550637 7.70111367,19.3550637 6.8054291,19.3550637 L6.8054291,20.6921857 L14.8271762,20.6921857 L14.8271762,19.3550637 C13.9314916,19.3550637 13.0486166,19.3550637 12.5943695,19.0210295 C12.152932,18.6869953 12.152932,18.018927 12.152932,17.3498732 L12.152932,3.31156953 L15.4952445,3.31156953 C16.3111156,3.31156953 17.1397963,3.31156953 17.8482641,3.88701484 C18.5577172,4.47526973 19.1725766,5.63798457 19.773641,6.80168477" id="Fill-1" fill="#338ECC" mask="url(#mask-2)"></path>
        </g>
        <polygon id="Fill-4" fill="#338ECC" points="4.99908262 9.03035293 0.000394140625 14.0290414 4.99908262 19.0395541 6.5352457 17.4925521 3.07074961 14.0290414 6.5352457 10.566516"></polygon>
        <polygon id="Fill-6" fill="#338ECC" points="11.3374551 19.0397512 16.3371289 14.0292385 11.3374551 9.03055 9.80227734 10.5657277 13.2657881 14.0292385 9.80227734 17.4927492"></polygon>
      </g>
    </g>
  </symbol>

  <symbol id="arrow" viewBox="0 0 16 16">
    <path class="icon-fill" d="M9.45939791,6.31596408 L10.160304,9.99078745 C10.2637771,10.5332925 9.90787129,11.0569613 9.3653662,11.1604343 C9.24157151,11.1840459 9.11442925,11.1840445 8.9906351,11.1604301 L5.31603606,10.4594812 C4.77353329,10.355996 4.41763926,9.83231921 4.52112449,9.28981644 C4.55868393,9.09291783 4.65454981,8.91185096 4.79628428,8.77010783 L7.76997718,5.7962334 C8.16048955,5.40569718 8.79365453,5.40567786 9.18419074,5.79619023 C9.325954,5.93794483 9.42183756,6.11903666 9.45939791,6.31596408 Z" transform="translate(7.242641, 8.242641) rotate(-45.000000) translate(-7.242641, -8.242641) "></path>
  </symbol>

  <symbol id="cross" viewBox="0 0 16 16">
    <path fill-rule="evenodd" d="M15.597 0L8 7.596.404 0 0 .403 7.596 8 0 15.595.404 16 8 8.404 15.597 16l.403-.405L8.404 8 16 .403z"/>
  </symbol>

  <symbol id="angle" viewBox="0 0 15 8">
    <path class="icon-fill" fill-rule="evenodd" d="M14.5.954l-.875-.88L7.5 6.238 1.375 0 .5.88 7.5 8z"/>
  </symbol>

  <symbol id="cross-bold" viewBox="0 0 7 8">
    <g fill="#6D6D6D" fill-rule="evenodd">
        <path d="M.514 6.514L6.171.858l.707.707-5.656 5.657z"/>
        <path d="M6.171 7.143L.514 1.486l.629-.629L6.8 6.514z"/>
    </g>
  </symbol>

  <symbol id="spinner" viewBox="0 0 43 42">
    <defs>
        <linearGradient id="prefix__a" x1="59.847%" x2="43.09%" y1="106.152%" y2="60.499%">
            <stop offset="0%" stop-color="#FFF" stop-opacity="0"/>
            <stop offset="100%" stop-color="#FFF"/>
        </linearGradient>
    </defs>
    <path fill="none" fill-rule="evenodd" stroke="url(#prefix__a)" stroke-linecap="round" stroke-linejoin="round" stroke-width="6" d="M808.5 476c-9.94 0-18-8.06-18-18s8.06-18 18-18 18 8.06 18 18" transform="translate(-787 -437)"/>
  </symbol>

  <symbol id="snack" viewBox="0 0 16 10">
    <path d="M0 8.464h16v1H0zm0-4.038h16v1H0zM0 .387h16v1H0z" />
  </symbol>

  <symbol id="reload" viewBox="64 64 896 896">
    <path d="M909.1 209.3l-56.4 44.1C775.8 155.1 656.2 92 521.9 92 290 92 102.3 279.5 102 511.5 101.7 743.7 289.8 932 521.9 932c181.3 0 335.8-115 394.6-276.1 1.5-4.2-.7-8.9-4.9-10.3l-56.7-19.5a8 8 0 0 0-10.1 4.8c-1.8 5-3.8 10-5.9 14.9-17.3 41-42.1 77.8-73.7 109.4A344.77 344.77 0 0 1 655.9 829c-42.3 17.9-87.4 27-133.8 27-46.5 0-91.5-9.1-133.8-27A341.5 341.5 0 0 1 279 755.2a342.16 342.16 0 0 1-73.7-109.4c-17.9-42.4-27-87.4-27-133.9s9.1-91.5 27-133.9c17.3-41 42.1-77.8 73.7-109.4 31.6-31.6 68.4-56.4 109.3-73.8 42.3-17.9 87.4-27 133.8-27 46.5 0 91.5 9.1 133.8 27a341.5 341.5 0 0 1 109.3 73.8c9.9 9.9 19.2 20.4 27.8 31.4l-60.2 47a8 8 0 0 0 3 14.1l175.6 43c5 1.2 9.9-2.6 9.9-7.7l.8-180.9c-.1-6.6-7.8-10.3-13-6.2z"></path>
  </symbol>

  <symbol id="apply" viewBox="0 0 12 10">
    <path fill="#4FA843" fill-rule="evenodd" d="M309.706 13.261L306.565 10.131 305 11.696 309.706 16.392 317 9.087 315.434 7.522z" transform="translate(-305 -7)"/>
  </symbol>

  <symbol id="edit" viewBox="0 0 13 13">
    <g fill="#338ECC" fill-rule="evenodd">
        <path d="M9.823.192c-.245-.256-.653-.256-.898 0L7.759 1.36 10.15 3.75l1.167-1.166c.256-.245.256-.653 0-.898L9.823.192zM0 9.106L0 11.509 2.403 11.509 9.473 4.427 7.082 2.035zM4.808 10.287H12V11.509H4.808z" transform="translate(.5 .519)"/>
    </g>
  </symbol>

  <symbol id="reject" viewBox="0 0 11 11">
    <path fill="#D7351F" fill-rule="evenodd" d="M332.531 5.956L332.531 10.762 327.725 10.762 327.725 13.15 332.531 13.15 332.531 17.957 334.918 17.957 334.918 13.15 339.725 13.15 339.725 10.762 334.918 10.762 334.918 5.956z" transform="rotate(-45 162.482 404.888)"/>
  </symbol>

  <symbol id="logo" viewBox="0 0 361 73">
    <g fill="none" fill-rule="evenodd">
        <path fill="#FFF" d="M148.71 34.954V30.17c0-4.275-3.479-7.752-7.753-7.752h-5.865c-4.275 0-7.753 3.477-7.753 7.752v31.959c0 4.275 3.478 7.752 7.753 7.752h5.865c4.274 0 7.752-3.477 7.752-7.752V59.06h-6.414v1.451c0 2.266-.86 3.664-2.955 3.664H136.708c-2.094 0-2.954-1.398-2.954-3.664V31.785c0-2.215.994-3.662 2.954-3.662h2.633c1.959 0 2.954 1.447 2.954 3.662v3.17h6.414zM164.41 69.852c-.26 0-.69.004-1.198.01-1.844.02-3.431.034-4.188-.017-3.238-.286-5.588-2.73-5.588-5.81V34.601h6.35s.08 19.396 0 27.479c-.02 2.123-.022 2.087 1.568 2.133 1.442.042 2.04.083 2.72.088 3.436.024 3.436 5.55 3.436 5.55h-3.1z"/>
        <path fill="#4598D3" d="M198.923 62.387v1.797h1.798c-.993 0-1.798-.805-1.798-1.797"/>
        <path fill="#244357" d="M252.705 60.511c0 2.198-1.254 3.664-2.954 3.664h-5.393V46.847h5.007c1.884 0 3.34 1.314 3.34 3.598v10.066zm-8.347-32.388h4.04c1.84 0 2.953 1.515 2.953 3.662v5.693c0 2.532-.91 3.662-2.953 3.662h-4.04V28.123zm12.127 15.205c.828-1.266 1.282-2.731 1.282-4.234V30.17c0-4.26-3.36-7.666-7.688-7.752h-12.136s-.008 1.697 0 6.278c.02 10.75 0 41.185 0 41.185h13.853c1.076 0 2.425-.546 2.425-.546 2.913-1.18 4.9-4.002 4.9-7.206v-13.3c0-2.018-.99-4.017-2.636-5.5zM268.596 49.345v-7.451c.097-.802.72-1.44 1.515-1.558h2.917c.865.13 1.53.873 1.53 1.774v7.235h-5.962zm6.558-14.715H268c-3.173 0-5.754 2.61-5.754 5.818v23.679c0 3.172 2.581 5.753 5.754 5.753h12.974s0-5.696-4.283-5.705c-1.646-.004-4.667-.001-6.468.001-.847-.073-1.525-.733-1.626-1.572v-7.553h12.377V40.448c0-3.208-2.61-5.818-5.819-5.818zM296.325 64.176l-4.296.002c-.916-.065-1.64-.815-1.666-1.741l-.002-8.977c.002-.871.624-1.596 1.448-1.758h4.516v12.474zM290.36 51.77v.724-.724zm6.562-17.14h-7.501c-4.388 0-4.446 5.706-4.446 5.706h9.833c.8.12 1.427.764 1.517 1.572v4.088h-6.558c-3.173 0-5.754 2.581-5.754 5.754v12.377c0 3.172 2.581 5.753 5.754 5.753h12.973V40.448c0-3.208-2.61-5.818-5.818-5.818zM313.564 55.813L309.588 34.63 303.432 34.63 309.979 69.88 316.999 69.88 323.546 34.63 317.586 34.63zM357.874 34.63c-.26 0-.691-.005-1.199-.01-1.844-.02-3.43-.034-4.188.017-3.238.286-5.588 2.73-5.588 5.81V69.88h6.35s.08-19.396 0-27.48c-.02-2.122-.022-2.086 1.568-2.132 1.442-.042 2.04-.083 2.72-.088 3.436-.024 3.436-5.55 3.436-5.55h-3.1zM331.317 49.345v-7.451c.097-.802.72-1.44 1.515-1.558h2.918c.865.13 1.529.873 1.53 1.774v7.235h-5.963zm6.559-14.715h-7.155c-3.173 0-5.754 2.61-5.754 5.818v23.679c0 3.172 2.581 5.753 5.754 5.753h12.973s0-5.696-4.282-5.705c-1.646-.004-4.668-.001-6.468.001-.847-.073-1.525-.733-1.627-1.572v-7.553h12.377V40.448c0-3.208-2.61-5.818-5.818-5.818z"/>
        <path fill="#FFF" d="M182.228 49.345v13.04c0 .902-.664 1.645-1.529 1.775h-2.918c-.794-.119-1.417-.756-1.515-1.557v-20.71c.098-.801.721-1.438 1.515-1.557h2.918c.865.13 1.529.873 1.53 1.774v7.235zm.597-14.715h-3.59v-.014h-3.565c-3.173 0-5.754 2.58-5.754 5.753V64.127c0 3.172 2.581 5.753 5.754 5.753h3.566l-.002-.014h3.591c3.208 0 5.818-2.61 5.818-5.818v-23.6c0-3.208-2.61-5.818-5.818-5.818zM204.854 34.63v27.756c0 .9-.664 1.645-1.529 1.774h-2.918c-.794-.119-1.418-.756-1.514-1.558V34.616h-6.35v29.51c0 3.173 2.58 5.754 5.753 5.754h3.566c0-.004 3.589-.014 3.589-.014 3.208 0 5.818-2.61 5.818-5.818V34.63h-6.415zM227.115 49.345v13.04c0 .902-.665 1.645-1.53 1.775h-4.432V40.336h4.433c.864.13 1.529.873 1.529 1.774v7.235zm.596-14.715h-3.59l.001-.014h-9.32V69.88h9.32l-.001-.014h3.59c3.209 0 5.819-2.61 5.819-5.818v-23.6c0-3.208-2.61-5.818-5.819-5.818z"/>
        <path fill="#244357" d="M94.575 35.68c-.581 0 0 0 0 0 0-18.976-16.87-35.496-35.846-35.496-13.978 0-26.446 8.45-31.812 20.432-.187-.004 0-.004-.187-.004C11.996 20.612 0 33.83 0 48.565c0 10.488 4.369 18.65 13.171 23.01 1.404-1.463 4.884-1.488 6.68-2.48-3.155-1.045-5.722-3.194-8.464-5.238-9.428-7.028-8.014-24.154-1.831-29.934 9.905-9.259 20.926-6.909 20.926-6.909l1.369-3.055c2.282-5.095 6.872-19.87 27.842-19.608 22.178.277 28.217 23.723 28.225 31.54l-.001.096-.012 5.522 5.502-.478c.436-.038.869-.057 1.286-.057 8.055 0 16.28 6.267 16.28 14.322s-8.225 12.252-16.28 12.252H49.15c.519.266 5.77 5.053 14.419 5.053h31.124c10.859 0 19.661-6.16 19.661-17.018 0-10.859-8.92-19.903-19.78-19.903"/>
        <path fill="#244357" d="M80 24.818c-2.074-.777-7.403-.253-11.148 1.209-1.836.717-3.293 1.658-3.794 2.785-1.374 3.091 7.042 8.458 10.434 7.47 1.616-.47 3.937-3.91 4.972-6.92.735-2.14.82-4.062-.464-4.544M61.18 27.364c-.96-.122-2.947-.391-3.582-1.11-1.418-1.606-3.692-2.037-5.346-1.674-1.751.385-2.684 2.424-1.48 4.96.54 1.14.403 2.514-.148 3.54 1.722-1.605 3.332-2.912 4.527-3.54 2.354-1.239 4.442-1.881 6.03-2.176M78.369 50.874s-1.718 5.84-2.92 8.501c-1.06 2.347-1.395 2.159-2.161 2.434.288-.728.495-1.682.873-3.292.454-1.938 0-2.448 0-2.448-.596 2.9-1.521 4.971-2.308 6.33-1.02.342-2.275.562-3.188.197-1.288-.515-1.507-6.57-1.507-6.913 5.605.386 8.592-1.89 11.21-4.809m-27.555-6.382c.119.562.25 1.089.389 1.6l-.131-.148s.11.254.28.69c.235.806.495 1.541.773 2.222.922 2.961 1.905 7.506.44 10.355-1.096 2.13-15.017 9.102 8.777 13.283l21.36-4.946c-9.41-1.273-5.63-6.19-3.388-10.234 2.691-4.853 3.61-7.943 4.19-12.4.348-2.68.092-4.686.018-5.169-.011-.073-.019-.113-.019-.113s-.01.15-.038.406l.038-.664s-1.698 6.827-5.047 9.275c-.78.57-1.278.948-1.598 1.203.337-1.273 1.602-6.638-.206-9.576 0 0-.75 12.343-7.33 12.999-6.582.655-15.856-6.079-18.508-8.783"/>
        <path fill="#244357" d="M31.876 44.084c-.264 1.478-.378 2.809-.337 3.982-1.279 2.027-10.513 23.982-21.983 14.117 1.963 1.72 3.615 9.391 3.615 9.391C23.96 77.88 31.43 53.154 32.283 51.532c.695 1.486 1.87 4.504 8.39 4.638 0 0-7.65-3.75-4.235-13.7 3.414-9.952 8.461-18.397 15.391-22.302 6.93-3.905 13.932-3.639 20.373-.89 0 0-9.72-8.937-20.89-2.182-6.417 3.88-10.689 8.187-13.63 12.6-2.466.44-5.465.043-6.68.043-1.537 0-3.908 1.042-2.836 4.815 1.05 3.694 3.946 7.43 3.71 9.53"/>
    </g>
  </symbol>

  <symbol id="database" viewBox="0 0 32 32">
      <g stroke="none" stroke-width="1" fill-rule="evenodd" transform="translate(3.000000, 10.604400)">
          <path d="M12.269,11.0671 C19.047,11.0671 24.538,8.3221 24.538,4.9331 L24.538,0.3321 C24.538,3.7211 19.047,6.4661 12.269,6.4661 C5.491,6.4661 5.32907052e-15,3.7211 5.32907052e-15,0.3321 L5.32907052e-15,4.9331 C5.32907052e-15,8.3221 5.491,11.0671 12.269,11.0671" />
          <path d="M12.269,18.735 C19.047,18.735 24.538,15.99 24.538,12.6 L24.538,8 C24.538,11.389 19.047,14.134 12.269,14.134 C5.491,14.134 5.32907052e-15,11.389 5.32907052e-15,8 L5.32907052e-15,12.6 C5.32907052e-15,15.99 5.491,18.735 12.269,18.735" />
          <path d="M12.269,3.3991 C19.047,3.3991 24.538,0.6541 24.538,-2.7349 C24.538,-6.1239 19.047,-8.8699 12.269,-8.8699 C5.491,-8.8699 5.32907052e-15,-6.1239 5.32907052e-15,-2.7349 C5.32907052e-15,0.6541 5.491,3.3991 12.269,3.3991" />
      </g>
  </symbol>

  <symbol id="schema_system" viewBox="0 0 32 32">
      <g stroke="none" stroke-width="1" fill-rule="evenodd" transform="translate(3.000000, 4.000000)">
          <polygon points="6.835 6.4211 11.611 6.4211 11.611 5.0871 6.835 5.0871"></polygon>
          <polygon points="13.611 7.7541 19.613 7.7541 19.613 3.7531 13.611 3.7531"></polygon>
          <polygon points="6.835 13.1711 11.611 13.1711 11.611 11.8371 6.835 11.8371"></polygon>
          <polygon points="13.611 14.5041 19.613 14.5041 19.613 10.5031 13.611 10.5031"></polygon>
          <polygon points="6.835 19.5041 11.611 19.5041 11.611 18.1701 6.835 18.1701"></polygon>
          <polygon points="13.611 20.8371 19.613 20.8371 19.613 16.8361 13.611 16.8361"></polygon>
          <polygon points="0.826 2.4491 5.23 2.4491 5.23 0.0131 0.826 0.0131"></polygon>
          <polygon points="0.826 23.6991 5.23 23.6991 5.23 21.2641 0.826 21.2641"></polygon>
          <polygon points="0 23.5701 2.435 23.5701 2.435 0.0001 0 0.0001"></polygon>
          <polygon points="21 23.6851 25.404 23.6851 25.404 21.2501 21 21.2501"></polygon>
          <polygon points="21 2.4361 25.404 2.4361 25.404 0.0011 21 0.0011"></polygon>
          <polygon points="23.793 23.6991 26.229 23.6991 26.229 0.1291 23.793 0.1291"></polygon>
      </g>
  </symbol>

</svg>
