<?xml version="1.0" encoding="UTF-8" ?>
<svg xmlns="http://www.w3.org/2000/svg" xmlns:xlink="http://www.w3.org/1999/xlink">

  <symbol id="settings" viewBox="0 0 28 28">
    <g fill="none" fill-rule="evenodd">
        <path d="M-4-4h36v36H-4z"/>
        <path fill-rule="nonzero" stroke="#FFF" stroke-width="2" d="M24.5 1.5h-21a2 2 0 0 0-2 2v21a2 2 0 0 0 2 2h21a2 2 0 0 0 2-2v-21a2 2 0 0 0-2-2z"/>
        <path fill="#FFF" fill-rule="nonzero" d="M19.398 14c0 .23-.02.46-.052.68l1.522 1.16c.134.11.175.3.082.45l-1.44 2.42a.369.369 0 0 1-.441.15l-1.79-.7c-.37.28-.78.51-1.212.69l-.268 1.85a.37.37 0 0 1-.36.3h-2.878a.371.371 0 0 1-.36-.29l-.268-1.85a5.323 5.323 0 0 1-1.213-.69l-1.789.7c-.164.06-.35 0-.442-.15L7.05 16.3a.347.347 0 0 1 .083-.45l1.522-1.16c-.031-.23-.052-.46-.052-.69 0-.23.02-.46.052-.68l-1.522-1.16a.347.347 0 0 1-.082-.45l1.44-2.42a.369.369 0 0 1 .441-.15l1.79.7c.37-.28.78-.51 1.212-.69l.268-1.85a.37.37 0 0 1 .36-.3h2.878c.175 0 .33.13.36.29l.268 1.85c.442.18.843.41 1.213.69l1.789-.7c.164-.06.35 0 .442.15l1.44 2.42c.092.15.05.34-.083.45l-1.522 1.16c.031.23.052.46.052.69zM14 12c-1.1 0-2 .9-2 2s.9 2 2 2 2-.9 2-2-.9-2-2-2z"/>
    </g>
  </symbol>

  <symbol id="sql-text" viewBox="0 0 32 32">
    <defs>
      <polygon id="path-1" points="0.575051172 0.637522461 21.0569629 0.637522461 21.0569629 20.6921857 0.575051172 20.6921857"></polygon>
    </defs>
    <g id="sql_text" stroke="none" stroke-width="1" fill="none" fill-rule="evenodd">
      <g id="Page-1" transform="translate(0.468750, 5.000000)">
        <g id="Group-3" transform="translate(9.853516, 0.347435)">
          <mask id="mask-2" fill="white">
            <use xlink:href="#path-1"></use>
          </mask>
          <g id="Clip-2"></g>
          <path d="M19.773641,6.80168477 L21.0575541,6.45287031 L19.5066107,0.637325391 L2.12599453,0.637325391 L0.575051172,6.45287031 L1.85797891,6.80168477 C2.46002871,5.63798457 3.07488809,4.47526973 3.78335586,3.88701484 C4.49280898,3.31156953 5.32148965,3.31156953 6.13736074,3.31156953 L9.47967324,3.31156953 L9.47967324,17.3498732 C9.47967324,18.018927 9.47967324,18.6869953 9.03823574,19.0210295 C8.58398867,19.3550637 7.70111367,19.3550637 6.8054291,19.3550637 L6.8054291,20.6921857 L14.8271762,20.6921857 L14.8271762,19.3550637 C13.9314916,19.3550637 13.0486166,19.3550637 12.5943695,19.0210295 C12.152932,18.6869953 12.152932,18.018927 12.152932,17.3498732 L12.152932,3.31156953 L15.4952445,3.31156953 C16.3111156,3.31156953 17.1397963,3.31156953 17.8482641,3.88701484 C18.5577172,4.47526973 19.1725766,5.63798457 19.773641,6.80168477" id="Fill-1" fill="#338ECC" mask="url(#mask-2)"></path>
        </g>
        <polygon id="Fill-4" fill="#338ECC" points="4.99908262 9.03035293 0.000394140625 14.0290414 4.99908262 19.0395541 6.5352457 17.4925521 3.07074961 14.0290414 6.5352457 10.566516"></polygon>
        <polygon id="Fill-6" fill="#338ECC" points="11.3374551 19.0397512 16.3371289 14.0292385 11.3374551 9.03055 9.80227734 10.5657277 13.2657881 14.0292385 9.80227734 17.4927492"></polygon>
      </g>
    </g>
  </symbol>

  <symbol id="arrow" viewBox="0 0 16 16">
    <path class="icon-fill" d="M9.45939791,6.31596408 L10.160304,9.99078745 C10.2637771,10.5332925 9.90787129,11.0569613 9.3653662,11.1604343 C9.24157151,11.1840459 9.11442925,11.1840445 8.9906351,11.1604301 L5.31603606,10.4594812 C4.77353329,10.355996 4.41763926,9.83231921 4.52112449,9.28981644 C4.55868393,9.09291783 4.65454981,8.91185096 4.79628428,8.77010783 L7.76997718,5.7962334 C8.16048955,5.40569718 8.79365453,5.40567786 9.18419074,5.79619023 C9.325954,5.93794483 9.42183756,6.11903666 9.45939791,6.31596408 Z" transform="translate(7.242641, 8.242641) rotate(-45.000000) translate(-7.242641, -8.242641) "></path>
  </symbol>

  <symbol id="cross" viewBox="0 0 16 16">
    <path fill-rule="evenodd" d="M15.597 0L8 7.596.404 0 0 .403 7.596 8 0 15.595.404 16 8 8.404 15.597 16l.403-.405L8.404 8 16 .403z"/>
  </symbol>

  <symbol id="angle" viewBox="0 0 15 8">
    <path class="icon-fill" fill-rule="evenodd" d="M14.5.954l-.875-.88L7.5 6.238 1.375 0 .5.88 7.5 8z"/>
  </symbol>

  <symbol id="cross-bold" viewBox="0 0 7 8">
    <g fill="#6D6D6D" fill-rule="evenodd">
        <path d="M.514 6.514L6.171.858l.707.707-5.656 5.657z"/>
        <path d="M6.171 7.143L.514 1.486l.629-.629L6.8 6.514z"/>
    </g>
  </symbol>

  <symbol id="spinner" viewBox="0 0 43 42">
    <defs>
        <linearGradient id="prefix__a" x1="59.847%" x2="43.09%" y1="106.152%" y2="60.499%">
            <stop offset="0%" stop-color="#FFF" stop-opacity="0"/>
            <stop offset="100%" stop-color="#FFF"/>
        </linearGradient>
    </defs>
    <path fill="none" fill-rule="evenodd" stroke="url(#prefix__a)" stroke-linecap="round" stroke-linejoin="round" stroke-width="6" d="M808.5 476c-9.94 0-18-8.06-18-18s8.06-18 18-18 18 8.06 18 18" transform="translate(-787 -437)"/>
  </symbol>

  <symbol id="snack" viewBox="0 0 16 10">
    <path d="M0 8.464h16v1H0zm0-4.038h16v1H0zM0 .387h16v1H0z" />
  </symbol>

  <symbol id="reload" viewBox="64 64 896 896">
    <path d="M909.1 209.3l-56.4 44.1C775.8 155.1 656.2 92 521.9 92 290 92 102.3 279.5 102 511.5 101.7 743.7 289.8 932 521.9 932c181.3 0 335.8-115 394.6-276.1 1.5-4.2-.7-8.9-4.9-10.3l-56.7-19.5a8 8 0 0 0-10.1 4.8c-1.8 5-3.8 10-5.9 14.9-17.3 41-42.1 77.8-73.7 109.4A344.77 344.77 0 0 1 655.9 829c-42.3 17.9-87.4 27-133.8 27-46.5 0-91.5-9.1-133.8-27A341.5 341.5 0 0 1 279 755.2a342.16 342.16 0 0 1-73.7-109.4c-17.9-42.4-27-87.4-27-133.9s9.1-91.5 27-133.9c17.3-41 42.1-77.8 73.7-109.4 31.6-31.6 68.4-56.4 109.3-73.8 42.3-17.9 87.4-27 133.8-27 46.5 0 91.5 9.1 133.8 27a341.5 341.5 0 0 1 109.3 73.8c9.9 9.9 19.2 20.4 27.8 31.4l-60.2 47a8 8 0 0 0 3 14.1l175.6 43c5 1.2 9.9-2.6 9.9-7.7l.8-180.9c-.1-6.6-7.8-10.3-13-6.2z"></path>
  </symbol>

  <symbol id="apply" viewBox="0 0 12 10">
    <path fill="#4FA843" fill-rule="evenodd" d="M309.706 13.261L306.565 10.131 305 11.696 309.706 16.392 317 9.087 315.434 7.522z" transform="translate(-305 -7)"/>
  </symbol>

  <symbol id="edit" viewBox="0 0 13 13">
    <g fill="#338ECC" fill-rule="evenodd">
        <path d="M9.823.192c-.245-.256-.653-.256-.898 0L7.759 1.36 10.15 3.75l1.167-1.166c.256-.245.256-.653 0-.898L9.823.192zM0 9.106L0 11.509 2.403 11.509 9.473 4.427 7.082 2.035zM4.808 10.287H12V11.509H4.808z" transform="translate(.5 .519)"/>
    </g>
  </symbol>

  <symbol id="reject" viewBox="0 0 11 11">
    <path fill="#D7351F" fill-rule="evenodd" d="M332.531 5.956L332.531 10.762 327.725 10.762 327.725 13.15 332.531 13.15 332.531 17.957 334.918 17.957 334.918 13.15 339.725 13.15 339.725 10.762 334.918 10.762 334.918 5.956z" transform="rotate(-45 162.482 404.888)"/>
  </symbol>

  <symbol id="logo" viewBox="0 0 84 30">
    <defs>
        <path id="a" d="M0 .003h28.997V28H0z"/>
    </defs>
    <g fill="none" fill-rule="evenodd">
        <path fill="#FEFEFE" d="M19.313 15.165c-.595 0-4.21 10.84-6.716 12.537-2.73 1.85-4.348-5.479-4.543-6.77C7.733 18.811 9.042 15.583 12 8c.825-3.79 2.745-6.892 7-7.5 3.5-.5 6.5 3.5 4.809 7.638-.991 3.783-2.013 7.027-4.496 7.027z"/>
        <path fill="#897363" d="M11.214 22.816c-.099-1.926.427-3.082.427-3.082s.625 1.766 2.96 3.468c2.335 1.7 2.204.706 2.303.513.098-.192-.033-1.316-.527-2.536-.493-1.22-.888-1.894-1.02-4.366-.131-2.472 1.152-4.205 1.744-5.329.374-.71.123-1.842-.112-2.58a5.61 5.61 0 0 1-.198-.554l-.071-.172.033.037a7.321 7.321 0 0 1-.1-.399c.678.674 3.046 2.352 4.726 2.189 1.68-.164 1.872-3.24 1.872-3.24.461.732.139 2.07.052 2.387.082-.064.21-.158.408-.3C24.566 8.242 25 6.54 25 6.54c-.101-1.249-.453-2.025-.776-2.496-.264.75-.856 1.608-1.27 1.725-.865.246-3.014-1.091-2.663-1.862.128-.28.5-.515.968-.694-.773.13-1.317-.01-2.092.13-.396.102-.632.096-1.338.464-.866.45-.987.673-1.292.95-1.084.985-2.348 2.433-2.67 3.002-.636 1.122-1.259 2.37 1.239 2.727-.592.595-2.298-.19-2.298-.19s-2.358 3.844-2.756 8.483c-.399 4.64 1.622 7.923 2.149 8.434 0 0-.888-2.471-.987-4.398z"/>
        <path fill="#372923" d="M21.313 3.112c-.52.065-.953.208-1.147.454-.534.673 1.36 2.494 2.301 2.457.45-.017 1.25-.72 1.69-1.394.312-.48.443-.945.135-1.14-.497-.316-1.918-.508-2.979-.377zM18.95 3.493c-.266.005-.813.009-1.006-.135-.431-.323-1.062-.346-1.5-.208-.466.148-.662.648-.264 1.192.18.244.181.565.06.82.423-.427.824-.782 1.131-.966a6.661 6.661 0 0 1 1.578-.703"/>
        <path fill="#372923" d="M23.647 9.203s-.438 1.472-.745 2.143c-.27.591-.355.544-.55.614.074-.184.127-.425.223-.83.116-.489 0-.618 0-.618a5.284 5.284 0 0 1-.588 1.597c-.26.085-.58.14-.812.049-.328-.13-.385-1.656-.385-1.743 1.428.097 2.19-.476 2.857-1.212M24.955 7.7a4.827 4.827 0 0 0 0-1.33l-.01.101.01-.167s-.433 1.721-1.287 2.338c-.198.143-.325.24-.407.303.086-.32.408-1.673-.052-2.414 0 0-.19 3.112-1.868 3.277-1.676.165-4.039-1.532-4.714-2.214.03.142.063.275.099.403l-.034-.037s.028.064.072.174c.06.203.126.389.196.56.236.747.486 1.893.113 2.61-.591 1.137-1.87 2.89-1.74 5.39.132 2.501.526 3.183 1.018 4.417s.623 2.37.525 2.565c-.099.195.032 1.201-2.297-.52-2.33-1.72-2.954-3.506-2.954-3.506s-.525 1.169-.426 3.117c.098 1.948.984 4.448.984 4.448s-3.052-2.444-3.216-7.338c-.151-4.503 2.512-9.705 2.94-10.508.176.375.473.62.882.734 0 0-1.186-.644-.316-3.152.87-2.509 2.611-4.74 4.376-5.724 1.766-.984 3.253-.94 4.894-.248 0 0-2.144-1.994-4.989-.29-1.635.977-2.723 2.063-3.473 3.175-.628.112-1.392.011-1.702.011-.39 0-.995.263-.722 1.214.267.931 1.005 1.873.945 2.403a4.77 4.77 0 0 0-.085 1.003c-.377.591-2.136 3.427-2.673 5.681 0 0 1.006-9.95-2.079-11.655C3.881.817 1.395 2.18.566 4.421c-1.772 4.79.854 12.274 4.562 18.314 3.708 6.04 7.222 7.132 9.713 7.24 4.168.183 2.953-.714 4.463-.811 1.51-.098 1.28.812 3.774.454 1.82-.26 2.133-1.46 1.444-2.013-.69-.552-.46-1.85.196-4.643.657-2.793-.284-7.709-.94-8.975-.656-1.266-.59-1.911.11-3.16.685-1.224.919-2.003 1.067-3.127"/>
        <path fill="#FFF" d="M35.931 24.077h-1.83V11.924h1.83c.642 0 .968.488.968 1.234v9.684c0 .763-.282 1.235-.968 1.235M36.461 10H32v16h4.46c1.4 0 2.54-1.172 2.54-2.613V12.613C39 11.173 37.86 10 36.46 10M43.122 18.235h1.654c.623 0 1.104.443 1.104 1.213v3.394c0 .74-.414 1.235-.976 1.235h-1.782v-5.842zm2.31-3.158c0 .854-.3 1.235-.975 1.235h-1.335v-4.389h1.335c.608 0 .976.511.976 1.235v1.919zm1.697 1.972c.274-.427.424-.92.424-1.427v-3.009c0-1.436-1.11-2.584-2.54-2.613H41s-.003.572 0 2.116c.007 3.625 0 13.884 0 13.884h4.579c.355 0 .801-.184.801-.184A2.63 2.63 0 0 0 48 23.386v-4.483c0-.68-.327-1.354-.871-1.854zM52.944 15.98v3.03h-1.91v-3.03a.04.04 0 0 1 .01-.028.09.09 0 0 0 .026-.01h1.844c.01.004.018.009.026.006a.08.08 0 0 1 .004.032m.192-1.98h-2.293C49.827 14 49 14.889 49 15.98v8.061c0 1.08.827 1.959 1.843 1.959H55s0-1.939-1.372-1.942c-.784-.002-2.541.001-2.541.001l-.044-.011-.009-.007v-3.09H55v-4.97C55 14.888 54.164 14 53.136 14M60.945 19.812v4.246l-1.858.001a.376.376 0 0 1-.044-.012.067.067 0 0 0-.008-.005l-.001-4.207a.052.052 0 0 1 .01-.013.102.102 0 0 0 .027-.01h1.874zM61.136 14h-2.403c-1.406 0-1.425 1.943-1.425 1.943h3.606c.01.003.02.008.026.005a.083.083 0 0 1 .005.033v1.889h-2.101c-1.017 0-1.844.878-1.844 1.958v4.214c0 1.08.827 1.958 1.844 1.958H63V15.98c0-1.09-.836-1.98-1.864-1.98zM67.526 21.211L66.142 14H64l2.278 12h2.444L71 14h-2.074zM83.12 14.01l-.341-.004c-.525-.007-.975-.011-1.19.006-.921.097-1.589.929-1.589 1.976V26h1.805s.023-6.598 0-9.347c-.006-.722-.006-.71.445-.726.41-.014.58-.028.773-.03C84 15.89 84 14.01 84 14.01h-.88z"/>
        <path fill="#FFF" d="M59 24v1h1a1 1 0 0 1-1-1M51 24v1h1a1 1 0 0 1-1-1M60 19.79h-1v1a1 1 0 0 1 1-1M52 15.927h-1v1a1 1 0 0 1 1-1M54 17v-1h-1a1 1 0 0 1 1 1M61 16.927v-1h-1a1 1 0 0 1 1 1M75.945 15.98v3.03h-1.91v-3.03a.04.04 0 0 1 .01-.028.09.09 0 0 0 .026-.01h1.843c.01.004.019.009.026.006a.08.08 0 0 1 .005.032m.19-1.98h-2.292C72.827 14 72 14.889 72 15.98v8.061c0 1.08.827 1.959 1.843 1.959H78s0-1.939-1.372-1.942c-.783-.002-2.54.001-2.54.001l-.044-.011-.01-.007v-3.09H78v-4.97C78 14.888 77.164 14 76.136 14"/>
        <path fill="#FFF" d="M73 16h-1v1a1 1 0 0 1 1-1M75.936 16.932v-1h-1a1 1 0 0 1 1 1"/>
    </g>
  </symbol>

  <symbol id="database" viewBox="0 0 32 32">
      <g stroke="none" stroke-width="1" fill-rule="evenodd" transform="translate(3.000000, 10.604400)">
          <path d="M12.269,11.0671 C19.047,11.0671 24.538,8.3221 24.538,4.9331 L24.538,0.3321 C24.538,3.7211 19.047,6.4661 12.269,6.4661 C5.491,6.4661 5.32907052e-15,3.7211 5.32907052e-15,0.3321 L5.32907052e-15,4.9331 C5.32907052e-15,8.3221 5.491,11.0671 12.269,11.0671" />
          <path d="M12.269,18.735 C19.047,18.735 24.538,15.99 24.538,12.6 L24.538,8 C24.538,11.389 19.047,14.134 12.269,14.134 C5.491,14.134 5.32907052e-15,11.389 5.32907052e-15,8 L5.32907052e-15,12.6 C5.32907052e-15,15.99 5.491,18.735 12.269,18.735" />
          <path d="M12.269,3.3991 C19.047,3.3991 24.538,0.6541 24.538,-2.7349 C24.538,-6.1239 19.047,-8.8699 12.269,-8.8699 C5.491,-8.8699 5.32907052e-15,-6.1239 5.32907052e-15,-2.7349 C5.32907052e-15,0.6541 5.491,3.3991 12.269,3.3991" />
      </g>
  </symbol>

  <symbol id="schema_system" viewBox="0 0 32 32">
      <g stroke="none" stroke-width="1" fill-rule="evenodd" transform="translate(3.000000, 4.000000)">
          <polygon points="6.835 6.4211 11.611 6.4211 11.611 5.0871 6.835 5.0871"></polygon>
          <polygon points="13.611 7.7541 19.613 7.7541 19.613 3.7531 13.611 3.7531"></polygon>
          <polygon points="6.835 13.1711 11.611 13.1711 11.611 11.8371 6.835 11.8371"></polygon>
          <polygon points="13.611 14.5041 19.613 14.5041 19.613 10.5031 13.611 10.5031"></polygon>
          <polygon points="6.835 19.5041 11.611 19.5041 11.611 18.1701 6.835 18.1701"></polygon>
          <polygon points="13.611 20.8371 19.613 20.8371 19.613 16.8361 13.611 16.8361"></polygon>
          <polygon points="0.826 2.4491 5.23 2.4491 5.23 0.0131 0.826 0.0131"></polygon>
          <polygon points="0.826 23.6991 5.23 23.6991 5.23 21.2641 0.826 21.2641"></polygon>
          <polygon points="0 23.5701 2.435 23.5701 2.435 0.0001 0 0.0001"></polygon>
          <polygon points="21 23.6851 25.404 23.6851 25.404 21.2501 21 21.2501"></polygon>
          <polygon points="21 2.4361 25.404 2.4361 25.404 0.0011 21 0.0011"></polygon>
          <polygon points="23.793 23.6991 26.229 23.6991 26.229 0.1291 23.793 0.1291"></polygon>
      </g>
  </symbol>

</svg>
