<?xml version="1.0" encoding="UTF-8" standalone="no"?>
<svg
    xmlns:dc="http://purl.org/dc/elements/1.1/"
    xmlns:cc="http://creativecommons.org/ns#"
    xmlns:rdf="http://www.w3.org/1999/02/22-rdf-syntax-ns#"
    xmlns="http://www.w3.org/2000/svg"
    viewBox="0 0 1755.6533 681.13202"
    height="681.13202"
    width="1755.6533"
    xml:space="preserve"
    id="svg2"
    version="1.1"><metadata
     id="metadata8"><rdf:RDF><cc:Work
         rdf:about=""><dc:format>image/svg+xml</dc:format><dc:type
           rdf:resource="http://purl.org/dc/dcmitype/StillImage" /></cc:Work></rdf:RDF></metadata><defs
     id="defs6"><clipPath
       id="clipPath18"
       clipPathUnits="userSpaceOnUse"><path
         id="path16"
         d="M 0,510.849 H 1316.744 V 0 H 0 Z" /></clipPath></defs><g
     transform="matrix(1.3333333,0,0,-1.3333333,0,681.132)"
     id="g10"><g
       id="g12"><g
         clip-path="url(#clipPath18)"
         id="g14"><g
           transform="translate(378.2744,336.3592)"
           id="g20"><path
             id="path22"
             style="fill:#ffffff;fill-opacity:1;fill-rule:nonzero;stroke:none"
             d="m 0,0 c -11.554,-43.547 -23.476,-80.873 -52.434,-80.873 -6.928,0 -49.101,-124.76 -78.318,-144.295 -31.844,-21.29 -50.706,63.057 -52.989,77.931 -3.745,24.4 9.109,66.364 43.598,153.652 9.618,43.617 35.719,84.078 85.487,87.189 C -23.349,95.561 11.454,43.171 0,0" /></g><g
           transform="translate(237.0083,111.1912)"
           id="g24"><path
             id="path26"
             style="fill:#8a7363;fill-opacity:1;fill-rule:nonzero;stroke:none"
             d="m 0,0 c 0,0 -10.356,29.535 -11.507,52.549 -1.151,23.014 4.986,36.821 4.986,36.821 0,0 7.288,-21.096 34.521,-41.425 C 55.233,27.617 53.699,39.507 54.849,41.809 56,44.11 54.466,57.535 48.712,72.11 c -5.753,14.576 -10.356,22.63 -11.89,52.164 -1.534,29.535 13.425,50.247 20.329,63.671 4.363,8.485 1.436,22.018 -1.309,30.834 -0.826,2.027 -1.602,4.219 -2.303,6.616 -0.505,1.3 -0.833,2.057 -0.833,2.057 0,0 0.135,-0.156 0.391,-0.442 -0.411,1.522 -0.805,3.092 -1.158,4.765 7.896,-8.052 35.513,-28.104 55.11,-26.152 19.597,1.951 21.827,38.706 21.827,38.706 5.385,-8.749 1.618,-24.725 0.613,-28.515 0.952,0.76 2.438,1.888 4.758,3.583 9.972,7.288 15.031,27.617 15.031,27.617 -1.184,14.915 -5.278,24.185 -9.049,29.812 -3.08,-8.962 -9.991,-19.206 -14.805,-20.607 -10.1,-2.938 -35.159,13.041 -31.068,22.247 1.491,3.354 5.83,6.158 11.298,8.292 -9.022,-1.553 -15.362,0.115 -24.408,-1.565 -4.621,-1.205 -7.371,-1.141 -15.601,-5.527 -10.101,-5.382 -11.506,-8.038 -15.071,-11.358 -12.638,-11.769 -27.376,-29.065 -31.141,-35.87 -7.415,-13.402 -14.675,-28.307 14.448,-32.58 -6.904,-7.1 -26.798,2.279 -26.798,2.279 0,0 -27.493,-45.931 -32.143,-101.366 C -29.708,45.337 -6.137,6.115 0,0" /></g><g
           transform="translate(375.8574,401.5476)"
           id="g28"><path
             id="path30"
             style="fill:#382924;fill-opacity:1;fill-rule:nonzero;stroke:none"
             d="m 0,0 c -6.176,2.316 -22.046,0.755 -33.195,-3.598 -5.469,-2.135 -9.807,-4.939 -11.298,-8.293 -4.091,-9.205 20.968,-25.185 31.068,-22.246 4.814,1.4 11.725,11.644 14.804,20.607 C 3.568,-7.159 3.825,-1.435 0,0" /></g><g
           transform="translate(319.0176,396.5179)"
           id="g32"><path
             id="path34"
             style="fill:#382924;fill-opacity:1;fill-rule:nonzero;stroke:none"
             d="m 0,0 c -2.862,0.365 -8.778,1.164 -10.667,3.304 -4.224,4.784 -10.995,6.069 -15.917,4.986 -5.217,-1.147 -7.993,-7.218 -4.412,-14.767 1.611,-3.397 1.203,-7.489 -0.439,-10.542 5.129,4.778 9.923,8.67 13.48,10.542 C -10.945,-2.79 -4.727,-0.877 0,0" /></g><g
           transform="translate(370.999,323.9622)"
           id="g36"><path
             id="path38"
             style="fill:#382924;fill-opacity:1;fill-rule:nonzero;stroke:none"
             d="m 0,0 c 0,0 -5.114,-17.388 -8.694,-25.315 -3.155,-6.986 -4.155,-6.427 -6.435,-7.246 0.857,2.166 1.475,5.008 2.599,9.803 1.353,5.769 0,7.288 0,7.288 -1.773,-8.633 -4.53,-14.802 -6.871,-18.85 -3.039,-1.016 -6.774,-1.672 -9.494,-0.584 -3.835,1.534 -4.487,19.562 -4.487,20.585 C -16.691,-15.47 -7.799,-8.694 0,0 m 15.287,17.75 c 1.038,7.979 0.275,13.95 0.055,15.387 -0.033,0.218 -0.055,0.339 -0.055,0.339 0,0 -0.031,-0.446 -0.113,-1.211 l 0.113,1.978 c 0,0 -5.059,-20.329 -15.031,-27.617 -2.32,-1.695 -3.806,-2.823 -4.758,-3.583 1.005,3.79 4.772,19.766 -0.612,28.515 0,0 -2.231,-36.755 -21.828,-38.706 -19.597,-1.952 -47.213,18.1 -55.11,26.152 0.353,-1.673 0.747,-3.243 1.158,-4.765 -0.255,0.286 -0.391,0.442 -0.391,0.442 0,0 0.328,-0.757 0.833,-2.057 0.702,-2.397 1.477,-4.589 2.303,-6.616 2.746,-8.816 5.672,-22.349 1.309,-30.834 -6.904,-13.424 -21.863,-34.136 -20.329,-63.671 1.534,-29.534 6.137,-37.588 11.891,-52.164 5.753,-14.575 7.287,-28 6.136,-30.301 -1.15,-2.302 0.384,-14.192 -26.849,6.136 -27.233,20.329 -34.52,41.425 -34.52,41.425 0,0 -6.137,-13.807 -4.987,-36.821 1.151,-23.014 11.507,-52.549 11.507,-52.549 0,0 -35.671,28.88 -37.589,86.686 -1.765,53.187 29.362,114.639 34.35,124.125 2.071,-4.425 5.538,-7.337 10.323,-8.674 0,0 -13.864,7.606 -3.697,37.237 10.166,29.631 30.52,55.982 51.156,67.61 20.635,11.628 38.023,11.117 57.201,2.934 0,0 -25.059,23.547 -58.317,3.435 -19.109,-11.557 -31.831,-24.379 -40.588,-37.521 -7.343,-1.311 -16.272,-0.127 -19.891,-0.127 -4.577,0 -11.637,-3.103 -8.445,-14.337 3.125,-11 11.75,-22.125 11.049,-28.378 -0.789,-4.402 -1.126,-8.365 -1.004,-11.857 -4.403,-6.981 -24.964,-40.482 -31.237,-67.108 0,0 11.758,117.544 -24.297,137.677 -36.055,20.134 -65.103,4.031 -74.794,-22.442 -20.713,-56.575 9.972,-144.986 53.314,-216.328 43.343,-71.342 84.413,-84.248 113.535,-85.535 48.712,-2.151 34.52,8.439 52.164,9.589 17.644,1.152 14.959,-9.589 44.11,-5.369 21.288,3.081 24.931,17.26 16.876,23.78 -8.055,6.521 -5.37,21.864 2.302,54.85 7.671,32.986 -3.324,91.054 -10.996,106.013 -7.671,14.959 -6.904,22.577 1.279,37.333 8.013,14.451 10.748,23.653 12.474,36.928" /></g><g
           transform="translate(520.2573,148.031)"
           id="g40"><path
             id="path42"
             style="fill:#d03e16;fill-opacity:1;fill-rule:nonzero;stroke:none"
             d="M 0,0 H -27.64 V 178.376 H 0 c 9.697,0 14.618,-7.162 14.618,-18.122 V 18.125 C 14.618,6.915 10.363,0 0,0 M 7.999,206.608 H -59.378 V -28.231 H 7.999 c 21.149,0 38.357,17.208 38.357,38.357 v 158.127 c 0,21.15 -17.208,38.355 -38.357,38.355" /></g><g
           transform="translate(620.8369,233.7654)"
           id="g44"><path
             id="path46"
             style="fill:#382923;fill-opacity:1;fill-rule:nonzero;stroke:none"
             d="m 0,0 h 24.771 c 9.321,0 16.528,-6.501 16.528,-17.805 v -49.804 c 0,-10.876 -6.207,-18.125 -14.617,-18.125 L 0,-85.734 Z M 34.6,46.356 C 34.6,33.824 30.093,28.234 19.985,28.234 H 0 V 92.642 H 19.985 C 29.093,92.642 34.6,85.146 34.6,74.52 Z M 59.999,17.408 c 4.1,6.264 6.342,13.515 6.342,20.949 v 44.162 c 0,21.079 -16.627,37.927 -38.039,38.355 h -60.043 c 0,0 -0.043,-8.4 0,-31.061 0.1,-53.195 0,-203.779 0,-203.779 h 68.539 c 5.327,0 11.999,2.703 11.999,2.703 14.414,5.843 24.241,19.801 24.241,35.655 v 65.802 c 0,9.986 -4.895,19.88 -13.039,27.214" /></g><g
           transform="translate(770.2549,265.4256)"
           id="g48"><path
             id="path50"
             style="fill:#382923;fill-opacity:1;fill-rule:nonzero;stroke:none"
             d="M 0,0 V -44.021 H -29.497 V 0 c 0,0.216 0.084,0.344 0.151,0.412 0.224,0.062 0.407,0.122 0.404,0.143 H -0.474 C -0.315,0.508 -0.185,0.427 -0.073,0.477 -0.052,0.44 0,0.284 0,0 M 2.953,28.786 H -32.449 C -48.146,28.786 -60.917,15.872 -60.917,0 v -117.157 c 0,-15.697 12.771,-28.469 28.468,-28.469 h 64.19 c 0,0 0,28.185 -21.189,28.231 -12.095,0.028 -39.236,-0.017 -39.236,-0.017 -0.227,0.039 -0.445,0.1 -0.677,0.166 -0.068,0.052 -0.128,0.091 -0.136,0.089 v 44.905 H 31.741 V 0 c 0,15.872 -12.914,28.786 -28.788,28.786" /></g><g
           transform="translate(877.959,209.743)"
           id="g52"><path
             id="path54"
             style="fill:#382923;fill-opacity:1;fill-rule:nonzero;stroke:none"
             d="m 0,0 v -61.717 l -28.687,-0.012 c -0.227,0.039 -0.445,0.1 -0.677,0.166 -0.071,0.051 -0.141,0.09 -0.136,0.088 l -0.015,61.136 c 0.021,0.055 0.088,0.133 0.156,0.193 0.227,0.063 0.417,0.123 0.417,0.146 z m 2.952,84.469 h -37.114 c -21.71,0 -22,-28.232 -22,-28.232 H -0.474 C -0.32,56.19 -0.169,56.11 -0.073,56.159 -0.052,56.123 0,55.967 0,55.683 V 28.231 h -32.452 c -15.697,0 -28.468,-12.771 -28.468,-28.468 v -61.238 c 0,-15.697 12.771,-28.468 28.468,-28.468 h 64.19 V 55.683 c 0,15.872 -12.914,28.786 -28.786,28.786" /></g><g
           transform="translate(963.2515,189.4031)"
           id="g56"><path
             id="path58"
             style="fill:#382923;fill-opacity:1;fill-rule:nonzero;stroke:none"
             d="M 0,0 -19.673,104.809 H -50.13 L -17.736,-69.604 H 16.997 L 49.389,104.809 H 19.902 Z" /></g><g
           transform="translate(1182.4878,294.2117)"
           id="g60"><path
             id="path62"
             style="fill:#382923;fill-opacity:1;fill-rule:nonzero;stroke:none"
             d="m 0,0 c -1.286,0 -3.419,0.023 -5.931,0.052 -9.126,0.099 -16.976,0.167 -20.723,-0.089 -16.02,-1.413 -27.648,-13.505 -27.648,-28.749 v -145.626 h 31.421 c 0,0 0.396,95.969 0,135.962 -0.104,10.504 -0.111,10.328 7.756,10.554 7.133,0.206 10.09,0.412 13.456,0.436 C 15.332,-27.343 15.332,0 15.332,0 Z" /></g><g
           transform="translate(848.4448,156.8767)"
           id="g64"><path
             id="path66"
             style="fill:#382923;fill-opacity:1;fill-rule:nonzero;stroke:none"
             d="M 0,0 V -8.893 H 8.893 C 3.981,-8.893 0,-4.911 0,0" /></g><g
           transform="translate(740.687,156.8767)"
           id="g68"><path
             id="path70"
             style="fill:#382923;fill-opacity:1;fill-rule:nonzero;stroke:none"
             d="M 0,0 V -8.893 H 8.893 C 3.981,-8.893 0,-4.911 0,0" /></g><g
           transform="translate(857.3374,209.9129)"
           id="g72"><path
             id="path74"
             style="fill:#382923;fill-opacity:1;fill-rule:nonzero;stroke:none"
             d="M 0,0 H -8.893 V -8.893 C -8.893,-3.981 -4.911,0 0,0" /></g><g
           transform="translate(749.5796,266.0901)"
           id="g76"><path
             id="path78"
             style="fill:#382923;fill-opacity:1;fill-rule:nonzero;stroke:none"
             d="M 0,0 H -8.893 V -8.893 C -8.893,-3.981 -4.911,0 0,0" /></g><g
           transform="translate(770.2549,257.1975)"
           id="g80"><path
             id="path82"
             style="fill:#382923;fill-opacity:1;fill-rule:nonzero;stroke:none"
             d="M 0,0 V 8.893 H -8.893 C -3.981,8.893 0,4.911 0,0" /></g><g
           transform="translate(878.019,257.1975)"
           id="g84"><path
             id="path86"
             style="fill:#382923;fill-opacity:1;fill-rule:nonzero;stroke:none"
             d="M 0,0 V 8.893 H -8.893 C -3.981,8.893 0,4.911 0,0" /></g><g
           transform="translate(1080.5884,265.4256)"
           id="g88"><path
             id="path90"
             style="fill:#382923;fill-opacity:1;fill-rule:nonzero;stroke:none"
             d="M 0,0 V -44.021 H -29.497 V 0 c 0,0.216 0.084,0.344 0.151,0.412 0.224,0.062 0.407,0.122 0.404,0.143 H -0.474 C -0.315,0.508 -0.185,0.427 -0.073,0.477 -0.052,0.44 0,0.284 0,0 M 2.953,28.786 H -32.449 C -48.146,28.786 -60.917,15.872 -60.917,0 v -117.157 c 0,-15.697 12.771,-28.469 28.468,-28.469 h 64.19 c 0,0 0,28.185 -21.189,28.231 -12.095,0.028 -39.236,-0.017 -39.236,-0.017 -0.227,0.039 -0.445,0.1 -0.677,0.166 -0.068,0.052 -0.128,0.091 -0.136,0.089 v 44.905 H 31.741 V 0 c 0,15.872 -12.914,28.786 -28.788,28.786" /></g><g
           transform="translate(1051.0205,156.8767)"
           id="g92"><path
             id="path94"
             style="fill:#382923;fill-opacity:1;fill-rule:nonzero;stroke:none"
             d="M 0,0 V -8.893 H 8.893 C 3.981,-8.893 0,-4.911 0,0" /></g><g
           transform="translate(1059.9131,266.0901)"
           id="g96"><path
             id="path98"
             style="fill:#382923;fill-opacity:1;fill-rule:nonzero;stroke:none"
             d="M 0,0 H -8.893 V -8.893 C -8.893,-3.981 -4.911,0 0,0" /></g><g
           transform="translate(1164.4365,266.3401)"
           id="g100"><path
             id="path102"
             style="fill:#382923;fill-opacity:1;fill-rule:nonzero;stroke:none"
             d="M 0,0 H -8.893 V -8.893 C -8.893,-3.981 -4.911,0 0,0" /></g><g
           transform="translate(1080.5889,257.1975)"
           id="g104"><path
             id="path106"
             style="fill:#382923;fill-opacity:1;fill-rule:nonzero;stroke:none"
             d="M 0,0 V 8.893 H -8.893 C -3.981,8.893 0,4.911 0,0" /></g></g></g></g></svg>