<svg xmlns="http://www.w3.org/2000/svg" width="14" height="14" viewBox="0 0 14 14">
    <g fill="none" fill-rule="evenodd">
        <path fill="#338ECC" fill-rule="nonzero" d="M9.682 8.61h-.565l-.2-.192a4.621 4.621 0 0 0 1.122-3.021 4.642 4.642 0 1 0-4.642 4.642c1.15 0 2.206-.422 3.02-1.122l.193.2v.565l3.571 3.563 1.064-1.064-3.563-3.57zm-4.285 0a3.21 3.21 0 0 1-3.214-3.213 3.21 3.21 0 0 1 3.214-3.214A3.21 3.21 0 0 1 8.61 5.397 3.21 3.21 0 0 1 5.397 8.61z"/>
        <path d="M-5-5h24v24H-5z"/>
    </g>
</svg>
