<?xml version="1.0" encoding="UTF-8" standalone="no" ?>
<svg width="32px" height="32px" view-box="0 0 32 32" version="1.1" xmlns="http://www.w3.org/2000/svg">
  <path d="M14.5931,9.7513 C17.4881,9.7513 19.8431,12.1063 19.8431,15.0013 C19.8431,17.8963 17.4881,20.2513 14.5931,20.2513 C11.6981,20.2513 9.3431,17.8963 9.3431,15.0013 C9.3431,12.1063 11.6981,9.7513 14.5931,9.7513 L14.5931,9.7513 Z M3.4481,13.5313 C3.3891,14.0113 3.3441,14.5063 3.3441,15.0013 C3.3441,15.4963 3.3891,15.9913 3.4481,16.4713 L0.2841,18.9453 C-0.0009,19.1703 -0.0759,19.5753 0.1041,19.9053 L3.1041,25.0953 C3.2841,25.4253 3.6891,25.5453 4.0191,25.4253 L7.7531,23.9253 C8.5331,24.5253 9.3731,25.0203 10.2881,25.3953 L10.8581,29.3703 C10.9031,29.7303 11.2181,30.0003 11.5931,30.0003 L17.5931,30.0003 C17.9681,30.0003 18.2821,29.7303 18.3271,29.3703 L18.8981,25.3953 C19.8131,25.0203 20.6531,24.5103 21.4331,23.9253 L25.1671,25.4253 C25.5121,25.5603 25.9031,25.4253 26.0821,25.0953 L29.0821,19.9053 C29.2621,19.5753 29.1871,19.1703 28.9031,18.9453 L25.7381,16.4713 C25.7971,15.9913 25.8421,15.5113 25.8421,15.0013 C25.8421,14.4913 25.7971,14.0113 25.7381,13.5313 L28.9031,11.0563 C29.1871,10.8313 29.2621,10.4263 29.0821,10.0963 L26.0821,4.9063 C25.9031,4.5763 25.4971,4.4563 25.1671,4.5763 L21.4331,6.0763 C20.6531,5.4763 19.8131,4.9813 18.8981,4.6063 L18.3271,0.6313 C18.2821,0.2723 17.9681,0.0013 17.5931,0.0013 L11.5931,0.0013 C11.2181,0.0013 10.9031,0.2723 10.8581,0.6313 L10.2881,4.6063 C9.3731,4.9813 8.5331,5.4913 7.7531,6.0763 L4.0191,4.5763 C3.6741,4.4413 3.2841,4.5763 3.1041,4.9063 L0.1041,10.0963 C-0.0909,10.4263 -0.0009,10.8313 0.2841,11.0563 L3.4481,13.5313 Z" fill="#338ECC"></path>
</svg>