<svg width="24" height="24" viewBox="0 0 24 24" fill="none" xmlns="http://www.w3.org/2000/svg">
<path fill-rule="evenodd" clip-rule="evenodd" d="M9.66634 1H8.33301V2.33333H9.66634V1ZM20.333 1V2.33333H18.9997V1H20.333ZM10.9997 2.33333V1H12.333V2.33333H10.9997ZM16.333 2.33333V1H17.6663V2.33333H16.333ZM18.9997 3.66667H20.333V5H18.9997V3.66667ZM9.66634 5H8.33301V3.66667H9.66634V5ZM13.6663 2.33333H14.9997V1H13.6663V2.33333ZM20.333 7.66667H18.9997V6.33333H20.333V7.66667ZM18.9997 9.33333V10.15C19.4609 10.2436 19.9068 10.3795 20.333 10.5535V9.33333H18.9997ZM3 9V21H10.865C11.2487 21.7258 11.748 22.3811 12.3384 22.9413C12.2327 22.9793 12.1188 23 12 23H2C1.44772 23 1 22.5523 1 22V8C1 7.44772 1.44772 7 2 7H12C12.5523 7 13 7.44772 13 8V11.4995C12.1907 12.1073 11.5084 12.8751 11 13.7558V9H3Z" fill="#338ECC"/>
<path fill-rule="evenodd" clip-rule="evenodd" d="M17.5004 15.9789L14.4966 13L13 14.5055L15.9824 17.4737L13 20.4945L14.4966 22L17.5004 18.9792L20.5034 22L22 20.4945L18.9863 17.4737L22 14.5055L20.5034 13L17.5004 15.9789Z" fill="#D7351F"/>
</svg>
