<svg width="32" height="32" viewBox="0 0 32 32" fill="none" xmlns="http://www.w3.org/2000/svg">
<path fill-rule="evenodd" clip-rule="evenodd" d="M2 4C1.44772 4 1 4.44772 1 5V7.04959C1 7.60188 1.44771 8.04959 2 8.04959H21.2922C21.6904 8.01675 22.0933 8 22.5 8C22.9067 8 23.3096 8.01675 23.7078 8.04959H29.697C30.2493 8.04959 30.697 7.60187 30.697 7.04959V5C30.697 4.44772 30.2493 4 29.697 4H2ZM8.18167 20.1983C8.06211 20.9479 8 21.7167 8 22.5C8 23.0916 8.03543 23.6749 8.10428 24.2479H2C1.44772 24.2479 1 23.8002 1 23.2479V21.1983C1 20.646 1.44772 20.1983 2 20.1983H8.18167ZM12.3968 12.0993C11.1991 13.2629 10.2017 14.6317 9.46127 16.1489H2C1.44772 16.1489 1 15.7012 1 15.1489V13.0993C1 12.547 1.44772 12.0993 2 12.0993H12.3968Z" fill="#338ECC"/>
<path fill-rule="evenodd" clip-rule="evenodd" d="M22.7903 21.8867L22.7747 15.9915L19.9092 16L19.9146 21.8645L14.1845 21.9012L14.176 24.7666L19.9266 24.7504L19.9096 30.5002L22.775 30.4917L22.7818 24.7317L28.4915 24.7751L28.5 21.9097L22.7903 21.8867Z" fill="#52C41A"/>
<path d="M9.95996 23.0508C9.95996 26.2676 10.8213 28.9658 12.5703 31.1016H14.9258C13.6338 29.4492 12.6055 26.1006 12.6055 23.0332C12.6055 19.9746 13.6338 16.626 14.9258 15H12.5703C10.8213 17.1094 9.95996 19.8076 9.95996 23.0508Z" fill="#338ECC"/>
<path d="M32 23.0508C32 19.834 31.1416 17.127 29.3805 15H27C28.3097 16.6436 29.3363 20.001 29.3363 23.0596C29.3363 26.1182 28.3009 29.4668 27 31.1016H29.3805C31.1327 28.9922 32 26.2939 32 23.0508Z" fill="#338ECC"/>
</svg>
