<svg width="16" height="16" viewBox="0 0 16 16" fill="none" xmlns="http://www.w3.org/2000/svg">
<path fill-rule="evenodd" clip-rule="evenodd" d="M3 14V6H8V9.92857L10 10.3V5C10 4.44772 9.55229 4 9 4H2C1.44772 4 1 4.44771 1 5V15C1 15.5523 1.44772 16 2 16H9C9.55229 16 10 15.5523 10 15V13L8 12.8V14H3Z" fill="#338ECC"/>
<path fill-rule="evenodd" clip-rule="evenodd" d="M14.1913 8.51951C13.9146 8.35353 13.2401 8.28909 13 8.28909V7C13.4044 7 14.3254 7.09669 14.8545 7.41412C15.4172 7.75175 15.8925 8.34767 15.8925 9.25591C15.8925 10.5191 14.6913 11.5505 12.9434 11.9769C11.1365 12.4176 8.50969 12.3085 5.05371 11.1565L5.46136 9.93353C8.7731 11.0374 11.1415 11.0895 12.6379 10.7245C14.1933 10.3451 14.6034 9.60407 14.6034 9.25591C14.6034 8.87505 14.4342 8.66529 14.1913 8.51951Z" fill="#338ECC"/>
<path fill-rule="evenodd" clip-rule="evenodd" d="M6 1H5V2H6V1ZM8 1H7V2H8V1ZM9 1H10V2H9V1ZM12 1H11V2H12V1ZM13 1H14V2H13V1ZM14 3H13V4H14V3ZM13 5H14V6H13V5ZM6 3H5V4H6V3Z" fill="#338ECC"/>
<path d="M3.5 9.29999H7.5L5.5 12.3L3.5 9.29999Z" fill="#338ECC"/>
</svg>
