<svg width="16" height="16" viewBox="0 0 16 16" fill="none" xmlns="http://www.w3.org/2000/svg">
<path fill-rule="evenodd" clip-rule="evenodd" d="M2 3C1.44772 3 1 3.44772 1 4C1 4.55228 1.44772 5 2 5H14C14.5523 5 15 4.55228 15 4C15 3.44772 14.5523 3 14 3H2ZM2 7C1.44772 7 1 7.44772 1 8C1 8.55228 1.44772 9 2 9H6.41604C6.76394 8.20375 7.31322 7.51562 7.99951 7H2ZM6 11C6 11.7111 6.14845 12.3875 6.41604 13H2C1.44772 13 1 12.5523 1 12C1 11.4477 1.44772 11 2 11H6Z" fill="#338ECC"/>
<path fill-rule="evenodd" clip-rule="evenodd" d="M12.1673 11.3329L12.1597 9.5L11.2399 9.50273L11.2443 11.3258L9.40503 11.3376L9.4023 12.2574L11.2481 12.2522L11.2426 14.0977L12.1624 14.095L12.1646 12.2461L13.9973 12.2601L14 11.3403L12.1673 11.3329Z" fill="#52C41A"/>
<path d="M7.3999 11.5C7.3999 12.8985 7.74681 14.0715 8.45123 15H9.3999C8.87955 14.2817 8.46539 12.8259 8.46539 11.4924C8.46539 10.1627 8.87955 8.70688 9.3999 8H8.45123C7.74681 8.91703 7.3999 10.0901 7.3999 11.5Z" fill="#338ECC"/>
<path d="M16 11.5C16 10.1015 15.6566 8.92467 14.9522 8H14C14.5239 8.71452 14.9345 10.1741 14.9345 11.5038C14.9345 12.8335 14.5204 14.2893 14 15H14.9522C15.6531 14.083 16 12.9099 16 11.5Z" fill="#338ECC"/>
</svg>
