<svg width="24" height="24" viewBox="0 0 24 24" fill="none" xmlns="http://www.w3.org/2000/svg">
<path fill-rule="evenodd" clip-rule="evenodd" d="M22 9H20V10.4268C20.4345 10.5803 20.8506 10.7728 21.2442 11H22V9Z" fill="#338ECC"/>
<path fill-rule="evenodd" clip-rule="evenodd" d="M3 21V9H11V13.7558C11.5084 12.8751 12.1907 12.1073 13 11.4995V8C13 7.44772 12.5523 7 12 7H2C1.44772 7 1 7.44772 1 8V22C1 22.5523 1.44772 23 2 23H12C12.1188 23 12.2327 22.9793 12.3384 22.9413C11.748 22.3811 11.2487 21.7258 10.865 21H3Z" fill="#338ECC"/>
<path fill-rule="evenodd" clip-rule="evenodd" d="M17.5004 15.9789L14.4966 13L13 14.5055L15.9824 17.4737L13 20.4945L14.4966 22L17.5004 18.9792L20.5034 22L22 20.4945L18.9863 17.4737L22 14.5055L20.5034 13L17.5004 15.9789Z" fill="#D7351F"/>
<path fill-rule="evenodd" clip-rule="evenodd" d="M10 1H8V3H10V1ZM10 5H8V7H10V5ZM12 1H14V3H12V1ZM18 1H16V3H18V1ZM20 1H22V3H20V1ZM22 5H20V7H22V5Z" fill="#338ECC"/>
</svg>
