<svg width="24" height="24" viewBox="0 0 24 24" fill="none" xmlns="http://www.w3.org/2000/svg">
<path fill-rule="evenodd" clip-rule="evenodd" d="M20 10.5V8.5C20.6275 8.5 21.1792 8.50751 22 9C22.873 9.52383 23.4998 10.5909 23.4998 12C23.4998 13.9598 21.6361 15.5601 18.9243 16.2215C16.1209 16.9053 12.0455 16.736 6.68359 14.9487L7.31605 13.0513C12.4542 14.764 16.1287 14.8447 18.4504 14.2785C20.8635 13.6899 21.4998 12.5402 21.4998 12C21.4998 11.257 20.7629 10.5 20 10.5Z" fill="#338ECC"/>
<path fill-rule="evenodd" clip-rule="evenodd" d="M3 21V9H11V12.5319C11.71 12.6919 12.3764 12.8134 13 12.9016V8C13 7.44772 12.5523 7 12 7H2C1.44772 7 1 7.44772 1 8V22C1 22.5523 1.44772 23 2 23H12C12.5523 23 13 22.5523 13 22V17.9419C12.3576 17.8684 11.6909 17.7674 11 17.6371V21H3Z" fill="#338ECC"/>
<path fill-rule="evenodd" clip-rule="evenodd" d="M10 1H8V3H10V1ZM14 1H12V3H14V1ZM16 1H18V3H16V1ZM22 1H20V3H22V1ZM20 5H22V7H20V5ZM12 19H14V21H12V19ZM18 19H16V21H18V19ZM20 19H22V21H20V19ZM8 5H10V7H8V5Z" fill="#338ECC"/>
<path d="M6 16.5L4 11.5L9.5 12.5L6 16.5Z" fill="#338ECC"/>
</svg>
