<svg width="16" height="16" viewBox="0 0 16 16" fill="none" xmlns="http://www.w3.org/2000/svg">
<g clip-path="url(#clip0)">
<path fill-rule="evenodd" clip-rule="evenodd" d="M4.3988 3.13864C4.05709 2.79693 3.50307 2.79693 3.16136 3.13864C2.81965 3.48035 2.81965 4.03437 3.16136 4.37608L6.78528 8L3.16136 11.6239C2.81965 11.9656 2.81965 12.5197 3.16136 12.8614C3.50307 13.2031 4.05709 13.2031 4.3988 12.8614L8.02272 9.23744L11.6466 12.8614C11.9883 13.2031 12.5424 13.2031 12.8841 12.8614C13.2258 12.5197 13.2258 11.9656 12.8841 11.6239L9.26015 8L12.8841 4.37608C13.2258 4.03437 13.2258 3.48035 12.8841 3.13864C12.5424 2.79693 11.9883 2.79693 11.6466 3.13864L8.02272 6.76256L4.3988 3.13864Z" fill="#E49388"/>
</g>
<defs>
<clipPath id="clip0">
<rect width="16" height="16" fill="white"/>
</clipPath>
</defs>
</svg>
