<svg width="24" height="24" viewBox="0 0 24 24" fill="none" xmlns="http://www.w3.org/2000/svg">
<path fill-rule="evenodd" clip-rule="evenodd" d="M1 4C0.447715 4 0 4.44772 0 5V6C0 6.55228 0.447716 7 1 7H21C21.5523 7 22 6.55228 22 6V5C22 4.44772 21.5523 4 21 4H1ZM1 10C0.447715 10 0 10.4477 0 11V12C0 12.5523 0.447716 13 1 13H9.58152C10.0511 11.8399 10.7849 10.815 11.7084 10H1ZM9 16C9 17.0609 9.20651 18.0736 9.58152 19H1C0.447716 19 0 18.5523 0 18V17C0 16.4477 0.447715 16 1 16H9Z" fill="#338ECC"/>
<path fill-rule="evenodd" clip-rule="evenodd" d="M17.9362 14.7887L17.9186 10.5582L15.7958 10.5645L15.8059 14.7723L11.5609 14.7994L11.5546 16.9222L15.8147 16.9102L15.8021 21.1697L17.9249 21.1634L17.9299 16.8963L22.1598 16.9285L22.1661 14.8057L17.9362 14.7887Z" fill="#52C41A"/>
</svg>
