<svg width="24" height="24" viewBox="0 0 24 24" fill="none" xmlns="http://www.w3.org/2000/svg">
<path fill-rule="evenodd" clip-rule="evenodd" d="M2 4C1.44772 4 1 4.44772 1 5V6C1 6.55228 1.44772 7 2 7H22C22.5523 7 23 6.55228 23 6V5C23 4.44772 22.5523 4 22 4H2ZM2 10C1.44772 10 1 10.4477 1 11V12C1 12.5523 1.44772 13 2 13H8.29431C8.55164 11.9325 8.97019 10.9186 9.5199 10H2ZM8.01406 16C8.06937 17.0549 8.28644 18.064 8.63941 19H2C1.44772 19 1 18.5523 1 18V17C1 16.4477 1.44772 16 2 16H8.01406Z" fill="#338ECC"/>
<path d="M10 16C10 18.3974 10.5204 20.4083 11.577 22H13C12.2195 20.7686 11.5982 18.2729 11.5982 15.9869C11.5982 13.7074 12.2195 11.2118 13 10H11.577C10.5204 11.5721 10 13.583 10 16Z" fill="#338ECC"/>
<path d="M24 16C24 13.6026 23.485 11.5852 22.4283 10H21C21.7858 11.2249 22.4018 13.7271 22.4018 16.0066C22.4018 18.286 21.7805 20.7817 21 22H22.4283C23.4796 20.4279 24 18.417 24 16Z" fill="#338ECC"/>
<path fill-rule="evenodd" clip-rule="evenodd" d="M18 12H16V15H13V17H16V20H18V17H21V15H18V12Z" fill="#52C41A"/>
</svg>
