<svg width="16" height="16" viewBox="0 0 16 16" fill="none" xmlns="http://www.w3.org/2000/svg">
<path fill-rule="evenodd" clip-rule="evenodd" d="M5.11914 1H6.14884V2.0189H5.11914V1ZM14.3864 2.0189V1H13.3567V2.0189H14.3864ZM7.17854 1V2.0189H8.20824V1H7.17854ZM11.2973 1V2.0189H12.327V1H11.2973ZM14.3864 3.03779H13.3567V4.05669H14.3864V3.03779ZM5.11914 4.82086H6.14884V3.03779H5.11914V4.82086Z" fill="#338ECC"/>
<path d="M10.2676 2.0189H9.23794V1H10.2676V2.0189Z" fill="#338ECC"/>
<path d="M13.3567 6.09448V5.07559H14.3864V6.09448H13.3567Z" fill="#338ECC"/>
<path fill-rule="evenodd" clip-rule="evenodd" d="M3 14V6H8V9.92857L10 10.3V5C10 4.44772 9.55229 4 9 4H2C1.44772 4 1 4.44771 1 5V15C1 15.5523 1.44772 16 2 16H9C9.55229 16 10 15.5523 10 15V13L8 12.8V14H3Z" fill="#338ECC"/>
<path fill-rule="evenodd" clip-rule="evenodd" d="M13.3505 8.28909C13.5906 8.28909 13.9152 8.35353 14.1918 8.51951C14.4348 8.66529 14.604 8.87505 14.604 9.25591C14.604 9.60407 14.1939 10.3451 12.6385 10.7245C11.321 11.0458 9.32753 11.0439 6.60944 10.2855L7.38272 10.265L7.37602 8.99373L3.34082 9.14572L5.31914 12.4687L6.42679 11.8092L6.25799 11.5257C9.12647 12.3267 11.353 12.3649 12.9439 11.9769C14.6918 11.5505 15.8931 10.5191 15.8931 9.25591C15.8931 8.34767 15.4177 7.75175 14.855 7.41412C14.326 7.09669 13.755 7 13.3505 7V8.28909Z" fill="#338ECC"/>
</svg>
