<?xml version="1.0" encoding="UTF-8"?>
<svg width="32px" height="32px" viewBox="0 0 32 32" version="1.1" xmlns="http://www.w3.org/2000/svg" xmlns:xlink="http://www.w3.org/1999/xlink">
    <!-- Generator: Sketch 53 (72520) - https://sketchapp.com -->
    <title>compile</title>
    <desc>Created with Sketch.</desc>
    <defs>
        <polygon id="path-1" points="0.000484375 0.151111111 30.4918906 0.151111111 30.4918906 16.6587722 0.000484375 16.6587722"></polygon>
    </defs>
    <g id="compile" stroke="none" stroke-width="1" fill="none" fill-rule="evenodd">
        <g id="Page-1" transform="translate(1.000000, 2.000000)">
            <polygon id="Fill-1" fill="#338ECC" points="26.6662352 19 26.6662352 24.6831938 3.33279399 24.6831938 3.33279399 19 0 19 0 24.6831938 0 28 3.33279399 28 26.6662352 28 30 28 30 24.6831938 30 19"></polygon>
            <g id="Group-4">
                <mask id="mask-2" fill="white">
                    <use xlink:href="#path-1"></use>
                </mask>
                <g id="Clip-3"></g>
                <path d="M15.2515156,5.19982778 C13.3014219,2.17477222 9.85751563,0.150827778 5.93504688,0.150827778 L0.000484375,0.150827778 L0.000484375,3.45260556 L5.93504688,3.45260556 C10.1345781,3.45260556 13.5552344,6.78743889 13.5552344,10.8806611 L13.5552344,11.7061056 L10.1684844,11.7061056 L15.2486094,16.6587722 L20.3277656,11.7061056 L16.9419844,11.7061056 L16.9419844,10.8806611 C16.9419844,10.6709944 16.9216406,10.46605 16.9090469,10.2592167 C16.9293906,10.2601611 16.9487656,10.2592167 16.9691094,10.2601611 C17.2946094,6.45593889 20.5718906,3.45260556 24.5563594,3.45260556 L30.4918906,3.45260556 L30.4918906,0.150827778 L24.5563594,0.150827778 C20.6358281,0.150827778 17.1977344,2.17571667 15.2515156,5.19982778" id="Fill-2" fill="#338ECC" mask="url(#mask-2)"></path>
            </g>
        </g>
    </g>
</svg>