<svg width="16" height="16" viewBox="0 0 16 16" fill="none" xmlns="http://www.w3.org/2000/svg">
<path fill-rule="evenodd" clip-rule="evenodd" d="M6 1H5V2H6V1ZM8 1H7V2H8V1ZM9 1H10V2H9V1ZM12 1H11V2H12V1ZM13 1H14V2H13V1ZM14 3H13V4H14V3ZM13 5H14V6H13V5ZM6 3H5V4H6V3Z" fill="#338ECC"/>
<path fill-rule="evenodd" clip-rule="evenodd" d="M3 14V6H8V8.99951C8.51562 8.31322 9.20375 7.76394 10 7.41604V5C10 4.44772 9.55229 4 9 4H2C1.44772 4 1 4.44771 1 5V15C1 15.5523 1.44772 16 2 16H8.99951C8.31322 15.4844 7.76394 14.7963 7.41604 14H3Z" fill="#338ECC"/>
<path fill-rule="evenodd" clip-rule="evenodd" d="M12.0003 10.9859L9.99771 9L9 10.0037L10.9883 11.9825L9 13.9963L9.99771 15L12.0003 12.9861L14.0023 15L15 13.9963L12.9908 11.9825L15 10.0037L14.0023 9L12.0003 10.9859Z" fill="#D7351F"/>
</svg>
