<svg width="24" height="24" viewBox="0 0 24 24" fill="none" xmlns="http://www.w3.org/2000/svg">
<path fill-rule="evenodd" clip-rule="evenodd" d="M1 4C0.447715 4 0 4.44772 0 5V6C0 6.55228 0.447716 7 1 7H23C23.5523 7 24 6.55228 24 6V5C24 4.44772 23.5523 4 23 4H1ZM1 16C0.447715 16 0 16.4477 0 17V18C0 18.5523 0.447716 19 1 19H9.58152C9.20651 18.0736 9 17.0609 9 16H1ZM9.58152 13H1C0.447716 13 0 12.5523 0 12V11C0 10.4477 0.447715 10 1 10H11.7084C10.7849 10.815 10.0511 11.8399 9.58152 13Z" fill="#338ECC"/>
<path fill-rule="evenodd" clip-rule="evenodd" d="M11.5609 14.7994L11.5546 16.9222L22.1598 16.9285L22.1661 14.8057L11.5609 14.7994Z" fill="#E73E52"/>
</svg>
