<svg width="24" height="24" viewBox="0 0 24 24" fill="none" xmlns="http://www.w3.org/2000/svg">
<path fill-rule="evenodd" clip-rule="evenodd" d="M19 10.5C19.3725 10.5 20.4311 10.6 20.8603 10.8575C21.2373 11.0837 21.4998 11.4091 21.4998 12C21.4998 12.5402 20.8635 13.6899 18.4504 14.2785C16.4426 14.7682 13.4228 14.774 9.31965 13.6588L10.2657 13.6794L10.3506 11.709L4.08594 11.6422L6.90277 16.9399L8.66866 16.0009L8.38955 15.476C12.918 16.7627 16.4262 16.8308 18.9243 16.2215C21.6361 15.5601 23.4998 13.9598 23.4998 12C23.4998 10.5909 22.7624 9.66633 21.8893 9.14251C21.0685 8.65001 19.6275 8.5 19 8.5V10.5Z" fill="#338ECC"/>
<path fill-rule="evenodd" clip-rule="evenodd" d="M9.66634 1H8.33301V2.33333H9.66634V1ZM20.333 21H18.9997V19.6667H20.333V21ZM20.333 1V2.33333H18.9997V1H20.333ZM10.9997 2.33333V1H12.333V2.33333H10.9997ZM16.333 2.33333V1H17.6663V2.33333H16.333ZM18.9997 3.66667H20.333V5H18.9997V3.66667ZM17.333 19.6667V21H15.9997V19.6667H17.333ZM9.66634 5H8.33301V3.66667H9.66634V5ZM13.6663 2.33333H14.9997V1H13.6663V2.33333ZM18.9997 7.09994L20.333 7.3666V6.33333H18.9997V7.09994ZM20.333 18.3333V17.1334L18.9997 17.4001V18.3333H20.333ZM14.3333 19.6667H13V17.9419C12.3576 17.8684 11.6909 17.7674 11 17.6371V21H3V9H11V12.5319C11.71 12.6919 12.3764 12.8134 13 12.9016V8C13 7.44772 12.5523 7 12 7H9.66634V6.33333H8.33301V7H2C1.44772 7 1 7.44772 1 8V22C1 22.5523 1.44772 23 2 23H12C12.5523 23 13 22.5523 13 22V21H14.3333V19.6667Z" fill="#338ECC"/>
</svg>
