<svg id="Layer_1" data-name="Layer 1" xmlns="http://www.w3.org/2000/svg" viewBox="0 0 16 16"><polygon points="10.51 11.37 9.45 10.3 6.97 12.78 8.03 13.84 9.45 15.26 10.51 14.19 9.09 12.78 10.51 11.37" fill="#338ecc"/><rect x="-1.83" y="7.53" width="19.09" height="1.5" transform="translate(-3.59 7.88) rotate(-45)" fill="#338ecc"/><polygon points="1.97 3.03 1.97 4.53 12.41 4.53 13.91 3.03 1.97 3.03" fill="#338ecc"/><polygon points="1.97 12.03 1.97 13.53 3.41 13.53 4.91 12.03 1.97 12.03" fill="#338ecc"/><polygon points="1.97 7.53 1.97 9.03 7.91 9.03 9.41 7.53 1.97 7.53" fill="#338ecc"/><path d="M11.48,7.58,10,9H11a1.5,1.5,0,0,1,0,3H8.22v1.5H11a3,3,0,0,0,.51-5.95Z" fill="#338ecc"/></svg>