<svg id="Layer_1" data-name="Layer 1" xmlns="http://www.w3.org/2000/svg" viewBox="0 0 32 32"><polygon points="21.07 21.67 18.95 19.55 14 24.5 16.12 26.62 18.95 29.45 21.07 27.33 18.24 24.5 21.07 21.67" fill="#338ecc"/><rect x="-3.59" y="14" width="38.18" height="3" transform="translate(-6.42 15.5) rotate(-45)" fill="#338ecc"/><polygon points="4 5 4 8 24.88 8 27.88 5 4 5" fill="#338ecc"/><polygon points="4 23 4 26 6.88 26 9.88 23 4 23" fill="#338ecc"/><polygon points="4 14 4 17 15.88 17 18.88 14 4 14" fill="#338ecc"/><path d="M23,14.09,20.12,17H22a3,3,0,0,1,0,6H16.5v3H22a6,6,0,0,0,1-11.91Z" fill="#338ecc"/></svg>