<svg id="Layer_1" data-name="Layer 1" xmlns="http://www.w3.org/2000/svg" viewBox="0 0 24 24"><polygon points="16.1 16.71 14.51 15.12 10.79 18.83 12.39 20.42 14.51 22.54 16.1 20.95 13.98 18.83 16.1 16.71" fill="#338ecc"/><rect x="-2.4" y="10.95" width="28.64" height="2.25" transform="translate(-5.05 11.97) rotate(-45)" fill="#338ecc"/><polygon points="3.29 4.21 3.29 6.46 18.95 6.46 21.2 4.21 3.29 4.21" fill="#338ecc"/><polygon points="3.29 17.7 3.29 19.95 5.46 19.95 7.71 17.7 3.29 17.7" fill="#338ecc"/><polygon points="3.29 10.96 3.29 13.21 12.21 13.21 14.46 10.96 3.29 10.96" fill="#338ecc"/><path d="M17.57,11,15.39,13.2H16.8a2.25,2.25,0,0,1,0,4.5H12.67V20H16.8A4.49,4.49,0,0,0,17.57,11Z" fill="#338ecc"/></svg>