<svg width="24" height="24" viewBox="0 0 24 24" fill="none" xmlns="http://www.w3.org/2000/svg">
<path d="M22.08 1C22.336 1 22.5635 1.10198 22.7299 1.26839C22.8981 1.43654 23 1.66616 23 1.92V22.08C23 22.3338 22.8981 22.5635 22.7299 22.7316C22.5635 22.898 22.336 23 22.08 23H1.92C1.66403 23 1.43647 22.898 1.27006 22.7316C1.10191 22.5635 1 22.3338 1 22.08V1.92C1 1.66616 1.10191 1.43654 1.27006 1.26839C1.43647 1.10198 1.66403 1 1.92 1H22.08Z" stroke="white" stroke-width="2"/>
<path fill-rule="evenodd" clip-rule="evenodd" d="M12 4C11.4477 4 11 4.44772 11 5V11H5C4.44772 11 4 11.4477 4 12C4 12.5523 4.44772 13 5 13H11V19C11 19.5523 11.4477 20 12 20C12.5523 20 13 19.5523 13 19V13H19C19.5523 13 20 12.5523 20 12C20 11.4477 19.5523 11 19 11H13V5C13 4.44772 12.5523 4 12 4Z" fill="white"/>
</svg>