<svg width="24" height="24" viewBox="0 0 24 24" fill="none" xmlns="http://www.w3.org/2000/svg">
<path d="M22.08 1C22.336 1 22.5635 1.10198 22.7299 1.26839C22.8981 1.43654 23 1.66616 23 1.92V22.08C23 22.3338 22.8981 22.5635 22.7299 22.7316C22.5635 22.898 22.336 23 22.08 23H1.92C1.66403 23 1.43647 22.898 1.27006 22.7316C1.10191 22.5635 1 22.3338 1 22.08V1.92C1 1.66616 1.10191 1.43654 1.27006 1.26839C1.43647 1.10198 1.66403 1 1.92 1H22.08Z" stroke="white" stroke-width="2"/>
<path d="M15.5556 6.66663L15.4445 6.66663C13.7876 6.66663 12.4445 8.00977 12.4445 9.66663L12.4445 14.3333C12.4445 15.9901 11.1013 17.3333 9.44449 17.3333H9.33337L15.5556 17.3333" stroke="white"/>
<circle cx="17.5" cy="6.5" r="2.5" stroke="white"/>
<circle cx="17.5" cy="17.5" r="2.5" stroke="white"/>
<circle cx="6.5" cy="17.5" r="2.5" fill="white" stroke="white"/>
</svg>
