<svg width="32" height="32" viewBox="0 0 32 32" fill="none" xmlns="http://www.w3.org/2000/svg">
<path d="M26.08 4C26.6114 4 27.0905 4.21472 27.437 4.56128C27.7853 4.90956 28 5.39065 28 5.92V26.08C28 26.6093 27.7853 27.0904 27.437 27.4387C27.0905 27.7853 26.6114 28 26.08 28H5.92C5.38856 28 4.90952 27.7853 4.56296 27.4387C4.21468 27.0904 4 26.6093 4 26.08V5.92C4 5.39065 4.21468 4.90956 4.56296 4.56128C4.90952 4.21472 5.38856 4 5.92 4H26.08Z" stroke="white" stroke-width="2"/>
<path d="M19.5556 10.6666L19.4445 10.6666C17.7876 10.6666 16.4445 12.0098 16.4445 13.6666L16.4445 18.3333C16.4445 19.9901 15.1013 21.3333 13.4445 21.3333H13.3334L19.5556 21.3333" stroke="white"/>
<circle cx="22.2222" cy="10.6667" r="2.66667" stroke="white"/>
<circle cx="22.2222" cy="21.3333" r="2.66667" stroke="white"/>
<circle cx="10.6667" cy="21.3333" r="2.66667" fill="white" stroke="white"/>
</svg>
