<svg width="36" height="36" viewBox="0 0 36 36" fill="none" xmlns="http://www.w3.org/2000/svg">
<path d="M28.5 5.5C29.0536 5.5 29.5526 5.72366 29.9136 6.08467C30.2764 6.44746 30.5 6.9486 30.5 7.5V28.5C30.5 29.0514 30.2764 29.5525 29.9136 29.9153C29.5526 30.2763 29.0536 30.5 28.5 30.5H7.5C6.94642 30.5 6.44742 30.2763 6.08641 29.9153C5.72362 29.5525 5.5 29.0514 5.5 28.5V7.5C5.5 6.9486 5.72362 6.44746 6.08641 6.08467C6.44742 5.72366 6.94642 5.5 7.5 5.5H28.5Z" stroke="white" stroke-width="2"/>
<path d="M21.5 11.75L21 11.75C19.3431 11.75 18 13.0931 18 14.75L18 20.75C18 22.4069 16.6569 23.75 15 23.75H14.5L21.5 23.75" stroke="white"/>
<circle cx="24.5" cy="11.75" r="3" stroke="white"/>
<circle cx="24.5" cy="23.75" r="3" stroke="white"/>
<circle cx="11.5" cy="23.75" r="3" fill="white" stroke="white"/>
</svg>
