<svg width="32" height="32" viewBox="0 0 32 32" fill="none" xmlns="http://www.w3.org/2000/svg">
<path d="M26.08 4C26.6114 4 27.0905 4.21472 27.437 4.56128C27.7853 4.90956 28 5.39065 28 5.92V26.08C28 26.6093 27.7853 27.0904 27.437 27.4387C27.0905 27.7853 26.6114 28 26.08 28H5.92C5.38856 28 4.90952 27.7853 4.56296 27.4387C4.21468 27.0904 4 26.6093 4 26.08V5.92C4 5.39065 4.21468 4.90956 4.56296 4.56128C4.90952 4.21472 5.38856 4 5.92 4H26.08Z" stroke="white" stroke-width="2"/>
<path fill-rule="evenodd" clip-rule="evenodd" d="M16 8C15.4477 8 15 8.44772 15 9V15H9C8.44772 15 8 15.4477 8 16C8 16.5523 8.44772 17 9 17H15V23C15 23.5523 15.4477 24 16 24C16.5523 24 17 23.5523 17 23V17H23C23.5523 17 24 16.5523 24 16C24 15.4477 23.5523 15 23 15H17V9C17 8.44772 16.5523 8 16 8Z" fill="white"/>
</svg>
