<svg width="32" height="32" viewBox="0 0 32 32" fill="none" xmlns="http://www.w3.org/2000/svg">
<circle cx="16" cy="16" r="12" stroke="white" stroke-width="2"/>
<path d="M17.3633 20.1953H15.1836C15.1914 19.4453 15.2578 18.832 15.3828 18.3555C15.5156 17.8711 15.7305 17.4297 16.0273 17.0312C16.3242 16.6328 16.7188 16.1797 17.2109 15.6719C17.5703 15.3047 17.8984 14.9609 18.1953 14.6406C18.5 14.3125 18.7461 13.9609 18.9336 13.5859C19.1211 13.2031 19.2148 12.7461 19.2148 12.2148C19.2148 11.6758 19.1172 11.2109 18.9219 10.8203C18.7344 10.4297 18.4531 10.1289 18.0781 9.91797C17.7109 9.70703 17.2539 9.60156 16.707 9.60156C16.2539 9.60156 15.8242 9.68359 15.418 9.84766C15.0117 10.0117 14.6836 10.2656 14.4336 10.6094C14.1836 10.9453 14.0547 11.3867 14.0469 11.9336H11.8789C11.8945 11.0508 12.1133 10.293 12.5352 9.66016C12.9648 9.02734 13.543 8.54297 14.2695 8.20703C14.9961 7.87109 15.8086 7.70312 16.707 7.70312C17.6992 7.70312 18.543 7.88281 19.2383 8.24219C19.9414 8.60156 20.4766 9.11719 20.8438 9.78906C21.2109 10.4531 21.3945 11.2422 21.3945 12.1562C21.3945 12.8594 21.25 13.5078 20.9609 14.1016C20.6797 14.6875 20.3164 15.2383 19.8711 15.7539C19.4258 16.2695 18.9531 16.7617 18.4531 17.2305C18.0234 17.6289 17.7344 18.0781 17.5859 18.5781C17.4375 19.0781 17.3633 19.6172 17.3633 20.1953ZM15.0898 23.9102C15.0898 23.5586 15.1992 23.2617 15.418 23.0195C15.6367 22.7773 15.9531 22.6562 16.3672 22.6562C16.7891 22.6562 17.1094 22.7773 17.3281 23.0195C17.5469 23.2617 17.6562 23.5586 17.6562 23.9102C17.6562 24.2461 17.5469 24.5352 17.3281 24.7773C17.1094 25.0195 16.7891 25.1406 16.3672 25.1406C15.9531 25.1406 15.6367 25.0195 15.418 24.7773C15.1992 24.5352 15.0898 24.2461 15.0898 23.9102Z" fill="white"/>
</svg>
