<svg width="24" height="24" viewBox="0 0 24 24" fill="none" xmlns="http://www.w3.org/2000/svg">
<circle cx="12" cy="12" r="11" stroke="white" stroke-width="2"/>
<path d="M12.9112 16.1655H10.9112C10.9183 15.4773 10.9793 14.9146 11.094 14.4773C11.2158 14.0329 11.413 13.6279 11.6854 13.2623C11.9578 12.8967 12.3198 12.4809 12.7714 12.015C13.1011 11.678 13.4022 11.3626 13.6746 11.0687C13.9542 10.7676 14.18 10.4451 14.352 10.101C14.5241 9.74972 14.6101 9.33037 14.6101 8.84291C14.6101 8.34829 14.5205 7.92176 14.3413 7.56334C14.1692 7.20492 13.9112 6.92893 13.5671 6.73538C13.2302 6.54183 12.8108 6.44506 12.309 6.44506C11.8932 6.44506 11.499 6.52033 11.1262 6.67087C10.7535 6.8214 10.4524 7.05438 10.223 7.36979C9.9936 7.67804 9.87532 8.08305 9.86815 8.58485H7.87891C7.89324 7.77481 8.09396 7.07947 8.48106 6.49882C8.87532 5.91818 9.40579 5.47373 10.0725 5.16549C10.7391 4.85725 11.4846 4.70312 12.309 4.70312C13.2194 4.70312 13.9936 4.868 14.6316 5.19775C15.2768 5.5275 15.7678 6.00062 16.1047 6.6171C16.4416 7.22642 16.6101 7.95044 16.6101 8.78915C16.6101 9.43431 16.4775 10.0293 16.2122 10.5741C15.9542 11.1117 15.6208 11.6171 15.2122 12.0902C14.8036 12.5633 14.3699 13.015 13.9112 13.4451C13.5169 13.8107 13.2517 14.2228 13.1155 14.6816C12.9793 15.1404 12.9112 15.635 12.9112 16.1655ZM10.8251 19.5741C10.8251 19.2515 10.9255 18.9791 11.1262 18.7569C11.3269 18.5347 11.6173 18.4236 11.9972 18.4236C12.3843 18.4236 12.6782 18.5347 12.8789 18.7569C13.0796 18.9791 13.18 19.2515 13.18 19.5741C13.18 19.8823 13.0796 20.1476 12.8789 20.3698C12.6782 20.592 12.3843 20.7031 11.9972 20.7031C11.6173 20.7031 11.3269 20.592 11.1262 20.3698C10.9255 20.1476 10.8251 19.8823 10.8251 19.5741Z" fill="white"/>
</svg>
