<svg width="16" height="16" viewBox="0 0 16 16" fill="none" xmlns="http://www.w3.org/2000/svg">
<path fill-rule="evenodd" clip-rule="evenodd" d="M12.25 1C12.6642 1 13 1.33579 13 1.75L13 8.11151C12.6784 8.03853 12.3437 8 12 8C11.831 8 11.6642 8.00932 11.5 8.02746L11.5 2.5L2.5 2.5L2.5 13.5L7.61151 13.5C7.73496 14.044 7.95697 14.5506 8.25778 15L1.75 15C1.33579 15 1 14.6642 1 14.25V1.75C1 1.33579 1.33579 1 1.75 1L12.25 1ZM11.5 9.98573H13V13H11.5V9.98573ZM9.7487 13.1809L12.1912 14.9572C12.2262 14.9827 12.2738 14.9827 12.3088 14.9572L14.7513 13.1809C14.8296 13.1239 14.7893 13 14.6925 13H9.80752C9.71067 13 9.67038 13.1239 9.7487 13.1809ZM3.75 5.75H9.75V7.25H3.75V5.75ZM6.25 8.25H3.75V9.75H6.25V8.25Z" fill="#EE8A18"/>
</svg>
