<svg width="40" height="40" viewBox="0 0 40 40" fill="none" xmlns="http://www.w3.org/2000/svg">
    <circle opacity="0.3" cx="20" cy="20" r="20" fill="#E73E52"/>
    <path fill-rule="evenodd" clip-rule="evenodd" d="M20.8741 9.51443C20.4931 8.82852 19.5067 8.82852 19.1257 9.51443L9.12724 27.5152C8.75702 28.1817 9.23899 29.0007 10.0014 29.0007H29.9984C30.7608 29.0007 31.2428 28.1817 30.8726 27.5152L20.8741 9.51443ZM19.2303 22.4125L19.0744 14.9599H20.878L20.7296 22.4125H19.2303ZM21.123 25.1204C21.123 25.807 20.6702 26.2699 19.9874 26.2699C19.2971 26.2699 18.8369 25.807 18.8369 25.1204C18.8369 24.4261 19.2971 23.9632 19.9874 23.9632C20.6702 23.9632 21.123 24.4261 21.123 25.1204Z" fill="#E73E52"/>
</svg>
