<svg width="16" height="16" viewBox="0 0 16 16" fill="none" xmlns="http://www.w3.org/2000/svg">
<path fill-rule="evenodd" clip-rule="evenodd" d="M8 9C4.13401 9 1.93333 6.3 1 4.5H2.43914C3.39058 6.0143 5.17528 7.75 8 7.75C10.8247 7.75 12.6094 6.0143 13.5609 4.5H15C14.0667 6.3 11.866 9 8 9ZM14.9999 8.77009L13.7144 7.23804L12.9484 7.88081L14.2339 9.41286L14.9999 8.77009ZM8.5 12.2499V10.25H7.50003V12.2499H8.5ZM1 8.77009L2.28554 7.23805L3.05156 7.88082L1.76602 9.41286L1 8.77009ZM4.50498 9.23861L3.75578 11.0929L4.68294 11.4675L5.43213 9.61321L4.50498 9.23861ZM11.4323 9.23861L12.1815 11.0929L11.2543 11.4675L10.5051 9.61321L11.4323 9.23861Z" fill="#338ECC"/>
</svg>
