<svg width="16" height="16" viewBox="0 0 16 16" fill="none" xmlns="http://www.w3.org/2000/svg">
<path fill-rule="evenodd" clip-rule="evenodd" d="M8 11.25C10.8247 11.25 12.6094 9.5143 13.5609 8C12.6094 6.4857 10.8247 4.75 8 4.75C5.17528 4.75 3.39058 6.4857 2.43914 8C3.39058 9.5143 5.17528 11.25 8 11.25ZM15 8C14.0667 9.8 11.866 12.5 8 12.5C4.13401 12.5 1.93333 9.8 1 8C1.93333 6.2 4.13401 3.5 8 3.5C11.866 3.5 14.0667 6.2 15 8ZM7.99997 9.88333C9.0309 9.88333 9.86663 9.0476 9.86663 8.01666C9.86663 6.98573 9.0309 6.15 7.99997 6.15C6.96904 6.15 6.1333 6.98573 6.1333 8.01666C6.1333 9.0476 6.96904 9.88333 7.99997 9.88333Z" fill="#338ECC"/>
</svg>
