<svg width="16" height="16" viewBox="0 0 16 16" fill="none" xmlns="http://www.w3.org/2000/svg">
<g id="root">
<path fill-rule="evenodd" clip-rule="evenodd" d="M2.5 8C2.5 11.0376 4.96243 13.5 8 13.5C8.78821 13.5 9.5349 13.3351 10.2099 13.0384L11.3302 14.1586C10.3398 14.6953 9.2055 15 8 15C4.13401 15 1 11.866 1 8C1 4.13401 4.13401 1 8 1C11.866 1 15 4.13401 15 8C15 9.09409 14.749 10.1296 14.3014 11.0519L15.203 11.0271C15.5895 11.0165 15.9114 11.3211 15.922 11.7076C15.9327 12.0941 15.628 12.4159 15.2415 12.4265L11.7145 12.5237L11.6174 8.99658C11.6067 8.61013 11.9114 8.28823 12.2978 8.27759C12.6843 8.26695 13.0062 8.57156 13.0168 8.95806L13.0493 10.1367C13.0593 10.1277 13.0699 10.1188 13.0811 10.1102C13.3509 9.46145 13.5 8.74933 13.5 8C13.5 4.96243 11.0376 2.5 8 2.5C4.96243 2.5 2.5 4.96243 2.5 8Z" fill="#338ECC"/>
</g>
</svg>
