<svg width="24" height="24" viewBox="0 0 24 24" xmlns="http://www.w3.org/2000/svg">
<g id="root">
<g clip-path="url(#clip0_3855_1099)">
<path class="icon-fill" fill-rule="evenodd" clip-rule="evenodd" d="M20 16.15L19.9566 14.0274C19.9418 13.49 19.4942 13.0664 18.9569 13.0812C18.4195 13.096 17.9959 13.5436 18.0107 14.081L18.1457 18.9854L23.0501 18.8503C23.5874 18.8356 24.0111 18.388 23.9963 17.8506C23.9815 17.3133 23.5339 16.8896 22.9965 16.9044L21.4698 16.9465C21.8613 15.1648 20.4707 15.7246 20 16.15Z"/>
<path class="icon-fill" fill-rule="evenodd" clip-rule="evenodd" d="M21.4624 17.6125C22.4391 15.9694 23 14.0502 23 12C23 5.92487 18.0751 1 12 1C5.92487 1 1 5.92487 1 12C1 18.0751 5.92487 23 12 23C13.8943 23 15.6767 22.5212 17.2329 21.678L15.7424 20.1874C14.6028 20.7092 13.3353 21 12 21C7.02944 21 3 16.9706 3 12C3 7.02944 7.02944 3 12 3C16.9706 3 21 7.02944 21 12C21 13.4937 20.6361 14.9023 19.9922 16.1422L21.4624 17.6125Z"/>
</g>
<defs>
<clipPath id="clip0_3855_1099">
<rect width="24" height="24" fill="white"/>
</clipPath>
</defs>
</g>
</svg>
