<svg width="32" height="32" viewBox="0 0 32 32" fill="none" xmlns="http://www.w3.org/2000/svg">
<g id="root">
<g clip-path="url(#clip0_3855_1147)">
<path fill-rule="evenodd" clip-rule="evenodd" d="M16 28C17.7521 28 19.4165 27.6245 20.9171 26.9496L23.1546 29.187C21.0281 30.3432 18.5907 31 16 31C7.71573 31 1 24.2843 1 16C1 7.71573 7.71573 1 16 1C24.2843 1 31 7.71573 31 16C31 18.3502 30.4595 20.5742 29.496 22.5544L30.6897 22.5215C31.3983 22.502 31.9885 23.0606 32.008 23.7691C32.0275 24.4778 31.4689 25.0679 30.7603 25.0874L24.2935 25.2654L24.1155 18.7986C24.096 18.0901 24.6546 17.4999 25.3631 17.4804C26.0717 17.4609 26.6618 18.0194 26.6814 18.728V21.457C26.6867 21.4522 26.6921 21.4474 26.6977 21.4426C27.5304 19.809 28 17.9593 28 16C28 9.37258 22.6274 4 16 4C9.37258 4 4 9.37258 4 16C4 22.6274 9.37258 28 16 28Z" fill="#338ECC"/>
</g>
<defs>
<clipPath id="clip0_3855_1147">
<rect width="32" height="32" fill="white"/>
</clipPath>
</defs>
</g>
</svg>
