<svg width="16" height="16" viewBox="0 0 16 16" fill="none" xmlns="http://www.w3.org/2000/svg">
<g id="root">
<g clip-path="url(#clip0_3835_1532)">
<rect y="3.82837" width="4" height="1.2" transform="rotate(-45 0 3.82837)" fill="#338ECC"/>
<path fill-rule="evenodd" clip-rule="evenodd" d="M15.1998 8.8001C15.1998 12.7765 11.9763 16.0001 7.9998 16.0001C4.02335 16.0001 0.799805 12.7765 0.799805 8.8001C0.799805 4.82365 4.02335 1.6001 7.9998 1.6001C11.9763 1.6001 15.1998 4.82365 15.1998 8.8001ZM7.9998 14.8001C11.3135 14.8001 13.9998 12.1138 13.9998 8.8001C13.9998 5.48639 11.3135 2.8001 7.9998 2.8001C4.6861 2.8001 1.9998 5.48639 1.9998 8.8001C1.9998 12.1138 4.6861 14.8001 7.9998 14.8001Z" fill="#338ECC"/>
<path fill-rule="evenodd" clip-rule="evenodd" d="M8.60051 4.83997H7.40051V9.83709L7.40039 9.83721L7.40051 9.83733V9.83997H7.40315L9.52171 11.9585L10.3702 11.11L8.60051 9.34027V4.83997Z" fill="#C4C4C4"/>
</g>
<defs>
<clipPath id="clip0_3835_1532">
<rect width="16" height="16" fill="white"/>
</clipPath>
</defs>
</g>
</svg>
