<svg width="32" height="32" viewBox="0 0 32 32" fill="none" xmlns="http://www.w3.org/2000/svg">
<g id="root">
<g clip-path="url(#clip0_3855_1023)">
<path fill-rule="evenodd" clip-rule="evenodd" d="M17.5 8H14.5V16L18.7426 20.2426L20.864 18.1213L17.5 14.7574V8Z" fill="#C4C4C4"/>
<path fill-rule="evenodd" clip-rule="evenodd" d="M5.65685 -0.000488281L0 5.65637L2.12132 7.77769L7.77817 2.12083L5.65685 -0.000488281ZM16 0.999733C17.1888 0.999733 18.3453 1.13803 19.4543 1.39942C18.8689 2.2308 18.4379 3.17872 18.203 4.2015C17.4888 4.069 16.7525 3.99973 16 3.99973C9.37258 3.99973 4 9.37232 4 15.9997C4 22.6271 9.37258 27.9997 16 27.9997C22.6274 27.9997 28 22.6271 28 15.9997C28 15.2473 27.9308 14.5111 27.7983 13.7971C28.8211 13.5621 29.769 13.1311 30.6004 12.5457C30.8617 13.6546 31 14.811 31 15.9997C31 24.284 24.2843 30.9997 16 30.9997C7.71573 30.9997 1 24.284 1 15.9997C1 7.71546 7.71573 0.999733 16 0.999733Z" fill="#338ECC"/>
</g>
<defs>
<clipPath id="clip0_3855_1023">
<rect width="32" height="32" fill="white"/>
</clipPath>
</defs>
</g>
</svg>
