<svg width="24" height="24" viewBox="0 0 24 24" fill="none" xmlns="http://www.w3.org/2000/svg">
<g id="root">
<path fill-rule="evenodd" clip-rule="evenodd" d="M22.6831 9.3681C22.8902 10.2114 23 11.0929 23 12C23 18.0751 18.0751 23 12 23C5.92487 23 1 18.0751 1 12C1 5.92487 5.92487 1 12 1C12.9071 1 13.7886 1.10981 14.6319 1.31685C14.3363 1.90704 14.1352 2.55274 14.0484 3.23415C13.3904 3.08098 12.7047 3 12 3C7.02944 3 3 7.02944 3 12C3 16.9706 7.02944 21 12 21C16.9706 21 21 16.9706 21 12C21 11.2953 20.919 10.6096 20.7659 9.95158C21.4473 9.86477 22.093 9.66367 22.6831 9.3681Z" fill="#338ECC"/>
<path fill-rule="evenodd" clip-rule="evenodd" d="M13 7H11V13H11.0139L14.578 16.5641L15.9922 15.1499L13 12.1577V7Z" fill="#C4C4C4"/>
<rect y="4.24268" width="6" height="2" transform="rotate(-45 0 4.24268)" fill="#338ECC"/>
</g>
</svg>
