<svg xmlns="http://www.w3.org/2000/svg" width="18" height="18" viewBox="0 0 18 18">
    <path fill="#F0840E" d="M14.4 8.1h-2.862C11.16 7.056 10.17 6.3 9 6.3c-1.17 0-2.16.756-2.538 1.8H3.6c-.297 0-1.8-.09-1.8-1.8v-.9c0-1.647 1.386-1.8 1.8-1.8h9.162c.378 1.044 1.368 1.8 2.538 1.8 1.491 0 2.7-1.209 2.7-2.7S16.791 0 15.3 0c-1.17 0-2.16.756-2.538 1.8H3.6C2.151 1.8 0 2.754 0 5.4v.9c0 2.646 2.151 3.6 3.6 3.6h2.862C6.84 10.944 7.83 11.7 9 11.7c1.17 0 2.16-.756 2.538-1.8H14.4c.297 0 1.8.09 1.8 1.8v.9c0 1.647-1.386 1.8-1.8 1.8H5.238C4.86 13.356 3.87 12.6 2.7 12.6c-1.491 0-2.7 1.209-2.7 2.7S1.209 18 2.7 18c1.17 0 2.16-.756 2.538-1.8H14.4c1.449 0 3.6-.963 3.6-3.6v-.9c0-2.637-2.151-3.6-3.6-3.6zm.9-6.3c.497 0 .9.403.9.9s-.403.9-.9.9-.9-.403-.9-.9.403-.9.9-.9zM2.7 16.2c-.497 0-.9-.403-.9-.9s.403-.9.9-.9.9.403.9.9-.403.9-.9.9z"/>
</svg>
