<svg xmlns="http://www.w3.org/2000/svg" width="32" height="32" fill="none" viewBox="0 0 32 32">
    <path fill="#2D6083" fill-rule="evenodd" d="M16 32c8.837 0 16-7.163 16-16S24.837 0 16 0 0 7.163 0 16s7.163 16 16 16zm-5.887-19.498l5.51-5.405c.13-.127.34-.127.47 0l5.512 5.404c.083.083.024.286-.094.286h-1.796v5.143h-2.57v-2.572c0-.71-.576-1.285-1.287-1.285-.71 0-1.285.575-1.285 1.285v2.572h-2.571v-5.143h-1.796c-.118 0-.177-.204-.093-.286zm7.554 9.927c-.194-.544-.622-.973-1.167-1.167V19.5h-1.285v1.763c-.545.194-.973.623-1.167 1.167H9v1.286h5.048c.266.747.973 1.286 1.81 1.286.837 0 1.543-.54 1.81-1.286H23v-1.286h-5.333z" clip-rule="evenodd"/>
</svg>
