<svg xmlns="http://www.w3.org/2000/svg" width="32" height="32" fill="none" viewBox="0 0 32 32">
    <path fill="#3F94CF" fill-rule="evenodd" d="M16 32c8.837 0 16-7.163 16-16S24.837 0 16 0 0 7.163 0 16s7.163 16 16 16zm0-22.24c3.44 0 6.227 2.784 6.227 6.218v6.663l-3.769-3.015v-2.21c0-1.403-1.117-2.543-2.496-2.543-1.386 0-2.504 1.14-2.504 2.544v2.276l-3.687 2.95v-6.665c0-3.434 2.79-6.217 6.229-6.217zm8 14.235h-1.007L23 24H9.5l.005-.004L8 24l.005-8.022C8.005 11.573 11.585 8 16 8c4.412 0 7.995 3.572 7.995 7.978L24 23.995z" clip-rule="evenodd"/>
</svg>
