<?xml version="1.0" encoding="UTF-8"?>
<svg width="32px" height="32px" viewBox="0 0 32 32" version="1.1" xmlns="http://www.w3.org/2000/svg" xmlns:xlink="http://www.w3.org/1999/xlink">
    <!-- Generator: Sketch 53 (72520) - https://sketchapp.com -->
    <title>group</title>
    <desc>Created with Sketch.</desc>
    <defs>
        <polygon id="path-1" points="0 22.208 0 0.0003 29.0417 0.0003 29.0417 22.208"></polygon>
    </defs>
    <g id="group" stroke="none" stroke-width="1" fill="none" fill-rule="evenodd">
        <g id="Page-1" transform="translate(1.000000, 4.000000)">
            <mask id="mask-2" fill="white">
                <use xlink:href="#path-1"></use>
            </mask>
            <g id="Clip-2"></g>
            <path d="M18.7917,10.25 C21.6217,10.25 23.9167,7.955 23.9167,5.125 C23.9167,2.295 21.6217,0 18.7917,0 C18.2447,0 17.7157,0.085 17.2197,0.239 C18.1937,1.623 18.7917,3.314 18.7917,5.125 C18.7917,6.936 18.1937,8.61 17.2197,9.994 C17.7157,10.165 18.2447,10.25 18.7917,10.25 M10.2497,10.25 C13.0807,10.25 15.3747,7.955 15.3747,5.125 C15.3747,2.295 13.0807,0 10.2497,0 C7.4197,0 5.1247,2.295 5.1247,5.125 C5.1247,7.955 7.4197,10.25 10.2497,10.25 M21.5597,13.94 C22.9767,15.17 23.9167,16.776 23.9167,18.792 L23.9167,22.208 L29.0417,22.208 L29.0417,18.792 C29.0417,16.161 24.9927,14.521 21.5597,13.94 M10.2497,13.667 C6.8337,13.667 -0.0003,15.375 -0.0003,18.792 L-0.0003,22.208 L20.4997,22.208 L20.4997,18.792 C20.4997,15.375 13.6667,13.667 10.2497,13.667" id="Fill-1" fill="#338ECC" mask="url(#mask-2)"></path>
        </g>
    </g>
</svg>