<?xml version="1.0" encoding="UTF-8"?>
<svg width="32px" height="32px" viewBox="0 0 32 32" version="1.1" xmlns="http://www.w3.org/2000/svg" xmlns:xlink="http://www.w3.org/1999/xlink">
    <!-- Generator: Sketch 53 (72520) - https://sketchapp.com -->
    <title>user</title>
    <desc>Created with Sketch.</desc>
    <g id="user" stroke="none" stroke-width="1" fill="none" fill-rule="evenodd">
        <path d="M15.8,5.2779 C17.801,5.2779 19.422,6.8999 19.422,8.8999 C19.422,10.9009 17.801,12.5229 15.8,12.5229 L15.8,12.5229 C13.799,12.5229 12.178,10.9009 12.178,8.8999 L12.178,8.8999 C12.178,6.8999 13.799,5.2779 15.8,5.2779 Z M15.8,20.8029 C20.923,20.8029 26.322,23.3209 26.322,24.4249 L26.322,26.3229 L5.278,26.3229 L5.278,24.4249 C5.278,23.3209 10.625,20.8029 15.8,20.8029 L15.8,20.8029 Z M15.8,2.0009 C11.989,2.0009 8.9,5.0899 8.9,8.8999 C8.9,12.7109 11.989,15.7999 15.8,15.7999 C19.611,15.7999 22.7,12.7109 22.7,8.8999 C22.7,5.0899 19.611,2.0009 15.8,2.0009 L15.8,2.0009 Z M15.8,17.5249 C11.194,17.5249 2,19.8199 2,24.4249 L2,29.5999 L29.6,29.5999 L29.6,24.4249 C29.6,19.8199 20.406,17.5249 15.8,17.5249 L15.8,17.5249 Z" id="Page-1" fill="#338ECC"></path>
    </g>
</svg>