<svg width="16" height="16" viewBox="0 0 16 16" fill="none" xmlns="http://www.w3.org/2000/svg">
<path fill-rule="evenodd" clip-rule="evenodd" d="M8.99238 7.87594C10.7215 7.43455 12 5.86658 12 4C12 1.79086 10.2091 0 8 0C5.79086 0 4 1.79086 4 4C4 5.86658 5.27853 7.43455 7.00762 7.87594C7.00259 7.91658 7 7.95799 7 8V10H5V12H7V13H4V15H7C7 15.5523 7.44772 16 8 16C8.55228 16 9 15.5523 9 15V13V12V10V8C9 7.95799 8.99741 7.91658 8.99238 7.87594ZM10 4C10 5.10457 9.10457 6 8 6C6.89543 6 6 5.10457 6 4C6 2.89543 6.89543 2 8 2C9.10457 2 10 2.89543 10 4Z" fill="#EE8A18"/>
</svg>
