<svg width="16" height="16" viewBox="0 0 16 16" fill="none" xmlns="http://www.w3.org/2000/svg">
<path fill-rule="evenodd" clip-rule="evenodd" d="M2.62055 4.47056C2.62055 2.63689 4.10744 1.15 5.94111 1.15C7.77538 1.15 9.26168 2.637 9.26168 4.47056C9.26168 6.30413 7.77538 7.79112 5.94111 7.79112C4.10744 7.79112 2.62055 6.30423 2.62055 4.47056ZM5.94111 2.85C5.04632 2.85 4.32055 3.57577 4.32055 4.47056C4.32055 5.36535 5.04632 6.09112 5.94111 6.09112C6.83628 6.09112 7.56168 5.36546 7.56168 4.47056C7.56168 3.57566 6.83628 2.85 5.94111 2.85ZM10.049 1.30344C10.367 1.20471 10.7069 1.15 11.0589 1.15C12.8925 1.15 14.3794 2.63689 14.3794 4.47056C14.3794 6.30423 12.8925 7.79112 11.0589 7.79112C10.7069 7.79112 10.3577 7.73634 10.024 7.6213C9.77146 7.53422 9.57452 7.33346 9.49232 7.07926C9.41011 6.82506 9.4522 6.547 9.60596 6.32852C9.98421 5.79104 10.2089 5.15261 10.2089 4.47056C10.2089 3.78675 9.98311 3.14032 9.60596 2.60441C9.44953 2.38214 9.40884 2.09847 9.49646 1.84118C9.58408 1.5839 9.78946 1.38403 10.049 1.30344ZM11.6697 2.96914C11.8236 3.44201 11.9089 3.94676 11.9089 4.47056C11.9089 4.99649 11.8229 5.50079 11.6682 5.9726C12.2612 5.73171 12.6794 5.14984 12.6794 4.47056C12.6794 3.79186 12.2619 3.2104 11.6697 2.96914ZM2.53737 9.41669C3.66938 8.96392 5.01199 8.73832 5.94111 8.73832C6.87047 8.73832 8.21308 8.96392 9.34505 9.41669C9.91169 9.64334 10.4791 9.94783 10.9184 10.3534C11.3637 10.7644 11.7322 11.3353 11.7322 12.0589V13.7056C11.7322 14.175 11.3517 14.5556 10.8822 14.5556H0.999994C0.530552 14.5556 0.149994 14.175 0.149994 13.7056V12.0589C0.149994 11.3353 0.518625 10.7644 0.963951 10.3533C1.40331 9.94781 1.97071 9.64333 2.53737 9.41669ZM2.117 11.6025C1.89316 11.8091 1.84999 11.9589 1.84999 12.0589V12.8556H10.0322V12.0589C10.0322 11.9588 9.98905 11.8091 9.76526 11.6025C9.5355 11.3904 9.17644 11.1802 8.7137 10.9951C7.78691 10.6244 6.65896 10.4383 5.94111 10.4383C5.22352 10.4383 4.09557 10.6244 3.16869 10.9951C2.70592 11.1802 2.3468 11.3904 2.117 11.6025ZM11.6246 9.35691C11.7873 9.01241 12.1594 8.81827 12.5351 8.88184C13.4524 9.0371 14.2734 9.3484 14.8785 9.88053C15.5101 10.4359 15.85 11.1847 15.85 12.0589V13.7056C15.85 14.175 15.4694 14.5556 15 14.5556H13.5294C13.06 14.5556 12.6794 14.175 12.6794 13.7056V12.0589C12.6794 11.3856 12.3766 10.831 11.836 10.3618C11.5483 10.1121 11.4619 9.7014 11.6246 9.35691Z" fill="#EE8A18"/>
</svg>
