<svg id="Layer_1" data-name="Layer 1" xmlns="http://www.w3.org/2000/svg" viewBox="0 0 16 16"><defs><style>.cls-1{fill:#338ecc;}</style></defs><path class="cls-1" d="M12,1H6a1.24,1.24,0,0,0-.27,0,2,2,0,0,0-1.28.72l0,0A1.76,1.76,0,0,0,4.29,2H5.68l.44,0,.13,0h5.5A1.25,1.25,0,0,1,13,3.25v10a1.91,1.91,0,0,0,.55-.47l0,0a2.14,2.14,0,0,0,.2-.32l0-.06a1.75,1.75,0,0,0,.12-.32l0-.09A2.12,2.12,0,0,0,14,11.5V3A2,2,0,0,0,12,1Z"/><path class="cls-1" d="M3.78,4.1A1.24,1.24,0,0,1,4.25,4h5.5A1.25,1.25,0,0,1,11,5.25v6.07l1,1V5a2,2,0,0,0-2-2H4a1.24,1.24,0,0,0-.27,0A1.78,1.78,0,0,0,3,3.3Z"/><path class="cls-1" d="M11,12.68v.57h0a1.27,1.27,0,0,1,0,.28l0,.08a1.46,1.46,0,0,1-.07.19.43.43,0,0,0,0,.07.66.66,0,0,1-.12.17l0,.05a1.54,1.54,0,0,1-.19.17,1.25,1.25,0,0,1-.73.24H4.25A1.25,1.25,0,0,1,3,13.25v-8H3A.86.86,0,0,1,3,5a.24.24,0,0,1,0-.08s0-.07,0-.11L2.3,4l-.07.11,0,.06a1.75,1.75,0,0,0-.12.32l0,.09A2.12,2.12,0,0,0,2,5v8.5a2,2,0,0,0,2,2h6l.27,0a2,2,0,0,0,1.28-.72l0,0a2.14,2.14,0,0,0,.2-.32l0-.06a1.75,1.75,0,0,0,.12-.32l0-.09a2.66,2.66,0,0,0,0-.28Z"/><rect class="cls-1" x="6.52" y="0.52" width="0.96" height="16.96" transform="translate(-4.31 7.59) rotate(-45)"/></svg>