<svg id="Layer_1" data-name="Layer 1" xmlns="http://www.w3.org/2000/svg" viewBox="0 0 32 32"><defs><style>.cls-1{fill:#338ecc;}</style></defs><path class="cls-1" d="M25,1H13a4.34,4.34,0,0,0-.53.05A3.94,3.94,0,0,0,9.9,2.5l0,0a3.92,3.92,0,0,0-.42.64l-.06.12A3.33,3.33,0,0,0,9.16,4l0,0h2.38l.06-.08.07-.09a2.77,2.77,0,0,1,.4-.36A2.51,2.51,0,0,1,13.5,3h11A2.5,2.5,0,0,1,27,5.5v16h0a2.69,2.69,0,0,1-.07.57.88.88,0,0,1-.05.15,2.35,2.35,0,0,1-.14.37c0,.05,0,.1-.08.14a2.16,2.16,0,0,1-.24.35l-.07.09a2.77,2.77,0,0,1-.4.36,2.45,2.45,0,0,1-.95.41V26h0a4.34,4.34,0,0,0,.53-.05A3.94,3.94,0,0,0,28.1,24.5l0,0a3.92,3.92,0,0,0,.42-.64l.06-.12a3.33,3.33,0,0,0,.23-.65l.06-.17A4.32,4.32,0,0,0,29,22V5A4,4,0,0,0,25,1Z"/><circle class="cls-1" cx="11.5" cy="17.5" r="1.5"/><path class="cls-1" d="M11.5,14c3,0,5.5,3.5,5.5,3.5S14.54,21,11.5,21,6,17.5,6,17.5,8.46,14,11.5,14m0-2c-4,0-6.82,3.9-7.14,4.35L3.55,17.5l.81,1.15C4.68,19.1,7.54,23,11.5,23s6.82-3.9,7.14-4.35l.81-1.15-.81-1.15C18.32,15.9,15.46,12,11.5,12Z"/><path class="cls-1" d="M20,5H8a4.34,4.34,0,0,0-.53,0,4,4,0,0,0-.78.19h0a3.42,3.42,0,0,0-.7.32H6A4,4,0,0,0,4.9,6.5l0,0a3.92,3.92,0,0,0-.42.64l-.06.12A3.33,3.33,0,0,0,4.16,8l-.06.17c0,.16-.06.32-.08.49H4C4,8.74,4,8.86,4,9v4.66a15.14,15.14,0,0,1,2-1.75V9.5H6a2.69,2.69,0,0,1,.07-.57.88.88,0,0,1,0-.15,1.34,1.34,0,0,1,.07-.18,1.46,1.46,0,0,1,.07-.19c0-.05,0-.1.08-.14a2.16,2.16,0,0,1,.24-.35l.07-.09a2.77,2.77,0,0,1,.4-.36,2.81,2.81,0,0,1,.54-.29L8,7.06H8A2.31,2.31,0,0,1,8.5,7h11A2.5,2.5,0,0,1,22,9.5v16h0a2.69,2.69,0,0,1-.07.57.88.88,0,0,1-.05.15,1.34,1.34,0,0,1-.07.18,1.46,1.46,0,0,1-.07.19c0,.05,0,.1-.08.14a2.16,2.16,0,0,1-.24.35l-.07.09a2.77,2.77,0,0,1-.4.36,2.81,2.81,0,0,1-.54.29,3.31,3.31,0,0,1-.42.12h0a2.31,2.31,0,0,1-.46.05H8.5A2.5,2.5,0,0,1,6,25.5V23.09a15.14,15.14,0,0,1-2-1.75V26a4,4,0,0,0,4,4H20a4.34,4.34,0,0,0,.53-.05,4,4,0,0,0,.78-.19h0a3.42,3.42,0,0,0,.7-.32h0a4,4,0,0,0,1.08-.93l0,0a3.92,3.92,0,0,0,.42-.64l.06-.12a3.33,3.33,0,0,0,.23-.65l.06-.17c0-.16.06-.32.08-.49h0c0-.13,0-.25,0-.39V9A4,4,0,0,0,20,5Z"/></svg>