<svg id="Layer_1" data-name="Layer 1" xmlns="http://www.w3.org/2000/svg" viewBox="0 0 16 16"><defs><style>.cls-1{fill:#338ecc;}</style></defs><path class="cls-1" d="M12,1H6a1.24,1.24,0,0,0-.27,0,2,2,0,0,0-1.28.72l0,0A1.76,1.76,0,0,0,4.29,2H5.68l.44,0,.13,0h5.5A1.25,1.25,0,0,1,13,3.25v10a1.91,1.91,0,0,0,.55-.47l0,0a2.14,2.14,0,0,0,.2-.32l0-.06a1.75,1.75,0,0,0,.12-.32l0-.09A2.12,2.12,0,0,0,14,11.5V3A2,2,0,0,0,12,1Z"/><circle class="cls-1" cx="5.61" cy="9.5" r="0.75"/><path class="cls-1" d="M5.61,7.75c1.52,0,2.75,1.75,2.75,1.75s-1.23,1.75-2.75,1.75S2.86,9.5,2.86,9.5,4.09,7.75,5.61,7.75m0-1C3.63,6.75,2.2,8.7,2,8.92l-.4.58.4.58c.16.22,1.59,2.17,3.57,2.17S9,10.3,9.18,10.08l.4-.58-.4-.58C9,8.7,7.59,6.75,5.61,6.75Z"/><path class="cls-1" d="M10,3H4A2,2,0,0,0,2,5V7.44a7.32,7.32,0,0,1,1-.82V5A1,1,0,0,1,4,4h6a1,1,0,0,1,1,1v8a1,1,0,0,1-1,1H4a1,1,0,0,1-1-1v-.62a7.32,7.32,0,0,1-1-.82V13a2,2,0,0,0,2,2h6a2,2,0,0,0,2-2V5A2,2,0,0,0,10,3Z"/></svg>