<svg id="Layer_1" data-name="Layer 1" xmlns="http://www.w3.org/2000/svg" viewBox="0 0 24 24"><defs><style>.cls-1{fill:#338ecc;}</style></defs><path class="cls-1" d="M18,1.25H9a2.58,2.58,0,0,0-.4,0A2.94,2.94,0,0,0,6.67,2.38l0,0a2.56,2.56,0,0,0-.22.35H8.52c.22,0,.44,0,.65,0a1.33,1.33,0,0,1,.21,0h8.24A1.88,1.88,0,0,1,19.5,4.63v15a2.83,2.83,0,0,0,.83-.71l0,0a2.71,2.71,0,0,0,.31-.49l.05-.08a2.84,2.84,0,0,0,.17-.49.93.93,0,0,0,0-.13A2.84,2.84,0,0,0,21,17V4.25A3,3,0,0,0,18,1.25Z"/><circle class="cls-1" cx="8.21" cy="13.63" r="1.13"/><path class="cls-1" d="M8.21,11c2.28,0,4.12,2.63,4.12,2.63s-1.84,2.62-4.12,2.62-4.13-2.62-4.13-2.62S5.93,11,8.21,11m0-1.5c-3,0-5.12,2.93-5.35,3.26l-.61.87.61.86c.23.33,2.38,3.26,5.35,3.26s5.11-2.93,5.35-3.26l.61-.86-.61-.87c-.24-.33-2.38-3.26-5.35-3.26Z"/><path class="cls-1" d="M15,4.25H6a2.58,2.58,0,0,0-.4,0A2.83,2.83,0,0,0,5,4.44H5a3.22,3.22,0,0,0-.53.25,3.07,3.07,0,0,0-.79.69l0,0a2.71,2.71,0,0,0-.31.49L3.3,6V6a2.84,2.84,0,0,0-.17.49.93.93,0,0,0,0,.13A2.84,2.84,0,0,0,3,7.25v3.08A9.92,9.92,0,0,1,4.5,9.15V7.63h0a2,2,0,0,1,0-.42s0-.07,0-.11A1.45,1.45,0,0,1,4.7,6.8a.47.47,0,0,1,0-.1l.18-.26L5,6.37a1.93,1.93,0,0,1,.3-.27,1.69,1.69,0,0,1,.38-.19,2.5,2.5,0,0,1,.25-.09,2.34,2.34,0,0,1,.45-.07h8.25A1.88,1.88,0,0,1,16.5,7.63v7.56h0v4.44h0a2,2,0,0,1-.05.42s0,.07,0,.11a1.45,1.45,0,0,1-.11.29l-.05.1-.18.26-.06.07a1.93,1.93,0,0,1-.3.27,1.69,1.69,0,0,1-.38.19,2.5,2.5,0,0,1-.25.09,2.32,2.32,0,0,1-.46.07H6.38A1.88,1.88,0,0,1,4.5,19.62V18.1A9.92,9.92,0,0,1,3,16.92V20H3a3,3,0,0,0,3,3h9a2.58,2.58,0,0,0,.4,0,2.83,2.83,0,0,0,.59-.15h0a3.22,3.22,0,0,0,.53-.25h0a2.89,2.89,0,0,0,.79-.69l0,0a2.71,2.71,0,0,0,.31-.49l0,0,0,0a2.84,2.84,0,0,0,.17-.49.93.93,0,0,0,0-.13.13.13,0,0,0,0-.06c0-.12,0-.24,0-.36h0A1.75,1.75,0,0,0,18,20V16.69h0V7.25h0A3,3,0,0,0,15,4.25Z"/></svg>