<svg id="Layer_1" data-name="Layer 1" xmlns="http://www.w3.org/2000/svg" viewBox="0 0 32 32"><defs><style>.cls-1{fill:#338ecc;}</style></defs><path class="cls-1" d="M25,1H13a4.34,4.34,0,0,0-.53.05A3.94,3.94,0,0,0,9.9,2.5l0,0a3.92,3.92,0,0,0-.42.64l-.06.12A3.33,3.33,0,0,0,9.16,4l0,0h2.38l.06-.08.07-.09a2.77,2.77,0,0,1,.4-.36A2.51,2.51,0,0,1,13.5,3h11A2.5,2.5,0,0,1,27,5.5v16h0a2.69,2.69,0,0,1-.07.57.88.88,0,0,1-.05.15,2.35,2.35,0,0,1-.14.37c0,.05,0,.1-.08.14a2.16,2.16,0,0,1-.24.35l-.07.09a2.77,2.77,0,0,1-.4.36,2.45,2.45,0,0,1-.95.41V26h0a4.34,4.34,0,0,0,.53-.05A3.94,3.94,0,0,0,28.1,24.5l0,0a3.92,3.92,0,0,0,.42-.64l.06-.12a3.33,3.33,0,0,0,.23-.65l.06-.17A4.32,4.32,0,0,0,29,22V5A4,4,0,0,0,25,1Z"/><path class="cls-1" d="M7.59,7.18A2.54,2.54,0,0,1,8.5,7h11A2.5,2.5,0,0,1,22,9.5V21.59l2,2V9a4,4,0,0,0-4-4H8a4.34,4.34,0,0,0-.53,0A4.2,4.2,0,0,0,6,5.57Z"/><path class="cls-1" d="M22,24.41V25.5h0a2.69,2.69,0,0,1-.07.57.88.88,0,0,1-.05.15,2.35,2.35,0,0,1-.14.37c0,.05,0,.1-.08.14a2.16,2.16,0,0,1-.24.35l-.07.09a2.77,2.77,0,0,1-.4.36A2.51,2.51,0,0,1,19.5,28H8.5A2.5,2.5,0,0,1,6,25.5V9.5H6a2.69,2.69,0,0,1,.07-.57.88.88,0,0,1,0-.15,1.34,1.34,0,0,1,.07-.18L4.58,7c0,.07-.09.12-.13.19l-.06.12A3.33,3.33,0,0,0,4.16,8l-.06.17A4.32,4.32,0,0,0,4,9V26a4,4,0,0,0,4,4H20a4.34,4.34,0,0,0,.53-.05A3.94,3.94,0,0,0,23.1,28.5l0,0a3.92,3.92,0,0,0,.42-.64l.06-.12a3.33,3.33,0,0,0,.23-.65l.06-.17c0-.16.06-.33.08-.49Z"/><rect class="cls-1" x="13.1" y="0.22" width="2" height="35.36" transform="translate(-8.53 15.21) rotate(-45)"/></svg>