<?xml version="1.0" encoding="UTF-8"?>
<svg id="Layer_1" data-name="Layer 1" xmlns="http://www.w3.org/2000/svg" viewBox="0 0 32 32">
  <defs>
    <style>
      .cls-1 {
        fill: #338ecc;
        fill-rule: evenodd;
      }
    </style>
  </defs>
  <path class="cls-1" d="M10.6,2H6.3c-2.15,0-4.3,2.14-4.3,4.28V25.68c0,2.14,2.15,4.28,4.3,4.28h4.3c2.15,0,4.3-2.14,4.3-4.28V6.28c0-2.14-2.15-4.28-4.3-4.28Zm2.15,19.41v4.28c0,1.07-1.08,2.14-2.15,2.14H6.3c-1.08,0-2.15-1.07-2.15-2.14V6.28c0-1.07,1.08-2.14,2.15-2.14h4.3c1.08,0,2.15,1.07,2.15,2.14v15.13Z"/>
  <polygon class="cls-1" points="28.48 22.44 26.2 24.71 23.92 22.44 22.4 23.95 24.68 26.22 22.4 28.49 23.92 30 26.2 27.73 28.48 30 30 28.49 27.72 26.22 30 23.95 28.48 22.44"/>
  <path class="cls-1" d="M19.21,11.92V6.28c0-1.07,1.08-2.14,2.15-2.14h4.3c1.08,0,2.15,1.07,2.15,2.14v14.06h2.15V6.28c0-2.14-2.15-4.28-4.3-4.28h-4.3c-2.15,0-4.3,2.14-4.3,4.28V25.68c0,1.78,1.49,3.54,3.23,4.09v-2.3c-.62-.4-1.08-1.09-1.08-1.79V11.92Z"/>
</svg>