<svg id="Layer_1" data-name="Layer 1" xmlns="http://www.w3.org/2000/svg" viewBox="0 0 24 24"><defs><style>.cls-1{fill:#338ecc;}</style></defs><path class="cls-1" d="M18,1.25H9a2.58,2.58,0,0,0-.4,0A2.94,2.94,0,0,0,6.67,2.38l0,0a2.56,2.56,0,0,0-.22.35H8.52c.22,0,.44,0,.65,0a1.33,1.33,0,0,1,.21,0h8.24A1.88,1.88,0,0,1,19.5,4.63v15a2.83,2.83,0,0,0,.83-.71l0,0a2.71,2.71,0,0,0,.31-.49l.05-.08a2.84,2.84,0,0,0,.17-.49.93.93,0,0,0,0-.13A2.84,2.84,0,0,0,21,17V4.25A3,3,0,0,0,18,1.25Z"/><path class="cls-1" d="M5.67,5.91a1.68,1.68,0,0,1,.71-.16h8.24A1.88,1.88,0,0,1,16.5,7.63v9.1l1.5,1.5v-11a3,3,0,0,0-3-3H6a2.58,2.58,0,0,0-.4,0,3.16,3.16,0,0,0-1.14.4Z"/><path class="cls-1" d="M16.5,18.77v.85h0a2,2,0,0,1-.05.42s0,.07,0,.11a1.45,1.45,0,0,1-.11.29l-.05.1-.18.26-.06.07a1.93,1.93,0,0,1-.3.27,1.84,1.84,0,0,1-1.09.35H6.38A1.88,1.88,0,0,1,4.5,19.62v-12h0a2,2,0,0,1,0-.42s0-.07,0-.11l.06-.17-1.2-1.2a1,1,0,0,0-.11.17l0,.08a2.84,2.84,0,0,0-.17.49.93.93,0,0,0,0,.13A2.84,2.84,0,0,0,3,7.25V20a3,3,0,0,0,3,3h9a2.58,2.58,0,0,0,.4,0,2.94,2.94,0,0,0,1.93-1.09l0,0a2.71,2.71,0,0,0,.31-.49l.05-.08a2.84,2.84,0,0,0,.17-.49.93.93,0,0,0,0-.13,3,3,0,0,0,0-.42Z"/><rect class="cls-1" x="9.79" y="0.54" width="1.44" height="25.44" transform="translate(-6.3 11.31) rotate(-45)"/></svg>