<?xml version="1.0" encoding="UTF-8"?>
<svg id="Layer_1" data-name="Layer 1" xmlns="http://www.w3.org/2000/svg" viewBox="0 0 24 24">
  <defs>
    <style>
      .cls-1 {
        fill: #338ecc;
        fill-rule: evenodd;
      }
    </style>
  </defs>
  <path class="cls-1" d="M8.12,2h-3.08c-1.54,0-3.08,1.54-3.08,3.08v13.85c0,1.54,1.54,3.08,3.08,3.08h3.08c1.54,0,3.08-1.54,3.08-3.08V5.08c0-1.54-1.54-3.08-3.08-3.08Zm1.54,13.85v3.08c0,.77-.77,1.54-1.54,1.54h-3.08c-.77,0-1.54-.77-1.54-1.54V5.08c0-.77,.77-1.54,1.54-1.54h3.08c.77,0,1.54,.77,1.54,1.54V15.85Z"/>
  <polygon class="cls-1" points="20.91 16.59 19.28 18.23 17.65 16.59 16.56 17.68 18.19 19.31 16.56 20.95 17.65 22.04 19.28 20.4 20.91 22.04 22 20.95 20.37 19.31 22 17.68 20.91 16.59"/>
  <path class="cls-1" d="M14.28,6.62v-1.54c0-.77,.77-1.54,1.54-1.54h3.08c.77,0,1.54,.77,1.54,1.54V15.08h1.54V5.08c0-1.54-1.54-3.08-3.08-3.08h-3.08c-1.54,0-3.08,1.54-3.08,3.08v13.85c0,1.28,1.07,2.54,2.31,2.94v-1.65c-.44-.29-.77-.79-.77-1.29V6.62Z"/>
</svg>