<svg width="32" height="32" viewBox="0 0 32 32" fill="none" xmlns="http://www.w3.org/2000/svg">
  <g stroke="none" stroke-width="1" fill-rule="evenodd" transform="translate(3.000000, 10.604400)">
    <path d="M12.269,11.0671 C19.047,11.0671 24.538,8.3221 24.538,4.9331 L24.538,0.3321 C24.538,3.7211 19.047,6.4661 12.269,6.4661 C5.491,6.4661 5.32907052e-15,3.7211 5.32907052e-15,0.3321 L5.32907052e-15,4.9331 C5.32907052e-15,8.3221 5.491,11.0671 12.269,11.0671" />
    <path d="M12.269,18.735 C19.047,18.735 24.538,15.99 24.538,12.6 L24.538,8 C24.538,11.389 19.047,14.134 12.269,14.134 C5.491,14.134 5.32907052e-15,11.389 5.32907052e-15,8 L5.32907052e-15,12.6 C5.32907052e-15,15.99 5.491,18.735 12.269,18.735" />
    <path d="M12.269,3.3991 C19.047,3.3991 24.538,0.6541 24.538,-2.7349 C24.538,-6.1239 19.047,-8.8699 12.269,-8.8699 C5.491,-8.8699 5.32907052e-15,-6.1239 5.32907052e-15,-2.7349 C5.32907052e-15,0.6541 5.491,3.3991 12.269,3.3991" />
  </g>
</svg>
