<svg width="32" height="32" viewBox="0 0 32 32" fill="none" xmlns="http://www.w3.org/2000/svg">
<path fill-rule="evenodd" clip-rule="evenodd" d="M10 11H14V10H10V11Z" fill="white"/>
<path fill-rule="evenodd" clip-rule="evenodd" d="M16.4998 12H21.9998V9H16.4998V12Z" fill="white"/>
<path fill-rule="evenodd" clip-rule="evenodd" d="M10 16.5H14V15.5H10V16.5Z" fill="white"/>
<path fill-rule="evenodd" clip-rule="evenodd" d="M16.4998 17.5H21.9998V14.5H16.4998V17.5Z" fill="white"/>
<path fill-rule="evenodd" clip-rule="evenodd" d="M10 21.938H14V20.938H10V21.938Z" fill="white"/>
<path fill-rule="evenodd" clip-rule="evenodd" d="M16.4998 23H21.9998V20H16.4998V23Z" fill="white"/>
<path fill-rule="evenodd" clip-rule="evenodd" d="M4 7.00916H9V5.00916H4V7.00916Z" fill="white"/>
<path fill-rule="evenodd" clip-rule="evenodd" d="M4 27H9V25H4V27Z" fill="white"/>
<path fill-rule="evenodd" clip-rule="evenodd" d="M4 27H6V5H4V27Z" fill="white"/>
<path fill-rule="evenodd" clip-rule="evenodd" d="M23 27H28V25H23V27Z" fill="white"/>
<path fill-rule="evenodd" clip-rule="evenodd" d="M23 7H28V5H23V7Z" fill="white"/>
<path fill-rule="evenodd" clip-rule="evenodd" d="M26 27H28V5H26V27Z" fill="white"/>
</svg>
