<svg width="24" height="24" viewBox="0 0 24 24" fill="none" xmlns="http://www.w3.org/2000/svg">
<path fill-rule="evenodd" clip-rule="evenodd" d="M6 7H10V6H6V7Z" fill="white"/>
<path fill-rule="evenodd" clip-rule="evenodd" d="M13 8H18V5H13V8Z" fill="white"/>
<path fill-rule="evenodd" clip-rule="evenodd" d="M6 12.5H10V11.5H6V12.5Z" fill="white"/>
<path fill-rule="evenodd" clip-rule="evenodd" d="M13 13.5H18V10.5H13V13.5Z" fill="white"/>
<path fill-rule="evenodd" clip-rule="evenodd" d="M6 18H10V17H6V18Z" fill="white"/>
<path fill-rule="evenodd" clip-rule="evenodd" d="M13 19H18V16H13V19Z" fill="white"/>
<path fill-rule="evenodd" clip-rule="evenodd" d="M0 3H5V1H0V3Z" fill="white"/>
<path fill-rule="evenodd" clip-rule="evenodd" d="M0 23H5V21H0V23Z" fill="white"/>
<path fill-rule="evenodd" clip-rule="evenodd" d="M0 23H2V1H0V23Z" fill="white"/>
<path fill-rule="evenodd" clip-rule="evenodd" d="M19 23H24V21H19V23Z" fill="white"/>
<path fill-rule="evenodd" clip-rule="evenodd" d="M19 3H24V1H19V3Z" fill="white"/>
<path fill-rule="evenodd" clip-rule="evenodd" d="M22 23H24V1H22V23Z" fill="white"/>
</svg>
