<svg width="16" height="16" viewBox="0 0 16 17" fill="none" xmlns="http://www.w3.org/2000/svg">
<path fill-rule="evenodd" clip-rule="evenodd" d="M8 12.3057C11.8671 12.3057 15 10.7147 15 8.75039V6.08362C15 8.04791 11.8671 9.63893 8 9.63893C4.13286 9.63893 1 8.04791 1 6.08362V8.75039C1 10.7147 4.13286 12.3057 8 12.3057Z" fill="white"/>
<path fill-rule="evenodd" clip-rule="evenodd" d="M8 16.75C11.8671 16.75 15 15.159 15 13.1941V10.528C15 12.4922 11.8671 14.0833 8 14.0833C4.13286 14.0833 1 12.4922 1 10.528V13.1941C1 15.159 4.13286 16.75 8 16.75Z" fill="white"/>
<path fill-rule="evenodd" clip-rule="evenodd" d="M8 7.8612C11.8671 7.8612 15 6.27018 15 4.30589C15 2.3416 11.8671 0.75 8 0.75C4.13286 0.75 1 2.3416 1 4.30589C1 6.27018 4.13286 7.8612 8 7.8612Z" fill="white"/>
</svg>
