<svg width="24" height="25" viewBox="0 0 24 25" fill="none" xmlns="http://www.w3.org/2000/svg">
<path fill-rule="evenodd" clip-rule="evenodd" d="M12 18.0835C18.0769 18.0835 23 15.697 23 12.7505V8.75037C23 11.6968 18.0769 14.0833 12 14.0833C5.92306 14.0833 1 11.6968 1 8.75037V12.7505C1 15.697 5.92306 18.0835 12 18.0835Z" fill="white"/>
<path fill-rule="evenodd" clip-rule="evenodd" d="M12 24.75C18.0769 24.75 23 22.3635 23 19.4162V15.4169C23 18.3633 18.0769 20.7498 12 20.7498C5.92306 20.7498 1 18.3633 1 15.4169V19.4162C1 22.3635 5.92306 24.75 12 24.75Z" fill="white"/>
<path fill-rule="evenodd" clip-rule="evenodd" d="M12 11.4168C18.0769 11.4168 23 9.03027 23 6.08384C23 3.1374 18.0769 0.75 12 0.75C5.92306 0.75 1 3.1374 1 6.08384C1 9.03027 5.92306 11.4168 12 11.4168Z" fill="white"/>
</svg>
