<svg width="32" height="32" viewBox="0 0 32 32" fill="none" xmlns="http://www.w3.org/2000/svg">
<path fill-rule="evenodd" clip-rule="evenodd" d="M10.2584 10.9595H14.6229V9.72485H10.2584V10.9595Z" fill="white"/>
<path fill-rule="evenodd" clip-rule="evenodd" d="M16.4529 12.1942H21.9428V8.48108H16.4529V12.1942Z" fill="white"/>
<path fill-rule="evenodd" clip-rule="evenodd" d="M10.2584 17.2253H14.6229V15.9907H10.2584V17.2253Z" fill="white"/>
<path fill-rule="evenodd" clip-rule="evenodd" d="M16.4529 18.4599H21.9428V14.7468H16.4529V18.4599Z" fill="white"/>
<path fill-rule="evenodd" clip-rule="evenodd" d="M10.2584 23.1013H14.6229V21.8667H10.2584V23.1013Z" fill="white"/>
<path fill-rule="evenodd" clip-rule="evenodd" d="M16.4529 24.3452H21.9428V20.6321H16.4529V24.3452Z" fill="white"/>
<path fill-rule="evenodd" clip-rule="evenodd" d="M4.75928 7.27413H8.7852V5.00916H4.75928V7.27413Z" fill="white"/>
<path fill-rule="evenodd" clip-rule="evenodd" d="M4.75928 27H8.7852V24.735H4.75928V27Z" fill="white"/>
<path fill-rule="evenodd" clip-rule="evenodd" d="M4 26.8793H6.22341V5H4V26.8793Z" fill="white"/>
<path fill-rule="evenodd" clip-rule="evenodd" d="M23.2146 26.9907H27.2405V24.7257H23.2146V26.9907Z" fill="white"/>
<path fill-rule="evenodd" clip-rule="evenodd" d="M23.2146 7.26498H27.2405V5H23.2146V7.26498Z" fill="white"/>
<path fill-rule="evenodd" clip-rule="evenodd" d="M25.7675 27H28V5.12073H25.7675V27Z" fill="white"/>
</svg>
