<svg width="16" height="16" viewBox="0 0 16 16" fill="none" xmlns="http://www.w3.org/2000/svg">
<path fill-rule="evenodd" clip-rule="evenodd" d="M4 4.28162H7V3.28162H4V4.28162Z" fill="white"/>
<path fill-rule="evenodd" clip-rule="evenodd" d="M9 5.03162H12V2.53162H9V5.03162Z" fill="white"/>
<path fill-rule="evenodd" clip-rule="evenodd" d="M4 8.5H7V7.5H4V8.5Z" fill="white"/>
<path fill-rule="evenodd" clip-rule="evenodd" d="M9 9.25H12V6.75H9V9.25Z" fill="white"/>
<path fill-rule="evenodd" clip-rule="evenodd" d="M4 12.718H7V11.718H4V12.718Z" fill="white"/>
<path fill-rule="evenodd" clip-rule="evenodd" d="M9 13.468H12V10.968H9V13.468Z" fill="white"/>
<path fill-rule="evenodd" clip-rule="evenodd" d="M0 1.5H3V0H0V1.5Z" fill="white"/>
<path fill-rule="evenodd" clip-rule="evenodd" d="M0 16H3V14.5H0V16Z" fill="white"/>
<path fill-rule="evenodd" clip-rule="evenodd" d="M0 16H1.5V0H0V16Z" fill="white"/>
<path fill-rule="evenodd" clip-rule="evenodd" d="M13 16H16V14.5H13V16Z" fill="white"/>
<path fill-rule="evenodd" clip-rule="evenodd" d="M13 1.5H16V0H13V1.5Z" fill="white"/>
<path fill-rule="evenodd" clip-rule="evenodd" d="M14.5 16H16V0H14.5V16Z" fill="white"/>
</svg>
