<svg width="32" height="33" viewBox="0 0 32 33" fill="none" xmlns="http://www.w3.org/2000/svg">
<path fill-rule="evenodd" clip-rule="evenodd" d="M16 22.0835C22.0769 22.0835 27 19.697 27 16.7505V12.7504C27 15.6968 22.0769 18.0833 16 18.0833C9.92306 18.0833 5 15.6968 5 12.7504V16.7505C5 19.697 9.92306 22.0835 16 22.0835Z" fill="white"/>
<path fill-rule="evenodd" clip-rule="evenodd" d="M16 28.75C22.0769 28.75 27 26.3635 27 23.4162V19.4169C27 22.3633 22.0769 24.7498 16 24.7498C9.92306 24.7498 5 22.3633 5 19.4169V23.4162C5 26.3635 9.92306 28.75 16 28.75Z" fill="white"/>
<path fill-rule="evenodd" clip-rule="evenodd" d="M16 15.4168C22.0769 15.4168 27 13.0303 27 10.0838C27 7.1374 22.0769 4.75 16 4.75C9.92306 4.75 5 7.1374 5 10.0838C5 13.0303 9.92306 15.4168 16 15.4168Z" fill="white"/>
</svg>
